<svg width="16" height="16" version="1.1" viewBox="0 0 16 16" xmlns="http://www.w3.org/2000/svg"><path d="m3.7164 2.6952c-0.095436 0-0.15958 0.041653-0.19139 0.12648l-3.5149 10.117c-0.031812 0.11664 0.011505 0.17475 0.12815 0.17475h1.0651c0.095436 0 0.15958-0.04332 0.19139-0.12815l0.75225-2.305h4.5218l0.76889 2.305c0.031811 0.08484 0.095955 0.12815 0.19139 0.12815h1.13c0.11664 0 0.1583-0.0581 0.12648-0.17475l-3.5632-10.117c-0.031812-0.084832-0.094291-0.12648-0.18973-0.12648zm0.66737 1.2249h0.016642c0.11664 0.31812 0.22848 0.63551 0.33452 0.95362l0.31788 0.95529 1.2232 3.673h-3.7429l1.2149-3.7213 0.31788-0.922c0.10604-0.31812 0.21184-0.63113 0.31788-0.93865zm8.764 1.2399c-0.90134 0-1.6167 0.19076-2.1469 0.57251-0.51959 0.37114-0.75201 0.86013-0.69899 1.4646 0.01061 0.20148 0.0687 0.30123 0.17475 0.30123h1.0502c0.09544 0 0.14313-0.052066 0.14313-0.15811 0-0.65745 0.47691-0.98691 1.4313-0.98691 0.5302 0 0.90132 0.11183 1.1134 0.33452 0.21208 0.22268 0.31788 0.59817 0.31788 1.1284v0.65905l-1.2415 0.10485c-0.8059 0.06362-1.4528 0.19024-1.9405 0.38112-0.47718 0.19087-0.8258 0.46223-1.0485 0.81216-0.21208 0.34993-0.31788 0.79998-0.31787 1.3514 0 0.71046 0.15786 1.2515 0.47598 1.6227 0.32872 0.37114 0.80126 0.55753 1.4163 0.55753 0.33933 0 0.66275-0.05977 0.97027-0.17641 0.30752-0.10604 0.62053-0.28035 0.93865-0.52424 0.25796-0.19971 0.52808-0.44448 0.81216-0.73561 0.01146 0.1491 0.02748 0.30889 0.0466 0.48097 0.04241 0.2757 0.06927 0.45605 0.07988 0.54089 0.0212 0.06362 0.04204 0.11735 0.06324 0.15977 0.0212 0.04242 0.06286 0.06324 0.12648 0.06324h0.92367c0.12725 0 0.17931-0.05811 0.15811-0.17475-0.03181-0.21208-0.05868-0.46095-0.07989-0.74725-0.0212-0.29691-0.03163-0.63242-0.03163-1.0036v-3.4034c0-0.88013-0.22804-1.5374-0.68402-1.9722-0.44535-0.43476-1.1295-0.65239-2.052-0.65239zm1.3847 4.3487v1.2232c-0.48769 0.4833-0.89004 0.82688-1.2083 1.0302-0.38174 0.23329-0.74848 0.3495-1.0984 0.3495-0.29691 0-0.51892-0.091-0.66737-0.27128-0.14846-0.18027-0.22301-0.44996-0.22301-0.8105 0-0.47718 0.13704-0.81705 0.41274-1.0185 0.2757-0.20148 0.77948-0.33413 1.5112-0.39776z" fill="#fff" fill-rule="evenodd" stroke-linecap="round" stroke-linejoin="round" stroke-width=".4" style="paint-order:stroke markers fill"/></svg>
