<svg width="16" height="16" version="1.1" viewBox="0 0 16 16" xmlns="http://www.w3.org/2000/svg"><path d="m6.8388 11.756-0.74859-2.2585h-3.4004l-0.77397 2.2585 1.0531 0.26645v0.54558h-2.969v-0.54558l1.0404-0.26645 3.0451-8.4502h1.18l3.0071 8.4502 1.015 0.26645v0.54558h-3.4892v-0.54558zm-2.4107-7.321-1.4845 4.3266h2.9056l-1.3703-4.3266zm5.2909 6.6485q0-0.98966 0.92622-1.5606 0.92622-0.57096 3.0705-0.88816-0.05075-0.74859-0.13957-1.1673-0.08882-0.4187-0.22838-0.67246-0.17763-0.32989-0.49483-0.48214-0.3172-0.16494-0.68515-0.16494-0.35526 0-0.64709 0.12688-0.27914 0.12688-0.38064 0.34258 0.17763 0.12688 0.25376 0.32989 0.08882 0.20301 0.08882 0.38064 0 0.3172-0.2157 0.50752-0.20301 0.17763-0.50752 0.17763t-0.50752-0.20301q-0.19032-0.20301-0.19032-0.57096 0-0.5329 0.36795-0.90085t0.92622-0.55827q0.57096-0.19032 1.1419-0.19032 0.52021 0 0.9516 0.16494 0.44408 0.15226 0.74859 0.45677 0.78666 0.78666 0.78666 2.7914v1.8398q0 0.62171 0.07613 0.86278 0.08882 0.24107 0.36795 0.24107h0.57096v0.38064q-0.91354 0.36795-1.4211 0.36795-0.39333 0-0.5329-0.27914-0.12688-0.29182-0.12688-1.1039h-0.05075q-0.39333 0.64709-1.0404 1.015t-1.3957 0.36795q-0.79934 0-1.2561-0.43139-0.45677-0.43139-0.45677-1.18zm2.2458 0.87547q0.35526 0 0.7359-0.17763 0.39333-0.19032 0.65978-0.52021 0.20301-0.25376 0.29182-0.59634 0.1015-0.35526 0.1015-0.82472 0-0.2157-0.01269-0.4187-0.01269-0.2157-0.03806-0.40602-1.0277 0.20301-1.6114 0.44408-0.58365 0.22838-0.82472 0.55827-0.24107 0.3172-0.24107 0.79934 0 0.54558 0.24107 0.8501 0.25376 0.29182 0.69784 0.29182z" fill="#fff" fill-rule="evenodd" stroke-linecap="round" stroke-linejoin="round" stroke-width=".4" style="paint-order:stroke markers fill" aria-label="Aa"/></svg>
