<svg width="16" height="16" version="1.1" viewBox="0 0 16 16" xmlns="http://www.w3.org/2000/svg"><path d="m0 12.75 3.9444-9.6389h0.94444l3.9306 9.6389h-1.4167l-3.2361-8.1528h0.48611l-3.2639 8.1528zm1.875-2.1806v-1.1389h5.0694v1.1389zm10.667 2.3194q-0.90278 0-1.6389-0.44444-0.73611-0.45833-1.1667-1.2361-0.41667-0.77778-0.41667-1.75 0-0.97222 0.41667-1.75 0.43056-0.77778 1.1528-1.2361 0.73611-0.45833 1.6528-0.45833 0.75 0 1.3333 0.31944 0.59722 0.30556 0.95833 0.86111 0.36111 0.54167 0.40278 1.2639v1.9861q-0.04167 0.70833-0.40278 1.2639-0.34722 0.55556-0.94444 0.875-0.58333 0.30556-1.3472 0.30556zm0.20833-1.1806q0.93056 0 1.5-0.625 0.56944-0.63889 0.56944-1.625 0-0.68056-0.26389-1.1806-0.25-0.51389-0.72222-0.79167-0.47222-0.29167-1.0972-0.29167t-1.1111 0.29167q-0.47222 0.29167-0.75 0.80556-0.26389 0.5-0.26389 1.1528 0 0.66667 0.26389 1.1806 0.27778 0.5 0.76389 0.79167 0.48611 0.29167 1.1111 0.29167zm1.9861 1.0417v-1.7778l0.23611-1.6111-0.23611-1.5972v-1.6111h1.2639v6.5972z" fill="#fff" stroke-linecap="round" stroke-linejoin="round" stroke-width=".4" style="paint-order:stroke markers fill" aria-label="Aa"/></svg>
