<svg width="16" height="16" version="1.1" viewBox="0 0 16 16" xmlns="http://www.w3.org/2000/svg"><path d="m2.3055 13.417 2.3238-10.943h1.4726l2.3372 10.943h-1.4456l-0.49988-2.7561h-2.2292l-0.5269 2.7561zm2.1617-3.8504h1.8239l-0.91867-4.9312zm6.1336 3.9585q-0.45935 0-0.81061-0.2567-0.35126-0.2702-0.55392-0.67551-0.20265-0.41882-0.20265-0.87814 0-0.72955 0.24318-1.2294 0.24318-0.49988 0.662-0.83761 0.43232-0.35126 0.98627-0.60796 0.56743-0.2567 1.1889-0.49988v-0.55392q0-0.47285-0.05404-0.78361-0.05404-0.31076-0.22967-0.45935-0.16212-0.16212-0.49988-0.16212-0.29723 0-0.48637 0.1351-0.17563 0.1351-0.2567 0.39179-0.08106 0.24318-0.08106 0.58094v0.39179l-1.4321-0.054041q0.02702-1.297 0.59445-1.9049 0.56743-0.62147 1.7563-0.62147 1.1619 0 1.6482 0.63498 0.48637 0.63498 0.48637 1.8374v3.5667q0 0.36478 0.01352 0.70253 0.02702 0.33776 0.05404 0.63498 0.04054 0.28371 0.06755 0.54041h-1.324q-0.04054-0.21617-0.10808-0.54041-0.05404-0.33776-0.08106-0.60796-0.1351 0.45935-0.5269 0.86468-0.37829 0.39179-1.0538 0.39179zm0.56743-1.2429q0.21616 0 0.4053-0.12159 0.18914-0.12159 0.33776-0.2702 0.14861-0.16212 0.20265-0.2567v-2.2156q-0.33776 0.18914-0.63498 0.37829-0.29723 0.18914-0.5269 0.40531-0.21616 0.20265-0.35126 0.47286-0.12159 0.2567-0.12159 0.59445 0 0.47286 0.17563 0.74308 0.17564 0.27022 0.51338 0.2702z" fill="#fff" fill-rule="evenodd" stroke-linecap="round" stroke-linejoin="round" stroke-width="1.2361" aria-label="Aa"/></svg>
