<svg width="16" height="16" version="1.1" viewBox="0 0 16 16" xmlns="http://www.w3.org/2000/svg"><path d="m8.7733e-6 13.106 2.6667-10.406h2.4195l2.6667 10.406h-1.548l-2.3024-9.3008h-0.13008l-2.3154 9.3008zm1.626-3.5252v-1.4049h4.5008v1.4049zm13.125-1.3528v1.2618l-2.3415 0.36423q-0.54634 0.091057-0.81951 0.37724-0.26016 0.28618-0.26016 0.75447 0 0.44228 0.3252 0.71545 0.33821 0.27317 0.85853 0.27317 0.57236 0 1.0406-0.27317 0.4813-0.27317 0.76748-0.72845 0.28618-0.46829 0.28618-1.0276v-1.9122q0-0.75447-0.45528-1.1837-0.45528-0.42927-1.2488-0.42927-0.55935 0-1.0016 0.18211-0.44228 0.18211-0.72845 0.53333-0.27317 0.35122-0.37724 0.85853h-1.3659q0.06504-0.89756 0.50732-1.548 0.45528-0.6504 1.2228-1.0016t1.7821-0.35122q1.4569 0 2.2504 0.74146 0.8065 0.74146 0.8065 2.1073v5.1642h-1.3919v-0.71545h-0.39024q-0.31219 0.44228-0.81951 0.67642-0.49431 0.23415-1.2228 0.23415-0.71545 0-1.2488-0.27317-0.52032-0.28618-0.81951-0.79349-0.28618-0.50732-0.28618-1.1837 0-0.97561 0.62439-1.6 0.62439-0.6374 1.7821-0.81951z" fill="#fff" stroke-linecap="round" stroke-linejoin="round" stroke-width=".4" style="paint-order:stroke markers fill" aria-label="Aa"/></svg>
