<svg width="16" height="16" version="1.1" viewBox="0 0 16 16" xmlns="http://www.w3.org/2000/svg"><path d="m2.748 0c-0.22854 0-0.46409 0.093825-0.61914 0.26758-0.15369 0.16072-0.22461 0.38204-0.22461 0.59961v14.287c0 0.21424 0.073018 0.43252 0.21289 0.5957a0.34192 0.34192 0 0 0 0.017578 0.019531c0.16139 0.16139 0.39067 0.23047 0.61328 0.23047h1.1172c0.22262 0 0.45189-0.06908 0.61328-0.23047 0.15967-0.15967 0.25391-0.38959 0.25391-0.61523v-5.3027h3.2871l3.0742 5.3848a0.34192 0.34192 0 0 0 0.013672 0.021484c0.09725 0.14587 0.20789 0.28783 0.33398 0.42969 0.19659 0.22115 0.49443 0.3125 0.80274 0.3125h1.0508c0.19711 0 0.39439-0.08941 0.53516-0.22461 0.1539-0.13664 0.26562-0.34279 0.26562-0.55469 0-0.14131-0.04082-0.27303-0.10156-0.39453a0.34192 0.34192 0 0 0-0.009766-0.017578l-3.2129-5.5508c0.82266-0.30954 1.5789-0.70371 2.0918-1.3516 0.62323-0.78303 0.92774-1.7878 0.92774-2.9688 0-1.5894-0.52441-2.8617-1.5723-3.7031-1.037-0.83275-2.4291-1.2344-4.1309-1.2344h-5.3398zm1.9844 2.5215h3.2676c1.0606 0 1.7868 0.22587 2.2227 0.61328a0.34192 0.34192 0 0 0 0.003906 0.0039063c0.45842 0.39647 0.69141 0.95472 0.69141 1.7754 0 0.83449-0.2344 1.3997-0.68945 1.7949-0.45263 0.37859-1.1825 0.59961-2.2285 0.59961h-3.2676v-4.7871z" fill="#fff" fill-rule="evenodd" stop-color="#000000" stroke-linecap="round" stroke-linejoin="round" style="paint-order:stroke markers fill"/></svg>
