<svg width="16" height="16" version="1.1" viewBox="0 0 16 16" xmlns="http://www.w3.org/2000/svg"><path d="m2.748 0c-0.22854 0-0.46409 0.093825-0.61914 0.26758-0.15369 0.16072-0.22461 0.38204-0.22461 0.59961v14.287c0 0.21424 0.073018 0.43252 0.21289 0.5957a0.34192 0.34192 0 0 0 0.017578 0.01953c0.16139 0.16139 0.39067 0.23047 0.61328 0.23047h1.1172c0.22262 0 0.45189-0.06908 0.61328-0.23047 0.15967-0.15967 0.25391-0.38959 0.25391-0.61523v-5.3027h3.2871l3.0742 5.3848a0.34192 0.34192 0 0 0 0.01367 0.02149c0.09725 0.14587 0.20789 0.28783 0.33398 0.42969 0.19659 0.22115 0.49443 0.3125 0.80274 0.3125h1.0508c0.19711 0 0.39439-0.08941 0.53516-0.22461 0.1539-0.13664 0.26562-0.34279 0.26562-0.55469 0-0.14131-0.04082-0.27303-0.10156-0.39453a0.34192 0.34192 0 0 0-0.0098-0.01758l-3.2129-5.5508c0.82266-0.30954 1.5789-0.70371 2.0918-1.3516 0.62323-0.78303 0.92774-1.7878 0.92774-2.9688 0-1.5894-0.52441-2.8617-1.5723-3.7031-1.037-0.83275-2.4291-1.2344-4.1309-1.2344zm0 0.68359h5.3398c1.5949 0 2.8127 0.37052 3.7012 1.084 0.87761 0.70475 1.3164 1.7252 1.3164 3.1699 0 1.0655-0.2628 1.8965-0.77734 2.543a0.34192 0.34192 0 0 0-2e-3 0.00195c-0.50814 0.64186-1.1956 1.0888-2.1016 1.3496a0.34192 0.34192 0 0 0-0.20117 0.49805l3.3594 5.8047c0.0253 0.05154 0.0293 0.08147 0.0293 0.08594 0 0.01698 0.0119 0.0082-0.0332 0.04687a0.34192 0.34192 0 0 0-0.01953 0.01758c-0.0338 0.0338-0.03323 0.03125-0.06445 0.03125h-1.0508c-0.18764 0-0.25421-0.04062-0.29102-0.08203-0.1073-0.12071-0.19955-0.24073-0.27734-0.35742l-3.1601-5.5371a0.34192 0.34192 0 0 0-0.29688-0.17188h-3.8281a0.34192 0.34192 0 0 0-0.3418 0.3418v5.6445c0 0.0661-0.010138 0.08631-0.054687 0.13086-0.013654 0.01365-0.030611 0.03125-0.12891 0.03125h-1.1172c-0.089173 0-0.10343-0.01448-0.11719-0.02734-0.027507-0.03537-0.042969-0.06544-0.042969-0.13477v-14.287c0-0.098295 0.017596-0.11721 0.03125-0.13086a0.34192 0.34192 0 0 0 0.017578-0.019531c0.020337-0.023726 0.023393-0.033203 0.11133-0.033203zm1.6426 1.1543a0.34192 0.34192 0 0 0-0.3418 0.3418v5.4707a0.34192 0.34192 0 0 0 0.3418 0.3418h3.6094c1.1411 0 2.043-0.23259 2.6699-0.75781a0.34192 0.34192 0 0 0 0.0039-0.00391c0.62234-0.53824 0.92774-1.344 0.92774-2.3164 0-0.95676-0.30563-1.752-0.92383-2.2891-4.14e-4 -3.679e-4 -0.0015 3.677e-4 -2e-3 0-0.61434-0.54536-1.5199-0.78711-2.6757-0.78711zm0.3418 0.68359h3.2676c1.0606 0 1.7868 0.22587 2.2227 0.61328a0.34192 0.34192 0 0 0 0.0039 0.00391c0.45842 0.39647 0.69141 0.95472 0.69141 1.7754 0 0.83449-0.2344 1.3997-0.68945 1.7949-0.45263 0.37859-1.1825 0.59961-2.2285 0.59961h-3.2676z" fill="#fff" fill-rule="evenodd" stop-color="#000000" stroke-linecap="round" stroke-linejoin="round" style="paint-order:stroke markers fill"/></svg>
