<svg width="16" height="16" version="1.1" viewBox="0 0 16 16" xmlns="http://www.w3.org/2000/svg"><g fill="#fff" fill-rule="evenodd" stroke-linecap="round" stroke-linejoin="round" stroke-width="1.1005"><path d="m3.2692-2.5e-7c-0.41897 0-0.82816 0.16257-1.137 0.50081-0.29289 0.31473-0.41698 0.70297-0.41698 1.0725v12.873c0 0.37572 0.12415 0.74703 0.38474 1.051 0.013959 0.0168 0.028051 0.0335 0.042988 0.04944a0.5503 0.5503 0 0 0 0.012896 0.0129c0.32913 0.32912 0.74627 0.44062 1.1134 0.44062h1.0059c0.36711 0 0.78425-0.1115 1.1134-0.44062 0.30108-0.30108 0.45997-0.69242 0.45997-1.1134v-3.985h1.7088l2.5427 4.4514c0.01105 0.01959 0.02217 0.03916 0.03439 0.05803a0.5503 0.5503 0 0 0 0.0043 0.0064c0.11233 0.16849 0.23882 0.32537 0.37184 0.47501 0.368 0.41405 0.87794 0.54814 1.3133 0.54814h0.94573c0.40923 0 0.7503-0.16982 1.0145-0.41698 0.28387-0.25732 0.50081-0.61814 0.50081-1.079 0-0.28153-0.08556-0.52062-0.17625-0.70285v-0.0043c-0.0074-0.01531-0.01559-0.03019-0.02364-0.04514a0.5503 0.5503 0 0 0-0.0064-0.01505l-2.5299-4.3697c0.51043-0.2436 1.0499-0.45333 1.4508-0.95862 0.6891-0.86579 1.0102-1.9672 1.0102-3.1682-3e-6 -1.6073-0.56506-3.0308-1.7131-3.9527-1.107-0.88893-2.5586-1.2875-4.2171-1.2875zm0 0.55024h4.8103c1.571 0 2.8863 0.37463 3.8732 1.1671 1.0043 0.8065 1.5067 2.0398 1.5067 3.5228-1e-6 1.1048-0.28988 2.0726-0.88984 2.8264-0.43213 0.54536-1.095 0.84188-1.7539 1.1349l2.7856 4.8103a0.5503 0.5503 0 0 1 0.01505 0.03009c0.06676 0.13353 0.11822 0.28637 0.11822 0.46212 0 0.25898-0.14515 0.51806-0.32241 0.67706-0.16559 0.15575-0.4087 0.26867-0.64267 0.26867h-0.94573c-0.3205 0-0.66903-0.10033-0.90274-0.36324-0.12026-0.13529-0.23006-0.27308-0.32456-0.41483a0.5503 0.5503 0 0 1-0.01934-0.03224l-2.6996-4.7286h-2.5793v4.5352c0 0.2598-0.11414 0.53972-0.29876 0.72434-0.19773 0.19773-0.47975 0.27942-0.72434 0.27942h-1.0059c-0.2446 0-0.52661-0.08169-0.72434-0.27942a0.5503 0.5503 0 0 1-0.027942-0.03224c-0.1631-0.19029-0.25148-0.45064-0.25148-0.6921v-12.873c0-0.23667 0.086736-0.50422 0.27082-0.7007 0.18796-0.20719 0.4784-0.32241 0.73294-0.32241zm0.096722 1.1005v12.699h0.83181v-4.9887a0.5503 0.5503 0 0 1 0.55024-0.55024h3.4498a0.5503 0.5503 0 0 1 0.47716 0.27727l2.8479 4.9887c0.05869 0.0866 0.12764 0.17465 0.20849 0.26652 0.01141 0.0021 0.03836 0.0064 0.09242 0.0064h0.7007l-2.9103-5.0295a0.5503 0.5503 0 0 1 0.32241-0.80387c0.77592-0.22337 1.3461-0.59579 1.7711-1.1327a0.5503 0.5503 0 0 0 0.0021-0.00215c0.4251-0.53404 0.64916-1.2218 0.64916-2.1408-1e-6 -1.2503-0.36587-2.0788-1.0962-2.6652-0.74778-0.60049-1.7843-0.92423-3.1832-0.92423zm8.3654 12.692c-0.0038-7.03e-4 -0.0057 1.64e-4 -0.0064 0 0.0015 7.62e-4 0.0058 0.0022 0.0086 0.0043-1e-3 -0.0011-0.0011-0.0032-0.0022-0.0043zm-6.9833-12.135h3.252c1.076 0 1.956 0.22123 2.5728 0.76948 0.61305 0.53369 0.91349 1.334 0.91349 2.244 0 0.92421-0.29857 1.7342-0.91779 2.2697a0.5503 0.5503 0 0 1-0.0064 0.0043c-0.62656 0.52491-1.5007 0.73939-2.5621 0.73939h-3.252a0.5503 0.5503 0 0 1-0.55024-0.55024v-4.9264a0.5503 0.5503 0 0 1 0.55024-0.55024zm0.55024 1.1005v3.8259h2.7018c0.90754 0 1.5043-0.19066 1.8506-0.47931 0.35199-0.30538 0.5352-0.72962 0.5352-1.4336 0-0.69036-0.18196-1.1091-0.53735-1.4164a0.5503 0.5503 0 0 1-0.00645-0.00645c-0.32938-0.29278-0.92052-0.49006-1.842-0.49006zm0.55024 0.55024h2.1515c0.84065 0 1.2945 0.19345 1.4723 0.35035h0.0043a0.5503 0.5503 0 0 0 0.012896 0.012896c0.23865 0.2064 0.34605 0.40579 0.34605 0.99946 0 0.60472-0.11403 0.81154-0.3439 1.0124-0.20056 0.16535-0.66485 0.35035-1.4917 0.35035h-2.1515zm-1.9323 4.4686c0.062691 0.081441 0.12182 0.13409 0.20419 0.19559-0.082376 0.061501-0.1415 0.11415-0.20419 0.19559zm5.1607 0.32671c-0.014983 0.038846 0.019273 0.082247 0.0086 0.12251-0.039815-0.058952-0.12449-0.051559-0.1741-0.10102 0.054817-0.00753 0.11155-0.012425 0.1655-0.021494z" stop-color="#000000" style="paint-order:stroke markers fill"/><path d="m3.2692 14.899q-0.21683 0-0.3351-0.11827-0.11827-0.13798-0.11827-0.3351v-12.872q0-0.21683 0.11827-0.3351 0.11827-0.13798 0.3351-0.13798h4.8097q2.2274 0 3.5284 1.0447t1.301 3.0947q0 1.5178-0.76876 2.4837-0.74905 0.94616-2.05 1.3207l3.0356 5.2433q0.05913 0.11827 0.05913 0.21683 0 0.1577-0.13798 0.27596-0.11827 0.11827-0.27596 0.11827h-0.94616q-0.3351 0-0.49279-0.17741-0.1577-0.1774-0.27597-0.35481l-2.8582-5.0068h-3.4496v5.0856q0 0.19712-0.13798 0.3351-0.11827 0.11827-0.3351 0.11827zm1.4784-7.2145h3.2524q1.4784 0 2.2077-0.61106 0.72934-0.63078 0.72934-1.8529 0-1.2024-0.72934-1.8332-0.70962-0.63078-2.2077-0.63078h-3.2524z" stop-color="#000000" style="paint-order:stroke markers fill"/></g></svg>
