<svg width="16" height="16" version="1.1" viewBox="0 0 16 16" xmlns="http://www.w3.org/2000/svg"><path d="m2.2527 14.288c-0.14968 0-0.26535-0.04082-0.34699-0.12247-0.081647-0.09525-0.12247-0.21092-0.12247-0.34699v-13.329c0-0.14968 0.040823-0.26535 0.12247-0.34699 0.081645-0.095253 0.19731-0.14288 0.34699-0.14288h4.9804c1.5377 0 2.7555 0.3606 3.6536 1.0818 0.8981 0.7212 1.3472 1.7894 1.3472 3.2046 0 1.0478-0.26535 1.9051-0.79605 2.5718-0.51709 0.65317-1.2247 1.109-2.1228 1.3676l3.1434 5.4294c0.04082 0.08164 0.06123 0.15649 0.06123 0.22452 0 0.10886-0.04762 0.20412-0.14288 0.28576-0.08164 0.08165-0.1769 0.12247-0.28576 0.12247h-0.97975c-0.23133 0-0.40142-0.06124-0.51028-0.1837-0.10886-0.12247-0.20412-0.24494-0.28576-0.3674l-2.9597-5.1845h-3.572v5.2661c0 0.13608-0.047625 0.25174-0.14288 0.34699-0.081646 0.08165-0.19731 0.12247-0.34699 0.12247zm1.5309-7.4706h3.3679c1.0206 0 1.7826-0.21092 2.2861-0.63275 0.50348-0.43544 0.75522-1.075 0.75522-1.9187 0-0.83006-0.25174-1.4628-0.75522-1.8983-0.48987-0.43544-1.2519-0.65317-2.2861-0.65317h-3.3679zm0.65035-4.4542v3.8037h1.0594v-2.742c1.3093 0.011133 2.62-0.02449 3.9283 0.022257-0.31449-0.88059-1.3543-1.0855-2.1828-1.0833-0.93497-0.0013799-1.87-2.079e-4 -2.8049-5.967e-4zm8.2906 0.53639c0.35718 1.5817 0.15829 3.4533-1.0417 4.6408-0.44321 0.38167-0.97107 0.64967-1.5089 0.86994 0.29345 0.50531 0.58385 1.0159 0.87919 1.5179 1.3735-0.36231 2.5591-1.4904 2.7953-2.9195 0.25559-1.4309 0.03136-3.1086-1.1238-4.1092zm-8.2906 6.3031c-0.00395 1.5749 0.0079 3.1502-0.00595 4.7249 0.064167 0.64586-0.72639 0.82544-0.93551 1.1379 0.00924 0.3336-0.08976 0.85598 0.3637 0.92457 0.44775 0.0013 0.90337 0.03726 1.3466-0.02293 0.42818-0.19031 0.25416-0.71275 0.29053-1.0816v-4.6234h2.0899l-0.60538-1.0594h-2.5439zm8.6801 4.3445c0.27404 0.74454-0.49539 1.5074-1.238 1.391-0.29431-0.03981 0.09081 0.3151 0.12329 0.46515 0.19223 0.42663 0.61194 0.66841 1.0708 0.59427 0.36093-0.04315 0.80777 0.12574 1.079-0.18641 0.22418-0.35621-0.16853-0.68557-0.30426-1.0017z" fill="#fff" fill-rule="evenodd" stop-color="#000000" stroke-linecap="round" stroke-linejoin="round" stroke-width="1.1395" style="paint-order:stroke markers fill"/></svg>
