<svg width="16" height="16" version="1.1" viewBox="0 0 16 16" xml:space="preserve" xmlns="http://www.w3.org/2000/svg"><path d="m11.524 7.7605c-2.589-0.10961-4.5682 2.8771-3.4883 5.2207 0.59931 1.4916 2.2976 2.5874 3.9102 2.2559 0.85006-0.26323 1.0797-1.4514 0.44922-2.0371-0.31686-0.30178-0.51637-0.81925-0.22852-1.207 0.2534-0.39102 0.74846-0.48733 1.1836-0.45703h1.9492c0.0446-2.0298-1.7505-3.8168-3.7754-3.7754zm0.0078 0.39258c0.33482-2.56e-4 0.6066 0.27065 0.60743 0.60547 2.49e-4 0.33557-0.27185 0.60767-0.60742 0.60742-0.33557 2.491e-4 -0.60767-0.27185-0.60742-0.60742 8.29e-4 -0.33481 0.27261-0.60572 0.60742-0.60547zm-1.8965 0.88867c0.33481-2.498e-4 0.60659 0.27066 0.60742 0.60547 2.49e-4 0.33557-0.27185 0.60767-0.60742 0.60742-0.33481-8.29e-4 -0.60572-0.27261-0.60547-0.60742 8.262e-4 -0.33405 0.27142-0.60464 0.60547-0.60547zm3.793 0c0.33481-2.494e-4 0.60659 0.27066 0.60742 0.60547 2.49e-4 0.33557-0.27185 0.60767-0.60742 0.60742-0.33557 2.49e-4 -0.60767-0.27185-0.60742-0.60742 8.29e-4 -0.33481 0.27261-0.60572 0.60742-0.60547zm-4.6816 1.8691c0.33557-2.49e-4 0.60767 0.27185 0.60742 0.60742 2.491e-4 0.33557-0.27185 0.60767-0.60742 0.60742-0.33557 2.49e-4 -0.60767-0.27185-0.60742-0.60742-2.485e-4 -0.33557 0.27185-0.60767 0.60742-0.60742zm-7.3206-9.9187c-0.13876 0-0.24658 0.044509-0.32227 0.13281-0.075688 0.075688-0.11328 0.1835-0.11328 0.32227v12.355c0 0.12615 0.037593 0.23396 0.11328 0.32227 0.075688 0.07569 0.1835 0.11328 0.32227 0.11328h0.96484c0.13876 0 0.24462-0.03759 0.32031-0.11328 0.088303-0.0883 0.13281-0.19612 0.13281-0.32227v-4.8828h3.3125l0.97852 1.7148c0.51046-2.3205 2.3734-3.1476 2.832-3.3184 0.4745-0.61326 0.71094-1.3957 0.71094-2.3496 0-1.3119-0.41547-2.3021-1.248-2.9707-0.83257-0.66858-1.9613-1.0039-3.3867-1.0039zm1.418 1.5898h3.123c0.95872 0 1.665 0.2018 2.1191 0.60547 0.46675 0.40367 0.69922 0.99027 0.69922 1.7598 1e-7 0.78211-0.23247 1.3756-0.69922 1.7793-0.46675 0.39106-1.173 0.58594-2.1191 0.58594h-3.123zm7.1035 9.4473c-0.19991 0.45415-0.65621 0.77648-1.1777 0.78711 0.27383 0.59339 0.77817 1.1067 1.3672 1.4219h0.4082c0.10092 0 0.18994-0.03759 0.26562-0.11328 0.0883-0.07569 0.13281-0.16471 0.13281-0.26562 0-0.06307-0.0188-0.1333-0.05664-0.20898z" fill="#fff" stop-color="#000000" style="paint-order:stroke markers fill"/></svg>
