<svg enable-background="new 0 0 512 512" version="1.1" viewBox="0 0 512 512" xml:space="preserve" xmlns="http://www.w3.org/2000/svg"><g fill="#fff"><path class="st0" d="m96.1 23.2c-16.2 6.3-29.9 14.7-43.6 28.4-13.7 13.6-22.1 27.4-28.4 43.5-6.1 15.6-10.2 33.5-11.4 59.7s-1.5 34.6-1.5 101.4 0.3 75.2 1.5 101.4 5.4 44.1 11.4 59.7c6.3 16.2 14.7 29.9 28.4 43.6s27.4 22.1 43.6 28.4c15.6 6.1 33.5 10.2 59.7 11.4s34.6 1.5 101.4 1.5 75.2-0.3 101.4-1.5 44.1-5.4 59.7-11.4c16.2-6.3 29.9-14.7 43.6-28.4s22.1-27.4 28.4-43.6c6.1-15.6 10.2-33.5 11.4-59.7s1.5-34.6 1.5-101.4-0.3-75.2-1.5-101.4-5.4-44.1-11.4-59.7c-6.3-16.1-14.7-29.9-28.3-43.5-13.7-13.7-27.4-22.1-43.6-28.4-15.6-6.1-33.5-10.2-59.7-11.4s-34.6-1.5-101.4-1.5-75.2 0.3-101.4 1.5c-26.3 1.1-44.2 5.3-59.8 11.4zm260.5 32.8c24 1.1 37 5.1 45.7 8.5 11.5 4.5 19.7 9.8 28.3 18.4s13.9 16.8 18.4 28.3c3.4 8.7 7.4 21.7 8.5 45.7 1.2 25.9 1.4 33.7 1.4 99.4s-0.3 73.5-1.4 99.4c-1.1 24-5.1 37-8.5 45.7-4.5 11.5-9.8 19.7-18.4 28.3s-16.8 13.9-28.3 18.4c-8.7 3.4-21.7 7.4-45.7 8.5-25.9 1.2-33.7 1.4-99.4 1.4s-73.5-0.3-99.4-1.4c-24-1.1-37-5.1-45.7-8.5-11.5-4.5-19.7-9.8-28.3-18.4s-13.9-16.8-18.4-28.3c-3.4-8.7-7.4-21.7-8.5-45.7-1.2-25.9-1.4-33.7-1.4-99.4s0.3-73.5 1.4-99.4c1.1-24 5.1-37 8.5-45.7 4.5-11.5 9.8-19.7 18.4-28.3s16.8-13.9 28.3-18.4c8.7-3.4 21.7-7.4 45.7-8.5 25.9-1.2 33.7-1.4 99.4-1.4s73.5 0.2 99.4 1.4z"/><path class="st1" d="m130.9 256.3c0 69.8 56.6 126.3 126.3 126.3s126.3-56.6 126.3-126.3-56.5-126.3-126.3-126.3-126.3 56.5-126.3 126.3zm208.3 0c0 45.3-36.7 82-82 82s-82-36.7-82-82 36.7-82 82-82 82 36.7 82 82z"/><circle class="st2" cx="388.6" cy="125" r="29.5"/></g></svg>
