<svg width="800px" height="800px" version="1.1" viewBox="0 -2 20 20" xmlns="http://www.w3.org/2000/svg">
 <title>twitter [#154]</title>
 <desc>Created with Sketch.</desc>
 <g fill="#fff" fill-rule="evenodd">
  <g id="a" transform="translate(-60 -7521)" fill="#fff">
   <g id="b" transform="translate(56 160)" fill="#fff">
    <path id="c" d="m10.29 7377c7.547 0 11.675-6.1564 11.675-11.495 0-0.17525 0-0.34951-0.012-0.52279 0.803-0.57104 1.496-1.2799 2.047-2.0912-0.748 0.32687-1.543 0.5415-2.356 0.63601 0.856-0.50507 1.497-1.2986 1.804-2.2349-0.806 0.47061-1.687 0.8024-2.606 0.98061-1.554-1.6265-4.153-1.7052-5.806-0.17525-1.065 0.98651-1.518 2.4574-1.187 3.8604-3.299-0.16343-6.373-1.6974-8.457-4.2207-1.089 1.846-0.532 4.207 1.271 5.3923-0.653-0.01871-1.292-0.19199-1.863-0.50507v0.05119c1e-3 1.9228 1.378 3.5788 3.292 3.9598-0.604 0.16245-1.238 0.18608-1.852 0.06892 0.537 1.6462 2.078 2.7735 3.833 2.806-1.453 1.1244-3.248 1.7348-5.096 1.7328-0.326-9.9e-4 -0.652-0.0197-0.977-0.05809 1.877 1.1854 4.06 1.8145 6.29 1.8116" fill="#fff"/>
   </g>
  </g>
 </g>
</svg>
