<svg width="800px" height="800px" fill="#000000" version="1.1" viewBox="0 0 32 32" xmlns="http://www.w3.org/2000/svg">
 <title>youtube</title>
 <path d="m12.932 20.459v-8.917l7.839 4.459zm17.436-11.724c-0.354-1.301-1.354-2.307-2.625-2.663l-0.027-6e-3c-3.193-0.406-6.886-0.638-10.634-0.638-0.381 0-0.761 2e-3 -1.14 7e-3l0.058-1e-3c-0.322-4e-3 -0.701-7e-3 -1.082-7e-3 -3.748 0-7.443 0.232-11.07 0.681l0.434-0.044c-1.297 0.363-2.297 1.368-2.644 2.643l-6e-3 0.026c-0.4 2.109-0.628 4.536-0.628 7.016 0 0.088 0 0.176 1e-3 0.263v-0.014c-0 0.074-1e-3 0.162-1e-3 0.25 0 2.48 0.229 4.906 0.666 7.259l-0.038-0.244c0.354 1.301 1.354 2.307 2.625 2.663l0.027 6e-3c3.193 0.406 6.886 0.638 10.634 0.638 0.38 0 0.76-2e-3 1.14-7e-3l-0.058 1e-3c0.322 4e-3 0.702 7e-3 1.082 7e-3 3.749 0 7.443-0.232 11.07-0.681l-0.434 0.044c1.298-0.362 2.298-1.368 2.646-2.643l6e-3 -0.026c0.399-2.109 0.627-4.536 0.627-7.015 0-0.088-0-0.176-1e-3 -0.263v0.013c0-0.074 1e-3 -0.162 1e-3 -0.25 0-2.48-0.229-4.906-0.666-7.259l0.038 0.244z" fill="#fff"/>
</svg>
