<svg width="64mm" height="64mm" version="1.1" viewBox="0 0 64 64" xmlns="http://www.w3.org/2000/svg" xmlns:xlink="http://www.w3.org/1999/xlink">
 <defs>
  <linearGradient id="a" x1="13.218" x2="228.81" y1="120.92" y2="120.92" gradientTransform="matrix(.25431 0 0 .25386 1.2424 1.2968)" gradientUnits="userSpaceOnUse">
   <stop stop-color="#ff9903" offset="0"/>
   <stop stop-color="#59007b" offset="1"/>
  </linearGradient>
  <linearGradient id="b" x1=".54945" x2="63.488" y1="31.991" y2="31.991" gradientTransform="matrix(.9612 0 0 .95946 1.2424 1.2968)" gradientUnits="userSpaceOnUse">
   <stop stop-color="#400" offset="0"/>
   <stop stop-color="#0e0430" offset="1"/>
  </linearGradient>
 </defs>
 <path d="m14.232 53.082c-0.04682-0.04682-0.57426-0.12398-1.1721-0.17146-1.332-0.1058-1.8833-0.42361-2.6175-1.5089-0.63644-0.94081-7.6742-13.124-8.0785-13.985-0.7289-1.552-0.046683-3.3033 1.5599-4.0044 0.46765-0.20408 1.172-0.22601 7.7633-0.2417l7.249-0.01727 4.1595-10.083c2.2877-5.5457 4.2907-10.339 4.4509-10.652 0.31874-0.62191 1.0315-1.2083 1.7567-1.4453 0.66871-0.21853 17.318-0.31031 19.172-0.1057 0.74253 0.08193 1.8419 0.18733 2.443 0.23421 1.2204 0.09519 1.9575 0.42041 2.4439 1.0783 0.49844 0.67418 8.3406 14.384 8.4945 14.85 0.39141 1.186-0.185 2.7079-1.2663 3.3436l-0.60732 0.35701-14.88 0.12857-3.9687 9.6433c-2.1828 5.3038-4.1254 10.015-4.3169 10.47-0.42288 1.0041-0.96149 1.6428-1.6485 1.9549-0.48444 0.22008-1.1263 0.23432-10.684 0.23697-5.5926 0.0016-10.207-0.03549-10.253-0.08231z" fill="#fff" stroke="#fff" stroke-linecap="square" stroke-miterlimit="2.3" stroke-width="4.094" style="paint-order:stroke markers fill"/>
 <path d="m45.518 27.662c0.03126-0.08639 0.38961-0.97432 0.79636-1.9732l0.73952-1.8161 6.1615-0.04758-3.5739-6.2255 0.81335-1.9845c0.65216-1.5912 0.83097-1.9526 0.90218-1.8235 0.21988 0.39848 7.738 13.476 7.8964 13.736l0.17802 0.29168h-6.9852c-6.6144 0-6.9822-0.0083-6.9285-0.15706zm2.4281-5.9237c0.22716-0.62352 0.8169-1.9966 0.85693-1.9952 0.04755 0.0016 0.3876 0.56353 0.99025 1.6362l0.28994 0.51606h-1.0972c-1.0068 0-1.0925-0.01294-1.0399-0.15706zm-32.995 28.495c0.2137-0.51337 15.083-36.548 15.129-36.664 0.03522-0.08877 2.0344-0.11219 9.5754-0.11219 7.588 0 9.522 0.02287 9.4872 0.11219-0.02401 0.0617-3.4541 8.4018-7.6223 18.534l-7.5785 18.422h-19.112zm-0.35683-6.9511c-0.33351-0.58262-0.62373-1.0896-0.64494-1.1266-0.02121-0.03703 0.4674-0.06732 1.0858-0.06732h1.1244l-0.45255 1.0994c-0.24891 0.60471-0.46466 1.1117-0.47946 1.1266-0.01479 0.01495-0.29976-0.44953-0.63324-1.0322zm-5.938-0.013864-4.0512-7.0587 3.4892-0.023478c1.9191-0.01292 5.0647-0.01292 6.9898 0l3.5006 0.02348-1.5899 3.8594-6.217 0.08975 3.598 6.2618-0.77909 1.8951c-0.42849 1.0423-0.80391 1.9213-0.83425 1.9533-0.03034 0.03202-1.8782-3.1184-4.1064-7.0006z" fill="url(#b)" stroke="url(#a)" stroke-linejoin="round" stroke-miterlimit="2.3" stroke-width="5.8999" style="paint-order:stroke markers fill"/>
</svg>
