<?xml version="1.0" encoding="UTF-8" standalone="no"?>
<!-- Created with Inkscape (http://www.inkscape.org/) -->

<svg
   width="64"
   height="64"
   viewBox="0 0 16.933333 16.933333"
   version="1.1"
   id="svg1"
   inkscape:version="1.3.2 (091e20ef0f, 2023-11-25, custom)"
   sodipodi:docname="compact.svg"
   xmlns:inkscape="http://www.inkscape.org/namespaces/inkscape"
   xmlns:sodipodi="http://sodipodi.sourceforge.net/DTD/sodipodi-0.dtd"
   xmlns="http://www.w3.org/2000/svg"
   xmlns:svg="http://www.w3.org/2000/svg">
  <sodipodi:namedview
     id="namedview1"
     pagecolor="#ffffff"
     bordercolor="#000000"
     borderopacity="0.25"
     inkscape:showpageshadow="2"
     inkscape:pageopacity="0.0"
     inkscape:pagecheckerboard="0"
     inkscape:deskcolor="#d1d1d1"
     inkscape:document-units="mm"
     inkscape:zoom="4.9388889"
     inkscape:cx="43.228347"
     inkscape:cy="41.2036"
     inkscape:window-width="1560"
     inkscape:window-height="872"
     inkscape:window-x="40"
     inkscape:window-y="28"
     inkscape:window-maximized="1"
     inkscape:current-layer="layer1" />
  <defs
     id="defs1" />
  <g
     inkscape:label="Vrstva 1"
     inkscape:groupmode="layer"
     id="layer1">
    <path
       id="rect2"
       style="fill:#ffffff;fill-rule:evenodd;stroke-width:0.274902;stroke-linecap:round"
       d="M 0.5002281,2.6107736 C 0.22322978,2.6107736 2.3666666e-7,2.8340027 2.3666666e-7,3.1110015 V 4.5336536 C 2.3666666e-7,4.8106524 0.22322978,5.0333647 0.5002281,5.0333647 H 16.433105 c 0.277,0 0.500228,-0.2227123 0.500228,-0.4997111 V 3.1110015 c 0,-0.2769988 -0.223228,-0.5002279 -0.500228,-0.5002279 z M 1.191142,2.9828439 A 0.83934462,0.83934462 0 0 1 2.0303672,3.8220692 0.83934462,0.83934462 0 0 1 1.191142,4.6612944 0.83934462,0.83934462 0 0 1 0.35191674,3.8220692 0.83934462,0.83934462 0 0 1 1.191142,2.9828439 Z m 1.2262817,0 h 4.5532105 c 0.0554,0 0.1002522,0.044852 0.1002522,0.1002523 v 0.7906494 c 0,0.0554 -0.044852,0.1002523 -0.1002522,0.1002523 H 2.4174237 c -0.0554,0 -0.099736,-0.044852 -0.099736,-0.1002523 V 3.0830962 c 0,-0.0554 0.044336,-0.1002523 0.099736,-0.1002523 z m 9.4991613,0 A 0.83934462,0.83934462 0 0 1 12.755811,3.8220692 0.83934462,0.83934462 0 0 1 11.916585,4.6612944 0.83934462,0.83934462 0 0 1 11.07736,3.8220692 0.83934462,0.83934462 0 0 1 11.916585,2.9828439 Z m 1.882573,0 A 0.83934462,0.83934462 0 0 1 14.6389,3.8220692 0.83934462,0.83934462 0 0 1 13.799158,4.6612944 0.83934462,0.83934462 0 0 1 12.959932,3.8220692 0.83934462,0.83934462 0 0 1 13.799158,2.9828439 Z m 1.883089,0 A 0.83934462,0.83934462 0 0 1 16.521472,3.8220692 0.83934462,0.83934462 0 0 1 15.682247,4.6612944 0.83934462,0.83934462 0 0 1 14.843022,3.8220692 0.83934462,0.83934462 0 0 1 15.682247,2.9828439 Z M 2.3714317,4.2809559 H 4.828646 c 0.029897,0 0.05426,0.016982 0.05426,0.03824 v 0.3038575 c 0,0.021259 -0.024363,0.038241 -0.05426,0.038241 H 2.3714317 c -0.029897,0 -0.053744,-0.016982 -0.053744,-0.038241 v -0.303857 c 0,-0.021259 0.023847,-0.03824 0.053744,-0.03824 z" />
    <path
       id="rect2-1"
       style="fill:#ffffff;fill-rule:evenodd;stroke-width:0.274902;stroke-linecap:round"
       d="M 0.50022802,5.7071718 C 0.22322972,5.7071718 1.1833333e-7,5.9304009 1.1833333e-7,6.2073997 V 7.6300518 C 1.1833333e-7,7.9070506 0.22322972,8.1297629 0.50022802,8.1297629 H 16.433105 c 0.277,0 0.500228,-0.2227123 0.500228,-0.4997111 V 6.2073997 c 0,-0.2769988 -0.223228,-0.5002279 -0.500228,-0.5002279 z M 1.1911419,6.0792421 A 0.83934462,0.83934462 0 0 1 2.0303671,6.9184674 0.83934462,0.83934462 0 0 1 1.1911419,7.7576926 0.83934462,0.83934462 0 0 1 0.35191662,6.9184674 0.83934462,0.83934462 0 0 1 1.1911419,6.0792421 Z m 1.2262817,0 h 4.5532105 c 0.0554,0 0.1002522,0.044852 0.1002522,0.1002523 v 0.7906494 c 0,0.0554 -0.044852,0.1002523 -0.1002522,0.1002523 H 2.4174236 c -0.0554,0 -0.099736,-0.044852 -0.099736,-0.1002523 V 6.1794944 c 0,-0.0554 0.044336,-0.1002523 0.099736,-0.1002523 z m 9.4991614,0 A 0.83934462,0.83934462 0 0 1 12.755811,6.9184674 0.83934462,0.83934462 0 0 1 11.916585,7.7576926 0.83934462,0.83934462 0 0 1 11.07736,6.9184674 0.83934462,0.83934462 0 0 1 11.916585,6.0792421 Z m 1.882573,0 A 0.83934462,0.83934462 0 0 1 14.6389,6.9184674 0.83934462,0.83934462 0 0 1 13.799158,7.7576926 0.83934462,0.83934462 0 0 1 12.959932,6.9184674 0.83934462,0.83934462 0 0 1 13.799158,6.0792421 Z m 1.883089,0 A 0.83934462,0.83934462 0 0 1 16.521472,6.9184674 0.83934462,0.83934462 0 0 1 15.682247,7.7576926 0.83934462,0.83934462 0 0 1 14.843022,6.9184674 0.83934462,0.83934462 0 0 1 15.682247,6.0792421 Z M 2.3714316,7.3773541 h 2.4572143 c 0.029897,0 0.05426,0.016982 0.05426,0.03824 v 0.3038575 c 0,0.021259 -0.024363,0.038241 -0.05426,0.038241 H 2.3714316 c -0.029897,0 -0.053744,-0.016982 -0.053744,-0.038241 v -0.303857 c 0,-0.021259 0.023847,-0.03824 0.053744,-0.038241 z" />
    <path
       id="rect2-8"
       style="fill:#ffffff;fill-rule:evenodd;stroke-width:0.274902;stroke-linecap:round"
       d="M 0.5002282,8.8035703 C 0.22322988,8.8035703 3.3666666e-7,9.0267994 3.3666666e-7,9.3037982 V 10.72645 c 0,0.276999 0.22322954333334,0.499711 0.50022786333334,0.499711 H 16.433105 c 0.277,0 0.500228,-0.222712 0.500228,-0.499711 V 9.3037982 c 0,-0.2769988 -0.223228,-0.5002279 -0.500228,-0.5002279 z M 1.1911421,9.1756406 A 0.83934462,0.83934462 0 0 1 2.0303673,10.014866 0.83934462,0.83934462 0 0 1 1.1911421,10.854091 0.83934462,0.83934462 0 0 1 0.35191684,10.014866 0.83934462,0.83934462 0 0 1 1.1911421,9.1756406 Z m 1.2262817,0 h 4.5532105 c 0.0554,0 0.1002522,0.044852 0.1002522,0.1002523 v 0.7906491 c 0,0.0554 -0.044852,0.100253 -0.1002522,0.100253 H 2.4174238 c -0.0554,0 -0.099736,-0.04485 -0.099736,-0.100253 V 9.2758929 c 0,-0.0554 0.044336,-0.1002523 0.099736,-0.1002523 z m 9.4991612,0 a 0.83934462,0.83934462 0 0 1 0.839226,0.8392254 0.83934462,0.83934462 0 0 1 -0.839226,0.839225 0.83934462,0.83934462 0 0 1 -0.839225,-0.839225 0.83934462,0.83934462 0 0 1 0.839225,-0.8392254 z m 1.882573,0 a 0.83934462,0.83934462 0 0 1 0.839742,0.8392254 0.83934462,0.83934462 0 0 1 -0.839742,0.839225 0.83934462,0.83934462 0 0 1 -0.839226,-0.839225 0.83934462,0.83934462 0 0 1 0.839226,-0.8392254 z m 1.883089,0 a 0.83934462,0.83934462 0 0 1 0.839225,0.8392254 0.83934462,0.83934462 0 0 1 -0.839225,0.839225 0.83934462,0.83934462 0 0 1 -0.839225,-0.839225 0.83934462,0.83934462 0 0 1 0.839225,-0.8392254 z M 2.3714318,10.473753 h 2.4572143 c 0.029897,0 0.05426,0.01698 0.05426,0.03824 v 0.303857 c 0,0.02126 -0.024363,0.03824 -0.05426,0.03824 H 2.3714318 c -0.029897,0 -0.053744,-0.01698 -0.053744,-0.03824 v -0.303857 c 0,-0.02126 0.023847,-0.03824 0.053744,-0.03824 z" />
    <path
       id="rect2-3"
       style="fill:#ffffff;fill-rule:evenodd;stroke-width:0.274902;stroke-linecap:round"
       d="M 0.50022836,11.899968 C 0.22323004,11.899968 5.0166667e-7,12.123197 5.0166667e-7,12.400196 v 1.422652 C 5.0166667e-7,14.099847 0.22323004,14.32256 0.50022836,14.32256 H 16.433105 c 0.277,0 0.500228,-0.222713 0.500228,-0.499712 v -1.422652 c 0,-0.276999 -0.223228,-0.500228 -0.500228,-0.500228 z m 0.69091394,0.37207 A 0.83934462,0.83934462 0 0 1 2.0303674,13.111264 0.83934462,0.83934462 0 0 1 1.1911423,13.950489 0.83934462,0.83934462 0 0 1 0.351917,13.111264 0.83934462,0.83934462 0 0 1 1.1911423,12.272038 Z m 1.2262816,0 h 4.5532105 c 0.0554,0 0.1002522,0.04485 0.1002522,0.100253 v 0.790649 c 0,0.0554 -0.044852,0.100253 -0.1002522,0.100253 H 2.4174239 c -0.0554,0 -0.099736,-0.04485 -0.099736,-0.100253 v -0.790649 c 0,-0.0554 0.044336,-0.100253 0.099736,-0.100253 z m 9.4991611,0 a 0.83934462,0.83934462 0 0 1 0.839226,0.839226 0.83934462,0.83934462 0 0 1 -0.839226,0.839225 0.83934462,0.83934462 0 0 1 -0.839225,-0.839225 0.83934462,0.83934462 0 0 1 0.839225,-0.839226 z m 1.882573,0 a 0.83934462,0.83934462 0 0 1 0.839742,0.839226 0.83934462,0.83934462 0 0 1 -0.839742,0.839225 0.83934462,0.83934462 0 0 1 -0.839226,-0.839225 0.83934462,0.83934462 0 0 1 0.839226,-0.839226 z m 1.883089,0 a 0.83934462,0.83934462 0 0 1 0.839225,0.839226 0.83934462,0.83934462 0 0 1 -0.839225,0.839225 0.83934462,0.83934462 0 0 1 -0.839225,-0.839225 0.83934462,0.83934462 0 0 1 0.839225,-0.839226 z M 2.3714319,13.570151 h 2.4572143 c 0.029897,0 0.05426,0.01698 0.05426,0.03824 v 0.303857 c 0,0.02126 -0.024363,0.03824 -0.05426,0.03824 H 2.3714319 c -0.029897,0 -0.053744,-0.01698 -0.053744,-0.03824 v -0.303857 c 0,-0.02126 0.023847,-0.03824 0.053744,-0.03824 z" />
  </g>
</svg>
