<?xml version="1.0" encoding="UTF-8"?>
<!-- Created with Inkscape (http://www.inkscape.org/) -->
<svg width="32" height="32" version="1.1" viewBox="0 0 8.4667 8.4667" xmlns="http://www.w3.org/2000/svg" xmlns:xlink="http://www.w3.org/1999/xlink">
 <defs>
  <linearGradient id="linearGradient2" x1="4.2333" x2="4.2333" y1=".48516" y2="7.9815" gradientTransform="matrix(.88433 0 0 .88433 -.18034 1.1597)" gradientUnits="userSpaceOnUse">
   <stop stop-color="#fff" offset="0"/>
   <stop stop-color="#fff" stop-opacity="0" offset="1"/>
  </linearGradient>
 </defs>
 <g fill-rule="evenodd" stroke-linecap="round" stroke-linejoin="round">
  <path d="m0.74879 1.5885c-0.277 0-0.50023 0.22323-0.50023 0.50023v5.6291c0 0.277 0.22323 0.50023 0.50023 0.50023h5.6291c0.277 0 0.50023-0.22323 0.50023-0.50023v-3.1967c-0.027383 0.040047-0.058201 0.080111-0.098702 0.12041-0.10842 0.10787-0.29684 0.20231-0.48111 0.20257-0.18427 2.65e-4 -0.37392-0.093459-0.48266-0.20102-0.10873-0.10756-0.16339-0.21604-0.20464-0.31729-0.082499-0.2025-0.11173-0.39622-0.14314-0.58601-0.031409-0.18979-0.058335-0.37323-0.08785-0.50385-0.010645-0.047107-0.024798-0.081628-0.03669-0.10852-0.027061-0.011781-0.062162-0.026412-0.11059-0.037207-0.1307-0.029139-0.31344-0.05492-0.50333-0.085783-0.18989-0.030853-0.38379-0.06226-0.58653-0.14418-0.10137-0.040959-0.20994-0.094147-0.31781-0.20257-0.10787-0.10842-0.20231-0.29684-0.20257-0.48111-2.647e-4 -0.18427 0.093459-0.37392 0.20102-0.48266 0.043088-0.043557 0.086256-0.076536 0.12919-0.10542h-3.2039zm4.5946 1.5389c0.045976 0.020016 0.059933 0.029833 0.013953-0.01602-0.046701-0.046567-0.035035-0.031652-0.013953 0.01602zm0.91726-1.5389c-0.028791 0.11446-0.0733 0.23159-0.19637 0.35502-0.17142 0.17191-0.32891 0.19298-0.48576 0.22996 0.15662 0.036523 0.31528 0.057905 0.48679 0.22893 0.17191 0.17142 0.19298 0.32942 0.22996 0.48628 0.036529-0.15711 0.057326-0.31521 0.22893-0.48731 0.12351-0.12386 0.23987-0.16877 0.35398-0.19844v-0.062528c-0.11421-0.029262-0.23095-0.074205-0.35502-0.19792-0.12392-0.12357-0.16955-0.23983-0.19947-0.35398h-0.063045z" color="#000000" fill="url(#linearGradient2)" style="-inkscape-stroke:none"/>
  <path d="m0.74827 1.34c-0.41048 0-0.74827 0.33728-0.74827 0.74776v5.6312c0 0.41048 0.33779 0.74776 0.74827 0.74776h5.6307c0.41048 0 0.74776-0.33728 0.74776-0.74776v-3.9848c-1.746e-4 0.0010754-3.419e-4 0.0020247-5.168e-4 0.0031006-0.030853 0.18989-0.06226 0.38431-0.14418 0.58704-0.040959 0.10137-0.094147 0.20942-0.20257 0.31729-0.040423 0.040218-0.092072 0.078823-0.15038 0.1111v2.9662c0 0.14352-0.1066 0.2496-0.25011 0.2496h-5.6307c-0.14352 0-0.25011-0.10608-0.25011-0.2496v-5.6312c0-0.14352 0.1066-0.2496 0.25011-0.2496h2.9688c0.031253-0.055618 0.067963-0.10527 0.10645-0.14418 0.10756-0.10873 0.21656-0.16339 0.31781-0.20464 0.2025-0.082499 0.39363-0.11277 0.58343-0.14418 0.011216-0.001856 0.021381-0.0033453 0.032556-0.0051676h-4.0091zm5.5433 0.11369c-0.028971 0.12468-0.048261 0.25149-0.14004 0.38447h0.22738c0.021986 0 0.042531 0.0030034 0.062528 0.0077515-0.098467-0.13586-0.11989-0.26444-0.14986-0.39222zm0.32918 0.57102c0.004841 0.020175 0.0082682 0.04084 0.0082682 0.063045v0.22583c0.1318-0.092345 0.25707-0.11281 0.38137-0.14211-0.12702-0.029516-0.25462-0.049974-0.38964-0.14676z" color="#000000" fill="#fff" style="-inkscape-stroke:none"/>
 </g>
 <g transform="matrix(1.1539 .3074 -.3074 1.1539 2.7109 -4.0135)">
  <path d="m5.9907 3.7625c0.088046 0.32859-0.98851 0.52194-1.1586 0.81654-0.17009 0.29461 0.20075 1.3236-0.12784 1.4117-0.32859 0.088046-0.52193-0.98851-0.81654-1.1586-0.29461-0.17009-1.3236 0.20075-1.4117-0.12784-0.088046-0.32859 0.98851-0.52193 1.1586-0.81654 0.17009-0.29461-0.20075-1.3236 0.12784-1.4117 0.32859-0.088046 0.52194 0.98851 0.81654 1.1586s1.3236-0.20075 1.4117 0.12784z" color="#000000" fill="#fff" fill-rule="evenodd" stroke-linecap="round" stroke-linejoin="round" style="-inkscape-stroke:none"/>
 </g>
</svg>
