<?xml version="1.0" encoding="UTF-8"?>
<!-- Created with Inkscape (http://www.inkscape.org/) -->
<svg width="32" height="32" version="1.1" viewBox="0 0 8.4667 8.4667" xmlns="http://www.w3.org/2000/svg">
 <path d="m6.8622 3.1561-1.3757 1.3757 1.4851 1.4851a2.6365 3.4625 45 0 0-0.10939-2.8608zm-0.39272-0.39212a2.6365 3.4625 45 0 0-2.8581-0.1073l1.4827 1.4827zm-3.3662 0.17006a2.6365 3.4625 45 0 0-0.73254 0.59087 2.6365 3.4625 45 0 0-0.584 4.3127 2.6365 3.4625 45 0 0 4.3127-0.584 2.6365 3.4625 45 0 0 0.59237-0.73104l-1.7941-1.7941z" fill="#fff" fill-rule="evenodd"/>
 <g transform="matrix(.97272 .98398 -.98398 .97272 5.3328 -1.2406)" fill="none" stroke="#fff" stroke-linecap="round" stroke-linejoin="round" stroke-width=".3595">
  <path d="m1.9724 1.1805v-0.98623"/>
  <path d="m0.98001 2.1777h-0.98623"/>
  <path d="m1.333 1.5856-0.70146-0.69332"/>
 </g>
</svg>
