<?xml version="1.0" encoding="UTF-8"?>
<!-- Created with Inkscape (http://www.inkscape.org/) -->
<svg width="512" height="512" version="1.1" viewBox="0 0 512 512" xmlns="http://www.w3.org/2000/svg" xmlns:xlink="http://www.w3.org/1999/xlink">
 <defs>
  <linearGradient id="linearGradient12">
   <stop stop-color="#fff" stop-opacity=".85" offset="0"/>
   <stop stop-color="#fff" stop-opacity="0" offset="1"/>
  </linearGradient>
  <radialGradient id="radialGradient13" cx="447.79" cy="196.84" r="162.89" gradientTransform="matrix(1.4277 0 0 1.2781 -175.49 -.17219)" gradientUnits="userSpaceOnUse" xlink:href="#linearGradient12"/>
  <radialGradient id="radialGradient15" cx="488.65" cy="417.11" r="162.89" gradientTransform="matrix(1 0 0 .74596 0 105.96)" gradientUnits="userSpaceOnUse">
   <stop stop-color="#fff" stop-opacity=".69" offset="0"/>
   <stop stop-color="#fff" stop-opacity="0" offset="1"/>
  </radialGradient>
  <radialGradient id="radialGradient17" cx="422.49" cy="240.08" r="42.75" gradientTransform="matrix(6.7316 0 0 4.9704 -2372.7 -951.81)" gradientUnits="userSpaceOnUse" xlink:href="#linearGradient12"/>
  <radialGradient id="radialGradient20" cx="436.77" cy="222.93" r="208.88" gradientTransform="matrix(1 0 0 1.1738 .00089344 -38.745)" gradientUnits="userSpaceOnUse" xlink:href="#linearGradient12"/>
  <radialGradient id="radialGradient21" cx="436.77" cy="222.93" r="208.88" fx="591.22" gradientTransform="matrix(1 0 0 1.1738 .00088772 -38.745)" gradientUnits="userSpaceOnUse" xlink:href="#linearGradient12"/>
  <radialGradient id="radialGradient22" cx="405.8" cy="238.9" r="86.25" gradientTransform="matrix(3.4314 0 0 2.7698 -986.64 -422.81)" gradientUnits="userSpaceOnUse" xlink:href="#linearGradient12"/>
  <radialGradient id="radialGradient23" cx="405.79" cy="238.9" r="86.25" gradientTransform="matrix(3.4314 2.0088e-7 -1.9928e-7 2.7698 -986.63 -422.81)" gradientUnits="userSpaceOnUse" xlink:href="#linearGradient12"/>
  <radialGradient id="radialGradient25" cx="507.58" cy="237.25" r="291" gradientTransform="matrix(1 0 0 .97398 -.00028215 5.8009)" gradientUnits="userSpaceOnUse">
   <stop stop-color="#fff" stop-opacity=".67167" offset="0"/>
   <stop stop-color="#fff" stop-opacity="0" offset="1"/>
  </radialGradient>
  <radialGradient id="radialGradient29" cx="440.29" cy="252.12" r="86.25" gradientTransform="matrix(2.7882 0 0 2.7961 -745.56 -462.65)" gradientUnits="userSpaceOnUse">
   <stop stop-color="#fff" stop-opacity=".69" offset="0"/>
   <stop stop-color="#fff" stop-opacity="0" offset="1"/>
  </radialGradient>
  <radialGradient id="radialGradient31" cx="440.29" cy="252.12" r="86.25" gradientTransform="matrix(2.7882 0 0 2.7961 -745.57 -462.65)" gradientUnits="userSpaceOnUse">
   <stop stop-color="#fff" stop-opacity=".22584" offset="0"/>
   <stop stop-color="#fff" stop-opacity="0" offset="1"/>
  </radialGradient>
  <radialGradient id="radialGradient33" cx="419.27" cy="253.26" r="42.75" gradientTransform="matrix(5.4972 0 0 4.6581 -1901.7 -933.26)" gradientUnits="userSpaceOnUse">
   <stop stop-color="#fff" stop-opacity=".85" offset="0"/>
   <stop stop-color="#fff" stop-opacity="0" offset="1"/>
  </radialGradient>
  <radialGradient id="radialGradient35" cx="419.3" cy="253.26" r="42.75" gradientTransform="matrix(5.5402 0 0 4.6581 -1919.9 -933.26)" gradientUnits="userSpaceOnUse">
   <stop stop-color="#fff" stop-opacity=".69" offset="0"/>
   <stop stop-color="#fff" stop-opacity="0" offset="1"/>
  </radialGradient>
  <radialGradient id="radialGradient2" cx="410.49" cy="-870.64" r="232.7" gradientTransform="matrix(1 0 0 .83471 0 955.01)" gradientUnits="userSpaceOnUse">
   <stop stop-color="#fff" offset="0"/>
   <stop stop-color="#fff" stop-opacity="0" offset="1"/>
  </radialGradient>
  <radialGradient id="radialGradient4" cx="395.94" cy="249.35" r="115.69" gradientTransform="matrix(1 0 0 1.0231 0 -5.766)" gradientUnits="userSpaceOnUse">
   <stop stop-color="#fff" stop-opacity=".6984" offset=".14159"/>
   <stop stop-color="#fff" stop-opacity="0" offset=".81087"/>
  </radialGradient>
 </defs>
 <g transform="translate(-154.75 18.439)">
  <g fill-rule="evenodd" style="mix-blend-mode:normal">
   <path d="m452.75 257.36h249v249h-249zm-87.75-317.86h249v249h-249zm-245.25 317.86h249v249h-249z" fill="url(#radialGradient25)" fill-opacity=".12886"/>
   <g fill-opacity=".22584" stroke-linecap="round" stroke-linejoin="round" stroke-opacity=".69">
    <g stroke-width="6">
     <rect x="492.5" y="298.61" width="166.5" height="166.5" fill="url(#radialGradient23)" stroke="url(#radialGradient22)"/>
     <rect x="428.38" y="355.99" width="166.5" height="166.5" fill="url(#radialGradient31)" stroke="url(#radialGradient29)"/>
     <path d="m406.25-19.25v166.5h166.5v-166.5zm-245.25 317.86v166.5h166.5v-166.5z" fill="url(#radialGradient20)" stroke="url(#radialGradient21)"/>
    </g>
    <rect x="409.76" y="297.11" width="82.5" height="82.5" fill="url(#radialGradient33)" stroke="url(#radialGradient35)" stroke-width="3"/>
    <rect x="368.75" y="334.44" width="82.5" height="82.5" fill="url(#radialGradient17)" stroke="url(#radialGradient17)" stroke-width="3"/>
   </g>
   <path d="m505.46 295.61v-145.34h2.1238v145.34zm-12.761 0v-145.34h2.1238v145.34zm-12.761 0v-145.34h2.1238v145.34z" fill="#fff" fill-opacity=".23158"/>
   <path d="m614 334.38h29.494v2.1238h-29.494zm0-12.761h29.494v2.1238h-29.494zm0-12.761h29.494v2.1238h-29.494zm-329.66 25.871h29.494v2.1238h-29.494zm0-12.761h29.494v2.1238h-29.494zm0-12.761h29.494v2.1238h-29.494zm-106.24 8.9988h29.466v29.466h-29.466z" fill="url(#radialGradient2)"/>
   <path d="m327.26 297.11h82.5v82.5h-82.5zm240.28 129.75h82.5v82.5h-82.5zm-129.21 27.767h82.5v82.5h-82.5z" fill="url(#radialGradient13)" fill-opacity=".22584" stroke="url(#radialGradient15)" stroke-linecap="round" stroke-linejoin="round" stroke-opacity=".69" stroke-width="3"/>
  </g>
  <g fill-rule="evenodd">
   <path d="m291.49 216.11c-2.77 0-5 2.23-5 5v71c0 2.77 2.23 5 5 5h72.26c2.77 0 5-2.23 5-5v-18.309h-44.943c-2.77 0-5-1.7095-5-3.834s2.23-3.834 5-3.834h44.943v-45.023c0-2.77-2.23-5-5-5zm45.857 14.854h16.396c2.77 0 5 2.23 5 5v16.396c0 2.77-2.23 5-5 5h-16.396c-2.77 0-5-2.23-5-5v-16.396c0-2.77 2.23-5 5-5zm-18.158 7.5313s11.585 18.865 0 18.865c-11.585 0 0-18.865 0-18.865z" fill="#fff"/>
   <path d="m395.15 233.27-8.4695 9.3458 0.10517 2.1379-18.607 0.9153c-1.5686 0.0772-2.7708 1.3696-2.6956 2.8976l0.30346 6.1692c0.0752 1.528 1.3984 2.6951 2.967 2.618l18.607-0.9153 0.11103 2.2573 9.2607 6.7397z" fill="#fff"/>
   <ellipse cx="395.94" cy="249.35" rx="115.69" ry="118.37" fill="url(#radialGradient4)"/>
  </g>
  <path d="m264.19 219.28c1.3354-0.34197 14.157-0.49004 14.157-0.49004l-3.7291-16.884 15.267 6.7013 3.087-13.957" fill="none" stroke="#fff" stroke-linecap="round" stroke-linejoin="round" stroke-width="5.1"/>
 </g>
</svg>
