<?xml version="1.0" encoding="UTF-8"?>
<!-- Created with Inkscape (http://www.inkscape.org/) -->
<svg width="527.28" height="292.98" version="1.1" viewBox="0 0 527.28 292.98" xmlns="http://www.w3.org/2000/svg" xmlns:xlink="http://www.w3.org/1999/xlink">
 <defs>
  <linearGradient id="linearGradient32">
   <stop stop-color="#fff" stop-opacity=".56749" offset="0"/>
   <stop stop-color="#fff" stop-opacity="0" offset="1"/>
  </linearGradient>
  <linearGradient id="linearGradient33" x1="287.6" x2="287.6" y1="346.39" y2="409.84" gradientTransform="translate(7.2035 -183.26)" gradientUnits="userSpaceOnUse" xlink:href="#linearGradient32"/>
  <linearGradient id="linearGradient35" x1="349.93" x2="347.93" y1="219.53" y2="302.55" gradientTransform="matrix(.8333 0 0 .93717 114.14 -120.55)" gradientUnits="userSpaceOnUse" xlink:href="#linearGradient32"/>
  <linearGradient id="linearGradient37" x1="481" x2="480.91" y1="409.84" y2="469.46" gradientUnits="userSpaceOnUse">
   <stop stop-color="#fff" offset="0"/>
   <stop stop-color="#fff" stop-opacity="0" offset="1"/>
  </linearGradient>
  <linearGradient id="linearGradient40" x1="33.523" x2="33.523" y1="409.89" y2="476.25" gradientTransform="matrix(1 0 0 2.4571 -67.046 -1353.5)" gradientUnits="userSpaceOnUse">
   <stop stop-color="#fff" stop-opacity=".23413" offset="0"/>
   <stop stop-color="#fff" stop-opacity="0" offset="1"/>
  </linearGradient>
 </defs>
 <g fill-rule="evenodd">
  <path d="m9.25 226.63v-61.516l508.43-0.0562v61.516" fill="url(#linearGradient33)" stroke="#fff" stroke-linejoin="round" stroke-width="4"/>
  <path d="m405.73 85.189 40.249 78.418-80.509-7e-3z" fill="url(#linearGradient35)" stroke="#fff" stroke-linejoin="round" stroke-width="4.5264"/>
  <g transform="translate(-7.5634 -.16825)" fill="#fff">
   <path transform="matrix(2.1559 -.029985 .022991 .99984 -300.22 -90.427)" d="m256.46 261.42-17.728-0.60557 9.3884-15.05zm17.729 0.53169-17.728-0.60558 9.3884-15.05zm17.729 0.53168-17.728-0.60557 9.3884-15.05zm17.729 0.53169-17.728-0.60557 9.3884-15.05zm17.729 0.53168-17.728-0.60557 9.3884-15.05zm17.729 0.53169-17.728-0.60557 9.3884-15.05zm17.729 0.53169-17.728-0.60558 9.3884-15.05zm17.729 0.53168-17.728-0.60557 9.3884-15.05z"/>
   <path d="m49.568 167.04 38.234 0.0739-19.894 15.329zm-38.234 0 38.234 0.0739-19.894 15.329z" stroke-width="1.4684"/>
   <path d="m123.01 81.529s-13.386 55.439-1.2676 81.633l83.205-0.10343c-4.277-6.2793-7.1413-12.623-8.734-18.352l-41.17 4.1914 0.63672-15.236 38.918 2.5586c-2.3716-24.039 14.143-40.549 14.143-40.549-18.758-10.709-85.73-14.143-85.73-14.143zm57.777 18.6c0.0676 8e-3 0.15546 0.0261 0.28321 0.0488 0.33679 0.06 0.64755 0.2242 0.88476 0.4707l7.2897 7.8607c0.20172 0.21025 0.3422 0.47206 0.4082 0.75586l0.13086 0.0469-0.11133 0.60547-1.4512 7.8633h-2e-3c-0.081 0.52756-0.41776 0.9809-0.89844 1.2129l-9.2832 4.4746c-0.80623 0.38845-1.0492 0.4762-1.4375-0.33007-0.38844-0.80623 1.0062-1.2269 1.8125-1.6152l6.2383-3.0059-30.553-2.2539 3.4395-18.646 28.689 10.135-3.604-4.0341c-0.62105-0.64439-2.9726-2.6603-2.3281-3.2812 0.28015-0.27023 0.28943-0.33116 0.49218-0.30664z"/>
   <rect transform="rotate(-15.176)" x="172.37" y="180.15" width="19.702" height="19.702"/>
  </g>
 </g>
 <path transform="matrix(1.024 0 0 1.024 -451.55 -193.05)" x="450" y="409.83896" width="62" height="62.806" d="m450 409.84h62v62.806h-62zm62 0h62v62.806h-62zm62 0h62v62.806h-62zm62 0h62v62.806h-62zm62 0h62v62.806h-62zm62 0h62v62.806h-62zm62 0h62v62.806h-62zm62 0h62v62.806h-62z" fill="none" stroke="url(#linearGradient37)" stroke-width="4"/>
 <path transform="rotate(180,3.6017,-91.632)" x="-50.117867" y="-346.32303" width="33.189941" height="163.05878" d="m-50.118-346.32h33.19v163.06h-33.19zm-63.19 0h33.19v163.06h-33.19zm-63.19 0h33.19v163.06h-33.19zm-63.19 0h33.19v163.06h-33.19zm-63.19 0h33.19v163.06h-33.19zm-63.19 0h33.19v163.06h-33.19zm-63.19 0h33.19v163.06h-33.19zm-63.19 0h33.19v163.06h-33.19z" fill="url(#linearGradient40)" fill-rule="evenodd"/>
</svg>
