<?xml version="1.0" encoding="UTF-8"?>
<!-- Created with Inkscape (http://www.inkscape.org/) -->
<svg width="32" height="32" version="1.1" viewBox="0 0 32 32" xmlns="http://www.w3.org/2000/svg">
 <g stroke-linecap="round" stroke-linejoin="round">
  <path transform="matrix(.58425 0 0 .58425 -.36511 1.374)" d="m25.107 13.034-4.5516 4.4427 1.0794 6.2681-5.6318-2.9559-5.6277 2.9635 1.0709-6.2696-4.5576-4.4365 6.2936-0.91887 2.811-5.7055 2.8187 5.7017z" fill="none" stroke="#fff" stroke-width="2.5674"/>
  <path transform="matrix(.58425 0 0 .58425 6.9258 12.998)" d="m25.107 13.034-4.5516 4.4427 1.0794 6.2681-5.6318-2.9559-5.6277 2.9635 1.0709-6.2696-4.5576-4.4365 6.2936-0.91887 2.811-5.7055 2.8187 5.7017z" fill="#fff" fill-rule="evenodd" stroke="#fff" stroke-width="2.5674"/>
  <path transform="matrix(.58425 0 0 .58425 13.897 1.3726)" d="m15.991 5.1389a1.2838 1.2838 0 0 0-1.15 0.71539l-2.5106 5.1013-5.6262 0.81902a1.2838 1.2838 0 0 0-0.70871 2.193l4.0717 3.9647-0.95943 5.6061a1.2838 1.2838 0 0 0 1.8654 1.3506l5.0311-2.651 5.0345 2.6443a1.2838 1.2838 0 0 0 1.862-1.3539l-0.96611-5.6061 4.0684-3.9681a1.2838 1.2838 0 0 0-0.71205-2.1896l-5.6262-0.81568-2.5206-5.0947a1.2838 1.2838 0 0 0-1.1533-0.71539zm0.006686 4.1854 0.006686 10.196a1.2838 1.2838 0 0 0-0.60173 0.13372l-3.3262 1.7517 0.63516-3.7073a1.2838 1.2838 0 0 0-0.37107-1.1366l-2.6911-2.6209 3.7174-0.54156a1.2838 1.2838 0 0 0 0.96611-0.70536l1.6648-3.3697z" color="#000000" fill="#fff" fill-rule="evenodd" style="-inkscape-stroke:none"/>
 </g>
</svg>
