<?xml version="1.0" encoding="UTF-8"?>
<!-- Created with Inkscape (http://www.inkscape.org/) -->
<svg width="32" height="32" version="1.1" viewBox="0 0 32 32" xmlns="http://www.w3.org/2000/svg">
 <path d="m16.01 0.68291a1.9764 1.9764 0 0 1 1.7704 1.1013l3.8651 7.8534 8.6615 1.2609a1.9764 1.9764 0 0 1 1.0911 3.3761l-6.2684 6.1037 1.477 8.6306a1.9764 1.9764 0 0 1-2.8718 2.0792l-7.7454-4.0812-7.7506 4.0709a1.9764 1.9764 0 0 1-2.8665-2.0843l1.4873-8.6306-6.2633-6.1089a1.9764 1.9764 0 0 1 1.0962-3.3709l8.6615-1.2557 3.8805-7.8433a1.9764 1.9764 0 0 1 1.7755-1.1013zm-0.010305 6.4434-0.010305 15.697a1.9764 1.9764 0 0 1 0.92636 0.20587l5.1207 2.6967-0.97783-5.7074a1.9764 1.9764 0 0 1 0.57119-1.7498l4.1429-4.0349-5.7229-0.83373a1.9764 1.9764 0 0 1-1.4873-1.0859l-2.563-5.1876z" color="#000000" fill="#fff" fill-rule="evenodd" stroke-linecap="round" stroke-linejoin="round" stroke-width="1.5395" style="-inkscape-stroke:none"/>
</svg>
