<svg width="32" height="32" version="1.1" viewBox="0 0 32 32" xml:space="preserve" xmlns="http://www.w3.org/2000/svg"><path d="m2.8633 1.1133c-0.96646 1.022e-4 -1.7499 0.78354-1.75 1.75v26.273c1.022e-4 0.96646 0.78354 1.7499 1.75 1.75h26.273c0.96646-1.02e-4 1.7499-0.78354 1.75-1.75v-26.273c-1.02e-4 -0.96646-0.78354-1.7499-1.75-1.75h-26.273zm1.75 3.5h22.773v17.121c-0.08207-0.01017-0.16509-0.017578-0.25-0.017578h-22.273c-0.084906 0-0.16793 0.007398-0.25 0.017578v-17.121zm0.51367 18.937h16.779c0.277 0 0.5 0.223 0.5 0.5v2.7148c0 0.277-0.223 0.5-0.5 0.5h-16.779c-0.277 0-0.5-0.223-0.5-0.5v-2.7148c0-0.277 0.223-0.5 0.5-0.5zm0 4.877h7.8887c0.277 0 0.5 0.223 0.5 0.5v0.38867c0 0.277-0.223 0.5-0.5 0.5h-7.8887c-0.277 0-0.5-0.223-0.5-0.5v-0.38867c0-0.277 0.223-0.5 0.5-0.5z" fill="#fff" stroke-linecap="round" stroke-linejoin="round"/><path transform="rotate(-3.0337 39.614 -17.093)" d="m20.907 10.736c0.05889 0.21978-3.3389 2.7891-3.4205 3.0015-0.08154 0.21242 0.72431 4.3954 0.53348 4.5193-0.19083 0.12392-3.6844-2.3136-3.9116-2.3255-0.22722-0.01191-3.9565 2.0471-4.1333 1.9039-0.17683-0.14319 1.0619-4.219 1.003-4.4388-0.05889-0.21978-3.1695-3.1302-3.088-3.3426 0.081541-0.21242 4.3407-0.29387 4.5315-0.4178 0.19083-0.12392 1.9976-3.9817 2.2248-3.9698 0.22722 0.011908 1.6208 4.0374 1.7977 4.1806 0.17683 0.14319 4.4041 0.6694 4.463 0.88918z" fill="#fff" fill-rule="evenodd" style="paint-order:stroke markers fill"/></svg>
