<svg width="32" height="32" version="1.1" viewBox="0 0 32 32" xml:space="preserve" xmlns="http://www.w3.org/2000/svg"><defs><radialGradient id="radialGradient4" cx="16" cy="11.672" r="14.886" gradientTransform="matrix(1 0 0 .70927 0 3.3934)" gradientUnits="userSpaceOnUse"><stop stop-color="#898989" offset="0"/><stop stop-color="#fff" stop-opacity=".94582" offset="1"/></radialGradient></defs><g fill="#fff"><path d="m1.1133 22.23v6.906c1.022e-4 0.96646 0.78354 1.7499 1.75 1.75h26.273c0.96646-1.02e-4 1.7499-0.78354 1.75-1.75v-6.906zm1.4327 1.321h17.064c0.277 0 0.5 0.223 0.5 0.5v1.1094c0 0.277-0.223 0.5-0.5 0.5h-17.064c-0.277 0-0.5-0.223-0.5-0.5v-1.1094c0-0.277 0.223-0.5 0.5-0.5zm1.4414 2.8203c1.0716 6.34e-4 1.9399 0.86978 1.9395 1.9414-6.337e-4 1.0709-0.86859 1.9388-1.9395 1.9395-1.0716 4.44e-4 -1.9408-0.86782-1.9414-1.9395-4.445e-4 -1.0724 0.86901-1.9419 1.9414-1.9414zm3.0234 0.43359h6.209c0.1108 0 0.19922 0.09037 0.19922 0.20117v1.2812c0 0.1108-0.08842 0.20117-0.19922 0.20117h-6.209c-0.1108 0-0.19922-0.09037-0.19922-0.20117v-1.2812c0-0.1108 0.088419-0.20117 0.19922-0.20117z"/><rect x="1.7775" y="23.084" width="18.614" height="7.2936" fill-rule="evenodd" opacity=".58672" stroke-linecap="round" stroke-linejoin="round" stroke-width="1.503"/><path d="m2.8633 1.1133c-0.96646 1.022e-4 -1.7499 0.78354-1.75 1.75v19.367h29.773v-19.367c-1.02e-4 -0.96646-0.78354-1.7499-1.75-1.75z" fill="url(#radialGradient4)" opacity=".21527"/><path d="m21.882 10.425c0.07044 0.21636-3.1866 2.9619-3.2569 3.1783-0.07018 0.21644 0.95591 4.3509 0.77191 4.4847-0.184 0.13385-3.8017-2.1154-4.0292-2.1152-0.22753 1.32e-4 -3.8426 2.2536-4.0267 2.12-0.18416-0.13363 0.83713-4.2693 0.76668-4.4857-0.07044-0.21636-3.3307-2.9581-3.2606-3.1745 0.070185-0.21644 4.3191-0.52318 4.503-0.65704 0.184-0.13385 1.7841-4.0818 2.0116-4.082 0.22753-1.34e-4 1.8322 3.946 2.0164 4.0796 0.18416 0.13363 4.4334 0.43538 4.5038 0.65174z" fill-rule="evenodd" style="paint-order:stroke markers fill"/></g></svg>
