<svg width="32" height="32" version="1.1" viewBox="0 0 8.4667 8.4667" xmlns="http://www.w3.org/2000/svg" xmlns:xlink="http://www.w3.org/1999/xlink">
 <defs>
  <linearGradient id="a" x1="-2.6565" x2="2.7357" y1="-.19335" y2="-.19335" gradientUnits="userSpaceOnUse">
   <stop stop-color="#c49554" offset="0"/>
   <stop stop-color="#d0cd24" offset="1"/>
  </linearGradient>
 </defs>
 <path transform="matrix(1.7607 -.085275 .085275 1.7607 4.2288 4.5784)" d="m2.3457-0.62852c0.016695 0.062307-1.189 1.0034-1.2121 1.0636-0.023116 0.06022 0.24315 1.5664 0.18905 1.6015-0.054098 0.035132-1.3217-0.82072-1.3862-0.82409-0.064416-0.0033759-1.4146 0.71528-1.4647 0.67469-0.05013-0.040594 0.37211-1.5107 0.35542-1.573-0.016695-0.062307-1.1174-1.1243-1.0943-1.1845 0.023116-0.06022 1.5517-0.11292 1.6058-0.14805 0.054098-0.035132 0.72398-1.4101 0.78839-1.4068 0.064416 0.00338 0.5869 1.4409 0.63703 1.4815 0.05013 0.040594 1.5648 0.25279 1.5815 0.3151z" fill="url(#a)" style="paint-order:stroke markers fill"/>
</svg>
