<?xml version="1.0" encoding="UTF-8"?>
<!-- Created with Inkscape (http://www.inkscape.org/) -->
<svg width="16" height="16" version="1.1" viewBox="0 0 16 16" xmlns="http://www.w3.org/2000/svg">
 <defs>
  <clipPath id="clipath_lpe_path-effect16">
   <path d="m8.9437 14.67a0.94371 0.94371 0 0 1-0.94371 0.94371 0.94371 0.94371 0 0 1-0.94371-0.94371 0.94371 0.94371 0 0 1 0.94371-0.94371 0.94371 0.94371 0 0 1 0.94371 0.94371z" display="none" fill="#ff0" fill-rule="evenodd"/>
   <path class="powerclip" d="m-1.6504-5.0039h19.301v26.008h-19.301zm10.594 19.674a0.94371 0.94371 0 0 0-0.94371-0.94371 0.94371 0.94371 0 0 0-0.94371 0.94371 0.94371 0.94371 0 0 0 0.94371 0.94371 0.94371 0.94371 0 0 0 0.94371-0.94371z" fill="#ff0" fill-rule="evenodd"/>
  </clipPath>
 </defs>
 <path d="m7.5578 15.504a0.94371 0.94371 0 0 1-0.50149-0.83368 0.94371 0.94371 0 0 1 0.94371-0.94371 0.94371 0.94371 0 0 1 0.94371 0.94371 0.94371 0.94371 0 0 1-0.50149 0.83368h3.6086 0.09961v-15.008h-8.3008v15.008h0.099609zm-3.6828-13.088h8.25v11.168h-8.25z" clip-path="url(#clipath_lpe_path-effect16)" display="none" fill="#f00" fill-rule="evenodd" stroke="#f00" stroke-linecap="round" stroke-linejoin="round"/>
 <rect x=".30317" y="2.6142" width="15.394" height="10.772" fill="none" stroke="#fff" stroke-linecap="round" stroke-linejoin="round" stroke-width=".60635"/>
 <g fill="#fff" fill-rule="evenodd">
  <path d="m4.1836-0.0019531c-0.277 0-0.5 0.223-0.5 0.5v15.002c0 0.277 0.223 0.5 0.5 0.5h7.9023c0.277 0 0.5-0.223 0.5-0.5v-15.002c-1e-6 -0.277-0.223-0.5-0.5-0.5h-7.9023zm2.6992 1.0781c0.0084247-6.078e-4 0.018688 0 0.027344 0h2.4492c0.1385 0 0.25 0.078762 0.25 0.17773 0 0.098972-0.1115 0.17969-0.25 0.17969h-2.4492c-0.1385 0-0.25-0.080716-0.25-0.17969 0-0.092786 0.096286-0.16862 0.22266-0.17773zm-2.6035 1.8555h7.6465v10.135h-7.6465v-10.135zm3.7207 10.881a0.93381 0.93381 0 0 1 0.93359 0.93359 0.93381 0.93381 0 0 1-0.93359 0.93359 0.93381 0.93381 0 0 1-0.93359-0.93359 0.93381 0.93381 0 0 1 0.93359-0.93359z" stroke-linecap="round" stroke-linejoin="round" stroke-width=".6238"/>
  <path transform="translate(1.354)" d="m9.8611 7.999-2.5895 1.495v-2.9901z"/>
  <path transform="rotate(180 7.3676 7.9995)" d="m9.8611 7.999-2.5895 1.495v-2.9901z"/>
 </g>
</svg>
