<?xml version="1.0" encoding="UTF-8" standalone="no"?>
<svg
   width="32"
   height="32"
   version="1.1"
   viewBox="0 0 32 32"
   xml:space="preserve"
   id="svg2"
   sodipodi:docname="reviewPicker.svg"
   inkscape:version="1.3.2 (091e20ef0f, 2023-11-25)"
   xmlns:inkscape="http://www.inkscape.org/namespaces/inkscape"
   xmlns:sodipodi="http://sodipodi.sourceforge.net/DTD/sodipodi-0.dtd"
   xmlns="http://www.w3.org/2000/svg"
   xmlns:svg="http://www.w3.org/2000/svg"><sodipodi:namedview
     id="namedview2"
     pagecolor="#ffffff"
     bordercolor="#000000"
     borderopacity="0.25"
     inkscape:showpageshadow="2"
     inkscape:pageopacity="0.0"
     inkscape:pagecheckerboard="0"
     inkscape:deskcolor="#d1d1d1"
     inkscape:zoom="2.7070313"
     inkscape:cx="-43.036075"
     inkscape:cy="59.474747"
     inkscape:window-width="1560"
     inkscape:window-height="872"
     inkscape:window-x="0"
     inkscape:window-y="0"
     inkscape:window-maximized="1"
     inkscape:current-layer="svg2" /><defs
     id="defs2"><linearGradient
       id="a"
       x1="-5.9605e-8"
       x2="32"
       y1="16"
       y2="16"
       gradientUnits="userSpaceOnUse"><stop
         stop-color="#4d1618"
         offset="0"
         id="stop1"
         style="stop-color:#45216b;stop-opacity:1;" /><stop
         stop-color="#471e2b"
         offset="1"
         id="stop2"
         style="stop-color:#9e428e;stop-opacity:1;" /></linearGradient></defs><rect
     x=".75"
     y=".75"
     width="30.5"
     height="30.5"
     rx="3"
     ry="3"
     fill="url(#a)"
     stroke="#000"
     stroke-linecap="round"
     stroke-linejoin="round"
     stroke-miterlimit="2"
     stroke-width="1.5"
     id="rect2" /><g
     id="g1"
     transform="matrix(2.4613021,0,0,2.4613021,5.5803975,5.5803051)"
     style="stroke-width:1.21886704;stroke-dasharray:none"><path
       id="ellipse1"
       style="fill:#ffffff;fill-rule:evenodd;stroke:#000000;stroke-opacity:1;stroke-width:1.21886704;stroke-dasharray:none;paint-order:stroke markers fill"
       d="m 3.60579,2.5917001 c 0,0.5394994 -0.4340107,0.97685 -0.96939,0.97685 -0.5353793,0 -0.96939,-0.4373506 -0.96939,-0.97685 0,-0.5394994 0.4340107,-0.97685 0.96939,-0.97685 0.5353793,0 0.96939,0.4373506 0.96939,0.97685 z M 0.75769447,0.29510214 C 0.50229191,0.2953455 0.29530795,0.50232946 0.2950646,0.75773202 V 7.7090831 C 0.29530794,7.9644857 0.50229191,8.1714696 0.75769447,8.171713 H 7.7090455 C 7.9644481,8.1714697 8.1714321,7.9644857 8.1716754,7.7090831 V 0.75773202 C 8.171432,0.50232945 7.9644481,0.29534548 7.7090455,0.29510214 Z M 1.2203243,1.2203619 H 7.2464157 V 6.7346243 L 6.0774896,4.2729796 c 0,0 -0.063864,-0.1804895 -0.2210601,-0.182132 -0.1627908,-0.0017 -0.1999116,0.1928199 -0.1999116,0.1928199 L 4.23337,7.1258362 2.7984738,5.0629046 c 0,0 -0.070473,-0.1472655 -0.1620738,-0.1460229 -0.089951,0.00122 -0.1428951,0.1460565 -0.1428951,0.1460565 L 1.2203243,7.0036321 Z"
       sodipodi:nodetypes="ssssscccccccccccccscccsccc" /></g></svg>
