<?xml version="1.0" encoding="UTF-8"?>
<!-- Created with Inkscape (http://www.inkscape.org/) -->
<svg width="32" height="32" version="1.1" viewBox="0 0 8.4667 8.4667" xmlns="http://www.w3.org/2000/svg">
 <path d="m4.2454 1.1605-0.49561 1.9457a0.38851 0.38851 168.21 0 1-0.68318 0.14259l-0.34173-0.43945a0.17095 0.17095 154.29 0 0-0.30114 0.14503l0.28322 1.1742a0.19092 0.19092 152.92 0 1-0.33053 0.16903l-1.8597-2.1691a0.1199 0.1199 147.98 0 0-0.20105 0.12572l1.0028 2.3142c0.31818 0.7402 0.31818 0.7402 0.31818 0.7402l0.062012 0.13694 0.00723 0.017053 5.168e-4 5.167e-4 0.98066 2.171c0.18046 0.39951 0.38605 0.83293 0.49832 0.83241h2.1539c0.43838 0 0.93127-0.011966 0.97152-0.12506a66.317 66.317 109.72 0 0 0.447-1.2459l1.436-3.9221a0.17191 0.17191 32.33 0 0-0.28393-0.1797l-0.66324 0.67374a0.23888 0.23888 27.801 0 1-0.40469-0.21337l0.23496-1.203a0.14473 0.14473 21.385 0 0-0.26516-0.10384l-0.6924 1.1203a0.38083 0.38083 6.0879 0 1-0.68284-0.072829l-0.72965-2.0555a0.24141 0.24141 177.37 0 0-0.46145 0.021168zm1.8588 4.255 0.05349 0.70477a3.1495 3.1495 80.579 0 0 0.17428 1.0504 0.75896 0.75896 168.5 0 1-1.124 0.92139h-1.1074a1.2294 1.2294 32.849 0 1-1.1204-0.72341l-0.24531-0.54324a0.1643 0.1643 144 0 1 0.26034-0.18913 0.53723 0.53723 159.65 0 0 0.80498-0.2986l0.0825-0.1675a0.38366 0.38366 176.55 0 1 0.6861-0.041306l0.91967-0.93803a0.35984 0.35984 20.047 0 1 0.61576 0.22469z" fill-rule="evenodd" stroke-linecap="round" stroke-linejoin="round" stroke-width=".37624"/>
</svg>
