<svg width="16" height="16" version="1.1" viewBox="0 0 16 16" xmlns="http://www.w3.org/2000/svg" xmlns:xlink="http://www.w3.org/1999/xlink"><defs><linearGradient id="b" x1="4.2258" x2="11.193" y1="2.1831" y2="11.487" gradientTransform="matrix(-1.4761 0 0 1.4756 22.17 -2.4881)" gradientUnits="userSpaceOnUse"><stop stop-color="#b58308" offset="0"/><stop stop-color="#bc2f00" offset="1"/></linearGradient><linearGradient id="linearGradient3" x1="4.2258" x2="11.193" y1="2.1831" y2="11.487" gradientTransform="matrix(-1.6502 0 0 1.65 19.234 -3.7189)" gradientUnits="userSpaceOnUse"><stop stop-color="#f7f547" offset="0"/><stop stop-color="#ffa235" offset="1"/></linearGradient><linearGradient id="linearGradient6" x1="7.1703" x2="12.744" y1="8" y2="8" gradientTransform="matrix(1.0437 0 0 .98665 .95274 .49339)" gradientUnits="userSpaceOnUse"><stop offset="0"/><stop stop-opacity="0" offset="1"/></linearGradient></defs><g stroke-linecap="round"><path d="m5.6483 14.462h9.4954s3e-6 -5.944-4.7913-5.9721c-4.7041-0.027546-4.7041 5.9721-4.7041 5.9721zm7.0256-12.94h-4.6561c-0.41959 0-0.75738 0.33768-0.75738 0.75713v4.6546c0 0.41945 0.3378 0.75713 0.75738 0.75713h4.6561c0.41959 0 0.75738-0.33768 0.75738-0.75713v-4.6546c0-0.41945-0.3378-0.75713-0.75738-0.75713z" color="#000000" fill="url(#b)" stroke="#000" stroke-width="1.5118" style="paint-order:stroke markers fill"/><rect x="8.4363" y="1.522" width="5.8169" height="13.729" fill="url(#linearGradient6)" stroke-linejoin="round" stroke-miterlimit="2.3" stroke-width="1.5118" style="paint-order:stroke markers fill"/><path d="m0.76364 15.235h10.615s4e-6 -6.6464-5.3564-6.6778c-5.2588-0.030801-5.2588 6.6778-5.2588 6.6778zm7.8541-14.47h-5.2052c-0.46907 0-0.8467 0.37759-0.8467 0.8466v5.2046c0 0.46902 0.37763 0.8466 0.8467 0.8466h5.2052c0.46907 0 0.8467-0.37759 0.8467-0.8466v-5.2046c0-0.46901-0.37763-0.8466-0.8467-0.8466z" color="#000000" fill="url(#linearGradient3)" stroke="#000" stroke-width="1.5118" style="paint-order:stroke markers fill"/></g></svg>
