<svg width="475.27" height="327.14" version="1.1" viewBox="0 0 125.75 86.555" xml:space="preserve" xmlns="http://www.w3.org/2000/svg"><g transform="translate(-36.395 -5.6036)"><path d="m122.33 37.58c-0.52589-0.17423-1.0894 0.10884-1.2637 0.63473l-5.5171 16.653c-0.17423 0.52589 0.10884 1.0894 0.63473 1.2637l3.8277 1.2681-1.3003 3.9248-3.8277-1.2681c-0.52589-0.17423-1.0894 0.10884-1.2637 0.63473l-5.5171 16.653c-0.17423 0.52589 0.10884 1.0894 0.63473 1.2637l16.653 5.5171c0.5259 0.17423 1.0894-0.10884 1.2637-0.63473l1.268-3.8272 3.9248 1.3003-1.268 3.8272c-0.17422 0.52589 0.10884 1.0894 0.63474 1.2637l16.653 5.5171c0.52588 0.17423 1.0894-0.10884 1.2637-0.63474l5.5171-16.653c0.17423-0.52589-0.10884-1.0894-0.63473-1.2637l-3.8272-1.268 1.3003-3.9248 3.8272 1.268c0.52589 0.17423 1.0894-0.10885 1.2637-0.63473l5.5171-16.653c0.17423-0.52589-0.10885-1.0894-0.63473-1.2637l-16.653-5.5171c-0.52589-0.17423-1.0894 0.10885-1.2637 0.63473l-1.268 3.8272-3.9248-1.3003 1.268-3.8272c0.17422-0.52589-0.10884-1.0894-0.63474-1.2637zm3.0693 6.8979 7.003 2.3201c0.26295 0.08711 0.40464 0.36922 0.31753 0.63216l-2.3201 7.003c-0.0871 0.26294-0.36922 0.40464-0.63217 0.31753l-7.003-2.3201c-0.26294-0.08711-0.40415-0.36906-0.31703-0.632l2.3201-7.003c0.0871-0.26294 0.36872-0.40481 0.63167-0.31769zm22.476 7.4463 7.003 2.3201c0.26294 0.08711 0.40464 0.36922 0.31753 0.63216l-2.3201 7.003c-0.0871 0.26294-0.36921 0.40465-0.63215 0.31753l-7.003-2.3201c-0.26295-0.08711-0.40464-0.36922-0.31753-0.63216l2.3201-7.003c0.0871-0.26294 0.36922-0.40464 0.63217-0.31753zm-12.507 5.2624 3.9248 1.3003-1.268 3.8272c-0.17422 0.52589 0.10884 1.0894 0.63474 1.2637l3.8272 1.268-1.3003 3.9248-3.8272-1.268c-0.52589-0.17423-1.0894 0.10884-1.2637 0.63474l-1.2679 3.8272-3.9248-1.3003 1.268-3.8272c0.17422-0.52589-0.10885-1.0894-0.63474-1.2637l-3.8272-1.268 1.3003-3.9248 3.8272 1.268c0.52589 0.17423 1.0894-0.10884 1.2637-0.63473zm-17.416 9.7676 7.003 2.3201c0.26295 0.08711 0.40465 0.36922 0.31754 0.63216l-2.3201 7.003c-0.0871 0.26295-0.36906 0.40415-0.63201 0.31704l-7.003-2.3201c-0.26295-0.08711-0.40432-0.36856-0.3172-0.63151l2.3201-7.003c0.0871-0.26294 0.36873-0.40481 0.63167-0.31769zm22.476 7.4463 7.003 2.3201c0.26295 0.08711 0.40464 0.36922 0.31753 0.63216l-2.3201 7.003c-0.0871 0.26295-0.36905 0.40416-0.63199 0.31704l-7.003-2.3201c-0.26295-0.08711-0.40481-0.36873-0.3177-0.63167l2.3201-7.003c0.0871-0.26294 0.36922-0.40464 0.63217-0.31753z" fill="#fff" style="paint-order:stroke markers fill"/><g transform="matrix(1.3508 -.44169 .44169 1.3508 -4.0125 13.691)" fill="#fff" stroke="#fff" stroke-linecap="round" stroke-linejoin="round" stroke-miterlimit="2.3" stroke-width=".70363"><path d="m34.07 35.927-10.631 17.063 10.49 6.6006 10.773-6.6006zm-0.14108 9.6754a3.3861 3.3861 0 0 1 3.3864 3.3858 3.3861 3.3861 0 0 1-3.3864 3.3864 3.3861 3.3861 0 0 1-3.3858-3.3864 3.3861 3.3861 0 0 1 3.3858-3.3858z" style="paint-order:stroke markers fill"/><path d="m21.564 55.248 10.529 6.7173-12.956 2.0116zm24.732 0-10.529 6.7173 12.956 2.0116z" style="paint-order:stroke markers fill"/><path d="m22.222 48.988-3.0852-14.833 11.412 1.772z" style="paint-order:stroke markers fill"/><path transform="matrix(-.99982 -.019163 -.019163 .99982 68.786 .65914)" d="m22.222 48.988-3.0852-14.833 11.412 1.772z" style="paint-order:stroke markers fill"/></g><path d="m102.21 14.549 2e-3 5.18e-4 14.533 3.646c1.0747 0.26961 1.701 1.3792 1.4142 2.4495l-3.5769 13.349c-0.28677 1.0702-1.4115 1.8017-2.4495 1.4142l-10.969-4.0944c-1.038-0.38749-1.4151-1.3415-1.4142-2.4495l0.01013-12.901c8.71e-4 -1.108 1.3792-1.701 2.4495-1.4142z" fill="#fff" stroke-linecap="round" stroke-linejoin="round" stroke-miterlimit="2.3" stroke-width=".5" style="paint-order:stroke markers fill"/><path d="m95.792 14.549-2e-3 5.18e-4 -14.533 3.646c-1.0747 0.26961-1.701 1.3792-1.4142 2.4495l3.5769 13.349c0.28677 1.0702 1.4115 1.8017 2.4495 1.4142l10.969-4.0944c1.038-0.38749 1.4151-1.3415 1.4142-2.4495l-0.0101-12.901c-8.7e-4 -1.108-1.3792-1.701-2.4495-1.4142z" fill="#fff" stroke-linecap="round" stroke-linejoin="round" stroke-miterlimit="2.3" stroke-width=".5" style="paint-order:stroke markers fill"/><g transform="translate(-1.9126 -.37502)" fill="none" stroke="#fff" stroke-linecap="round" stroke-linejoin="round" stroke-miterlimit="2.3" stroke-width="1.5"><path d="m97.127 11.986-2.0276-2.6287" style="paint-order:stroke markers fill"/><path d="m104.7 11.986 2.1026-2.6287" style="paint-order:stroke markers fill"/><path d="m100.91 11.986v-5.2574" style="paint-order:stroke markers fill"/></g></g></svg>
