<svg width="16" height="16" version="1.1" viewBox="0 0 16 16" xmlns="http://www.w3.org/2000/svg" xmlns:xlink="http://www.w3.org/1999/xlink">
 <defs>
  <linearGradient id="a">
   <stop stop-color="#f7f547" offset="0"/>
   <stop stop-color="#ffa235" offset="1"/>
  </linearGradient>
  <linearGradient id="c" x1=".99613" x2="15.422" y1="7.6751" y2="7.6751" gradientUnits="userSpaceOnUse" xlink:href="#a"/>
  <linearGradient id="b" x1="1.0849" x2="11.193" y1="1.4647" y2="11.487" gradientUnits="userSpaceOnUse" xlink:href="#a"/>
 </defs>
 <g transform="matrix(.99105 0 0 .99107 -.13551 .50564)" stroke="#000" style="paint-order:stroke markers fill">
  <path d="m7.6133 0.52344c-0.46095 0-0.83767 0.34344-0.89258 0.78906h1.0684c0.94237 0 1.7324 0.7881 1.7324 1.7305v4.2988h3.1074c0.49896 0 0.90039-0.40143 0.90039-0.90039v-5.0156c0-0.49896-0.40143-0.90234-0.90039-0.90234zm-0.90039 2.7871v3.1309c0 0.38015 0.23275 0.70334 0.56445 0.83594h0.24414v-3.9668zm3.416 4.916c-0.28718-0.0016822-0.55813 0.017937-0.81445 0.054688-0.20653 0.33586-0.54686 0.58964-0.93164 0.75 0.13114 0.088486 0.36017 0.065458 0.47852 0.16406 0.81817 0.68168 1.3316 1.5538 1.6641 2.3809 0.66488 1.6541 0.65039 3.25 0.65039 3.25h4.2461s9.12e-4 -6.5686-5.293-6.5996zm-3.8086 1.9023c-0.86026 1.2093-1.1884 2.7217-1.3125 3.6992h3.9648c-0.051098-0.48568-0.0061991-0.76813-0.30273-1.5059-0.2466-0.6135-0.60321-1.1841-1.0879-1.5879-0.33645-0.28032-0.73307-0.49677-1.2617-0.60547z" fill="url(#c)" stroke-width="1.6144" style="paint-order:stroke markers fill"/>
  <path transform="matrix(-1.4271 0 0 1.4271 16.97 -1.5669)" d="m11.193 11.487h-6.4327s-2.2e-6 -4.0281 3.2459-4.0471c3.1868-0.018667 3.1868 4.0471 3.1868 4.0471zm-4.7595-8.7694h3.1543c0.28425 0 0.51309 0.22884 0.51309 0.51309v3.1543c0 0.28425-0.22884 0.51309-0.51309 0.51309h-3.1543c-0.28425 0-0.51309-0.22884-0.51309-0.51309v-3.1543c0-0.28425 0.22884-0.51309 0.51309-0.51309z" color="#000000" fill="url(#b)" stroke-linecap="round" stroke-width="1.1312" style="paint-order:stroke markers fill"/>
 </g>
</svg>
