<?xml version="1.0" encoding="UTF-8" standalone="no"?>
<!-- Created with Inkscape (http://www.inkscape.org/) -->

<svg
   width="475.27411"
   height="327.1376"
   viewBox="0 0 125.74961 86.555156"
   version="1.1"
   id="svg1"
   xml:space="preserve"
   inkscape:version="1.3 (0e150ed6c4, 2023-07-21)"
   sodipodi:docname="collabDudes.svg"
   xmlns:inkscape="http://www.inkscape.org/namespaces/inkscape"
   xmlns:sodipodi="http://sodipodi.sourceforge.net/DTD/sodipodi-0.dtd"
   xmlns="http://www.w3.org/2000/svg"
   xmlns:svg="http://www.w3.org/2000/svg"><sodipodi:namedview
     id="namedview1"
     pagecolor="#6e6e6e"
     bordercolor="#000000"
     borderopacity="0.25"
     inkscape:showpageshadow="2"
     inkscape:pageopacity="0.0"
     inkscape:pagecheckerboard="0"
     inkscape:deskcolor="#d1d1d1"
     inkscape:document-units="mm"
     inkscape:zoom="0.88189945"
     inkscape:cx="210.9084"
     inkscape:cy="170.08742"
     inkscape:window-width="1560"
     inkscape:window-height="876"
     inkscape:window-x="40"
     inkscape:window-y="24"
     inkscape:window-maximized="1"
     inkscape:current-layer="layer1" /><defs
     id="defs1"><inkscape:path-effect
       effect="mirror_symmetry"
       start_point="33.929409,55.327233"
       end_point="33.929409,64.02964"
       center_point="33.929409,59.678437"
       id="path-effect11"
       is_visible="true"
       lpeversion="1.2"
       lpesatellites=""
       mode="free"
       discard_orig_path="false"
       fuse_paths="false"
       oposite_fuse="false"
       split_items="false"
       split_open="false"
       link_styles="false" /><inkscape:path-effect
       effect="mirror_symmetry"
       start_point="34.07053,33.995892"
       end_point="33.929409,48.723045"
       center_point="33.999969,41.359468"
       id="path-effect10"
       is_visible="true"
       lpeversion="1.2"
       lpesatellites="#path11"
       mode="free"
       discard_orig_path="false"
       fuse_paths="false"
       oposite_fuse="false"
       split_items="true"
       split_open="false"
       link_styles="false" /><inkscape:path-effect
       effect="clone_original"
       linkeditem=""
       id="path-effect9"
       is_visible="true"
       lpeversion="1"
       method="d"
       attributes=""
       css_properties=""
       allow_transforms="true" /><inkscape:path-effect
       effect="powerstroke"
       id="path-effect4"
       is_visible="true"
       lpeversion="1.3"
       scale_width="1"
       interpolator_type="CubicBezierJohan"
       interpolator_beta="0.2"
       start_linecap_type="zerowidth"
       end_linecap_type="zerowidth"
       offset_points="0,18.867925"
       linejoin_type="extrp_arc"
       miter_limit="4"
       not_jump="false"
       sort_points="true"
       message="&lt;b&gt;Ctrl + click&lt;/b&gt; on existing node and move it" /><inkscape:path-effect
       effect="fill_between_many"
       method="bsplinespiro"
       autoreverse="false"
       close="false"
       join="false"
       linkedpaths="#path4,0,1"
       id="path-effect5"
       is_visible="true"
       lpeversion="0" /></defs><g
     inkscape:label="Vrstva 1"
     inkscape:groupmode="layer"
     id="layer1"
     transform="translate(-36.39516,-5.6036248)"><path
       id="rect1-2-7"
       style="fill:#ffffff;stroke:none;stroke-width:1.29999;stroke-linecap:round;stroke-linejoin:round;stroke-miterlimit:2.3;paint-order:stroke markers fill"
       d="m 122.3294,37.579753 c -0.52589,-0.174226 -1.08944,0.108845 -1.26367,0.634734 l -5.5171,16.653002 c -0.17423,0.525889 0.10884,1.089447 0.63473,1.263673 l 3.82771,1.268114 -1.30029,3.924845 -3.82771,-1.268113 c -0.52589,-0.174227 -1.08944,0.108843 -1.26368,0.634733 l -5.5171,16.653002 c -0.17423,0.52589 0.10884,1.089446 0.63473,1.263672 l 16.653,5.517106 c 0.5259,0.174228 1.08945,-0.108843 1.26368,-0.634734 l 1.26795,-3.827226 3.92485,1.300293 -1.26796,3.827226 c -0.17422,0.525891 0.10884,1.089447 0.63474,1.263674 l 16.653,5.517103 c 0.52588,0.174227 1.08944,-0.108844 1.26367,-0.634735 l 5.5171,-16.653 c 0.17423,-0.52589 -0.10884,-1.089446 -0.63473,-1.263673 l -3.82722,-1.267951 1.30029,-3.924845 3.82722,1.267951 c 0.52589,0.174226 1.08944,-0.108846 1.26367,-0.634734 l 5.51711,-16.653002 c 0.17423,-0.525889 -0.10885,-1.089447 -0.63473,-1.263673 l -16.653,-5.517104 c -0.52589,-0.174227 -1.08945,0.108846 -1.26368,0.634734 l -1.26795,3.827229 -3.92484,-1.300293 1.26795,-3.827228 c 0.17422,-0.525889 -0.10884,-1.089447 -0.63474,-1.263674 z m 3.06933,6.897861 7.00301,2.320084 c 0.26295,0.08711 0.40464,0.36922 0.31753,0.632164 l -2.32008,7.003013 c -0.0871,0.262942 -0.36922,0.404644 -0.63217,0.31753 l -7.00301,-2.320085 c -0.26294,-0.08711 -0.40415,-0.369056 -0.31703,-0.631999 l 2.32008,-7.003013 c 0.0871,-0.262943 0.36872,-0.404808 0.63167,-0.317694 z m 22.47626,7.446339 7.00301,2.320083 c 0.26294,0.08711 0.40464,0.369217 0.31753,0.632161 l -2.32009,7.003013 c -0.0871,0.262942 -0.36921,0.404646 -0.63215,0.317533 l -7.00302,-2.320084 c -0.26295,-0.08711 -0.40464,-0.36922 -0.31753,-0.632163 l 2.32008,-7.003013 c 0.0871,-0.262944 0.36922,-0.404644 0.63217,-0.31753 z m -12.507,5.262353 3.92485,1.300293 -1.26796,3.827228 c -0.17422,0.52589 0.10884,1.089447 0.63474,1.263673 l 3.82722,1.267951 -1.3003,3.924845 -3.82722,-1.267951 c -0.52589,-0.174226 -1.08945,0.108844 -1.26368,0.634735 l -1.26794,3.827227 -3.92485,-1.300293 1.26796,-3.827227 c 0.17422,-0.525891 -0.10885,-1.089446 -0.63474,-1.263674 l -3.82724,-1.267953 1.30029,-3.924846 3.82724,1.267954 c 0.52589,0.174227 1.08945,-0.108845 1.26368,-0.634733 z m -17.4156,9.767562 7.00301,2.320084 c 0.26295,0.08711 0.40465,0.369218 0.31754,0.632163 l -2.32008,7.003012 c -0.0871,0.262946 -0.36906,0.404154 -0.63201,0.31704 l -7.00301,-2.320085 c -0.26295,-0.08711 -0.40432,-0.368563 -0.3172,-0.631508 l 2.32008,-7.003012 c 0.0871,-0.262945 0.36873,-0.404807 0.63167,-0.317694 z m 22.47626,7.446338 7.00301,2.320085 c 0.26295,0.08711 0.40464,0.369215 0.31753,0.63216 l -2.32009,7.003011 c -0.0871,0.262946 -0.36905,0.404156 -0.63199,0.317043 l -7.00301,-2.320084 c -0.26295,-0.08711 -0.40481,-0.368727 -0.3177,-0.631673 l 2.32008,-7.003011 c 0.0871,-0.262945 0.36922,-0.404645 0.63217,-0.317531 z"
       inkscape:transform-center-x="-26.612892"
       inkscape:transform-center-y="-13.64543" /><g
       id="g11"
       transform="matrix(1.350817,-0.44169176,0.4416919,1.3508165,-4.0124709,13.690721)"
       style="stroke:#ffffff;stroke-width:0.703633;stroke-dasharray:none;stroke-opacity:1"
       inkscape:transform-center-x="2.1872299"
       inkscape:transform-center-y="0.62492113"><path
         id="path7"
         style="fill:#ffffff;stroke:#ffffff;stroke-width:0.703633;stroke-linecap:round;stroke-linejoin:round;stroke-miterlimit:2.3;stroke-dasharray:none;stroke-opacity:1;paint-order:stroke markers fill"
         d="m 34.070272,35.927006 -10.631393,17.063041 10.490316,6.600631 10.772986,-6.600631 z m -0.141077,9.675378 a 3.3860996,3.3860996 0 0 1 3.386357,3.38584 3.3860996,3.3860996 0 0 1 -3.386357,3.386357 3.3860996,3.3860996 0 0 1 -3.38584,-3.386357 3.3860996,3.3860996 0 0 1 3.38584,-3.38584 z" /><path
         style="fill:#ffffff;stroke:#ffffff;stroke-width:0.703633;stroke-linecap:round;stroke-linejoin:round;stroke-miterlimit:2.3;stroke-dasharray:none;stroke-opacity:1;paint-order:stroke markers fill"
         d="m 21.563567,55.247679 10.529475,6.717339 -12.956248,2.011586 z m 24.731684,0 -10.529475,6.717339 12.956248,2.011586 z"
         id="path8"
         sodipodi:nodetypes="cccc"
         inkscape:original-d="m 21.563567,55.247679 10.529475,6.717339 -12.956248,2.011586 z"
         inkscape:path-effect="#path-effect11" /><path
         style="fill:#ffffff;stroke:#ffffff;stroke-width:0.703633;stroke-linecap:round;stroke-linejoin:round;stroke-miterlimit:2.3;stroke-dasharray:none;stroke-opacity:1;paint-order:stroke markers fill"
         d="m 22.221964,48.988426 -3.08517,-14.833427 11.411778,1.772007 z"
         id="path9"
         sodipodi:nodetypes="cccc"
         inkscape:original-d="m 22.221964,48.988426 -3.08517,-14.833427 11.411778,1.772007 z"
         inkscape:path-effect="#path-effect10" /><path
         id="path11"
         d="m 22.221964,48.988426 -3.08517,-14.833427 11.411778,1.772007 z"
         style="fill:#ffffff;stroke:#ffffff;stroke-width:0.703633;stroke-linecap:round;stroke-linejoin:round;stroke-miterlimit:2.3;stroke-dasharray:none;stroke-opacity:1;paint-order:stroke markers fill"
         transform="matrix(-0.99981637,-0.01916298,-0.01916298,0.99981637,68.786266,0.65913532)" /></g><path
       id="rect11-2"
       style="fill:#ffffff;stroke-width:0.499999;stroke-linecap:round;stroke-linejoin:round;stroke-miterlimit:2.3;paint-order:stroke markers fill"
       d="m 102.21105,14.549143 0.002,5.18e-4 14.53335,3.646048 c 1.0747,0.26961 1.70098,1.379244 1.41421,2.44949 l -3.57688,13.349094 c -0.28677,1.070246 -1.41146,1.801699 -2.44949,1.414214 l -10.96852,-4.094444 c -1.03804,-0.387488 -1.415087,-1.341491 -1.414216,-2.44949 l 0.01013,-12.901216 c 8.71e-4,-1.107999 1.379241,-1.700985 2.449491,-1.414214 z"
       sodipodi:nodetypes="scssssssss" /><path
       id="rect11-2-3"
       style="fill:#ffffff;stroke-width:0.499999;stroke-linecap:round;stroke-linejoin:round;stroke-miterlimit:2.3;paint-order:stroke markers fill"
       d="m 95.791811,14.549143 -0.002,5.18e-4 -14.533349,3.646048 c -1.0747,0.26961 -1.70098,1.379244 -1.41421,2.44949 l 3.576879,13.349094 c 0.28677,1.070246 1.41146,1.801699 2.44949,1.414214 l 10.96859,-4.094444 c 1.03804,-0.387488 1.41509,-1.341491 1.41422,-2.44949 l -0.0101,-12.901216 c -8.7e-4,-1.107999 -1.37925,-1.700985 -2.44949,-1.414214 z"
       sodipodi:nodetypes="scssssssss" /><g
       id="g12"
       transform="translate(-1.9125976,-0.37501913)"><path
         style="fill:none;stroke:#ffffff;stroke-width:1.5;stroke-linecap:round;stroke-linejoin:round;stroke-miterlimit:2.3;stroke-dasharray:none;paint-order:stroke markers fill"
         d="M 97.127088,11.986071 95.099469,9.3573575"
         id="path12"
         sodipodi:nodetypes="cc" /><path
         style="fill:none;stroke:#ffffff;stroke-width:1.5;stroke-linecap:round;stroke-linejoin:round;stroke-miterlimit:2.3;stroke-dasharray:none;paint-order:stroke markers fill"
         d="M 104.70097,11.986071 106.8036,9.3573575"
         id="path12-8"
         sodipodi:nodetypes="cc" /><path
         style="fill:none;stroke:#ffffff;stroke-width:1.5;stroke-linecap:round;stroke-linejoin:round;stroke-miterlimit:2.3;stroke-dasharray:none;paint-order:stroke markers fill"
         d="M 100.91403,11.986071 V 6.7286439"
         id="path12-0-0"
         sodipodi:nodetypes="cc" /></g></g></svg>
