<svg width="64mm" height="64mm" version="1.1" viewBox="0 0 64 64" xmlns="http://www.w3.org/2000/svg"><defs><clipPath id="clipPath6147"><path d="m53.777-32s10.567-0.28961 8.3595 10.762c-1.4681 7.3486 0.82232 0.37658 1.864-5.2616 0.52488-2.841 8e-6 -5.5004 8e-6 -5.5004z" display="none" fill="#f00" style="paint-order:normal"/><path class="powerclip" d="m-5-37h74v42h-74zm58.777 5s10.567-0.28961 8.3595 10.762c-1.4681 7.3486 0.82232 0.37658 1.864-5.2616 0.52488-2.841 8e-6 -5.5004 8e-6 -5.5004z" fill="#f00" style="paint-order:normal"/></clipPath><clipPath id="clipPath6337"><g display="none"><circle cx="48.143" cy="16" r="5.1448" style="paint-order:normal"/><circle cx="16" cy="16" r="5.1448" style="paint-order:normal"/><circle cx="32.072" cy="8.4667" r="5.1448" style="paint-order:normal"/><circle cx="8.4667" cy="31.855" r="5.1448" style="paint-order:normal"/></g><path class="powerclip" d="m-5-5h74v74h-74zm58.288 21a5.1448 5.1448 0 0 0-5.1448-5.1448 5.1448 5.1448 0 0 0-5.1448 5.1448 5.1448 5.1448 0 0 0 5.1448 5.1448 5.1448 5.1448 0 0 0 5.1448-5.1448zm-32.143 0a5.1448 5.1448 0 0 0-5.1448-5.1448 5.1448 5.1448 0 0 0-5.1448 5.1448 5.1448 5.1448 0 0 0 5.1448 5.1448 5.1448 5.1448 0 0 0 5.1448-5.1448zm16.072-7.5333a5.1448 5.1448 0 0 0-5.1448-5.1448 5.1448 5.1448 0 0 0-5.1448 5.1448 5.1448 5.1448 0 0 0 5.1448 5.1448 5.1448 5.1448 0 0 0 5.1448-5.1448zm-23.605 23.389a5.1448 5.1448 0 0 0-5.1448-5.1448 5.1448 5.1448 0 0 0-5.1448 5.1448 5.1448 5.1448 0 0 0 5.1448 5.1448 5.1448 5.1448 0 0 0 5.1448-5.1448z"/></clipPath></defs><g clip-path="url(#clipPath6337)" fill="#fff"><path transform="scale(1,-1)" d="m64-32a32 32 0 0 1-16 27.713 32 32 0 0 1-32-8e-7 32 32 0 0 1-16-27.713h32z" clip-path="url(#clipPath6147)" style="paint-order:markers fill stroke"/><path transform="scale(-1,1)" d="m0 32a32 32 0 0 1-32 32 10.469 10.469 0 0 1-9.0666-5.2348 10.469 10.469 0 0 1 0-10.469 10.469 10.469 0 0 1 1.4449-1.9182l-0.02222-5.17e-4 0.11782-0.12351s0.06304-0.06331 0.1049-0.1049a10.469 10.469 0 0 1 0.03979-0.03979c0.67668-0.68643 3.9197-4.2092 2.9719-7.8295-1.5905-6.0756-8.3514-6.2797-8.3514-6.2797h12.761z" style="paint-order:markers fill stroke"/></g></svg>
