<svg width="32" height="32" version="1.1" viewBox="0 0 32 32" xml:space="preserve" xmlns="http://www.w3.org/2000/svg"><defs><linearGradient id="a" x1="-5.9605e-8" x2="32" y1="16" y2="16" gradientUnits="userSpaceOnUse"><stop stop-color="#234c82" offset="0"/><stop stop-color="#599050" offset=".5"/><stop stop-color="#471e2b" offset="1"/></linearGradient></defs><rect x=".75" y=".75" width="30.5" height="30.5" rx="3" ry="3" fill="url(#a)" stroke="#000" stroke-linecap="round" stroke-linejoin="round" stroke-miterlimit="2" stroke-width="1.5"/><path d="m15.399 25.018c-2.2364-0.17791-4.2483-1.0975-5.7781-2.6408-1.3879-1.4003-2.262-3.1524-2.5684-5.148-0.081723-0.5324-0.091463-1.8766-0.017164-2.3694 0.12432-0.82452 0.27592-1.4135 0.5412-2.1025 1.4092-3.6603 5.0324-5.9985 8.9459-5.7732 4.5994 0.26472 8.2601 3.9442 8.5078 8.5515l0.02391 0.44455h-2.8471c-3.2408 0-3.1089-0.011-3.772 0.31535-0.55198 0.27171-0.94971 0.71696-1.1435 1.2802-0.26103 0.7586-0.0025 1.5432 0.80425 2.4406 0.4551 0.50628 0.67728 0.92847 0.79546 1.5116 0.07343 0.36233 0.05664 0.96072-0.03657 1.3033-0.13552 0.49809-0.46596 1.0519-0.83391 1.3977-0.68078 0.63972-1.4791 0.87992-2.6222 0.78899zm-5.5955-7.681c0.5377-0.18111 0.88512-0.58511 0.98928-1.1503 0.17602-0.95523-0.70713-1.849-1.661-1.681-0.49675 0.08749-0.89734 0.3797-1.1087 0.80866-0.11142 0.22622-0.11909 0.26663-0.11909 0.62835 0 0.35636 0.00889 0.40526 0.1138 0.62536 0.32299 0.6777 1.0838 1.0054 1.7856 0.76898zm2.2798-4.5246c0.59433-0.27414 0.95279-0.93196 0.84638-1.5531-0.11338-0.66181-0.5619-1.1157-1.2241-1.2389-0.62069-0.11541-1.2903 0.24444-1.5716 0.84452-0.08876 0.18937-0.09905 0.2533-0.09905 0.61541 0 0.3655 0.0095 0.42337 0.09978 0.60612 0.18816 0.381 0.46411 0.63315 0.8492 0.77593 0.28613 0.10609 0.81296 0.08216 1.0994-0.04997zm9.1222-0.0085c1.2856-0.62796 1.0251-2.5208-0.38287-2.7826-0.6115-0.1137-1.2867 0.2246-1.5591 0.78113-0.27806 0.56826-0.18513 1.2127 0.24166 1.6756 0.30698 0.33299 0.62321 0.4568 1.1308 0.44269 0.30058-0.0084 0.38135-0.02492 0.56947-0.11682zm-4.5318-2.1417c0.89626-0.44116 1.102-1.6584 0.39913-2.3612-0.56659-0.56652-1.505-0.57146-2.0736-0.010936-0.64977 0.64049-0.559 1.7453 0.18544 2.2574 0.28884 0.19869 0.50018 0.2561 0.89734 0.24372 0.30958-0.0096 0.38078-0.02517 0.5917-0.12899z" fill="#fff" stroke="#000" stroke-width="3" style="paint-order:stroke markers fill"/></svg>
