<?xml version="1.0" encoding="UTF-8" standalone="no"?>
<svg
   width="32"
   height="32"
   version="1.1"
   viewBox="0 0 32 32"
   xml:space="preserve"
   id="svg4"
   sodipodi:docname="colorPicker.svg"
   inkscape:version="1.3.2 (091e20ef0f, 2023-11-25, custom)"
   xmlns:inkscape="http://www.inkscape.org/namespaces/inkscape"
   xmlns:sodipodi="http://sodipodi.sourceforge.net/DTD/sodipodi-0.dtd"
   xmlns="http://www.w3.org/2000/svg"
   xmlns:svg="http://www.w3.org/2000/svg"><sodipodi:namedview
     id="namedview4"
     pagecolor="#ffffff"
     bordercolor="#000000"
     borderopacity="0.25"
     inkscape:showpageshadow="2"
     inkscape:pageopacity="0.0"
     inkscape:pagecheckerboard="0"
     inkscape:deskcolor="#d1d1d1"
     inkscape:zoom="1.9141602"
     inkscape:cx="-60.078567"
     inkscape:cy="21.158104"
     inkscape:window-width="1560"
     inkscape:window-height="872"
     inkscape:window-x="40"
     inkscape:window-y="28"
     inkscape:window-maximized="1"
     inkscape:current-layer="svg4" /><defs
     id="defs3"><linearGradient
       id="a"
       x1="-5.9605e-08"
       x2="32"
       y1="16"
       y2="16"
       gradientUnits="userSpaceOnUse"
       spreadMethod="pad"><stop
         stop-color="#234c82"
         offset="0"
         id="stop1"
         style="stop-color:#295b9c;stop-opacity:1;" /><stop
         stop-color="#471e2b"
         offset="1"
         id="stop3"
         style="stop-color:#43a048;stop-opacity:1;" /></linearGradient></defs><g
     stroke="#000"
     id="g4"><rect
       x=".75"
       y=".75"
       width="30.5"
       height="30.5"
       rx="3"
       ry="3"
       fill="url(#a)"
       stroke-linecap="round"
       stroke-linejoin="round"
       stroke-miterlimit="2"
       stroke-width="1.5"
       id="rect3"
       style="fill-rule:nonzero" /><path
       d="m15.399 25.018c-2.2364-0.17791-4.2483-1.0975-5.7781-2.6408-1.3879-1.4003-2.262-3.1524-2.5684-5.148-0.081723-0.5324-0.091463-1.8766-0.017164-2.3694 0.12432-0.82452 0.27592-1.4135 0.5412-2.1025 1.4092-3.6603 5.0324-5.9985 8.9459-5.7732 4.5994 0.26472 8.2601 3.9442 8.5078 8.5515l0.02391 0.44455h-2.8471c-3.2408 0-3.1089-0.011-3.772 0.31535-0.55198 0.27171-0.94971 0.71696-1.1435 1.2802-0.26103 0.7586-0.0025 1.5432 0.80425 2.4406 0.4551 0.50628 0.67728 0.92847 0.79546 1.5116 0.07343 0.36233 0.05664 0.96072-0.03657 1.3033-0.13552 0.49809-0.46596 1.0519-0.83391 1.3977-0.68078 0.63972-1.4791 0.87992-2.6222 0.78899zm-5.5955-7.681c0.5377-0.18111 0.88512-0.58511 0.98928-1.1503 0.17602-0.95523-0.70713-1.849-1.661-1.681-0.49675 0.08749-0.89734 0.3797-1.1087 0.80866-0.11142 0.22622-0.11909 0.26663-0.11909 0.62835 0 0.35636 0.00889 0.40526 0.1138 0.62536 0.32299 0.6777 1.0838 1.0054 1.7856 0.76898zm2.2798-4.5246c0.59433-0.27414 0.95279-0.93196 0.84638-1.5531-0.11338-0.66181-0.5619-1.1157-1.2241-1.2389-0.62069-0.11541-1.2903 0.24444-1.5716 0.84452-0.08876 0.18937-0.09905 0.2533-0.09905 0.61541 0 0.3655 0.0095 0.42337 0.09978 0.60612 0.18816 0.381 0.46411 0.63315 0.8492 0.77593 0.28613 0.10609 0.81296 0.08216 1.0994-0.04997zm9.1222-0.0085c1.2856-0.62796 1.0251-2.5208-0.38287-2.7826-0.6115-0.1137-1.2867 0.2246-1.5591 0.78113-0.27806 0.56826-0.18513 1.2127 0.24166 1.6756 0.30698 0.33299 0.62321 0.4568 1.1308 0.44269 0.30058-0.0084 0.38135-0.02492 0.56947-0.11682zm-4.5318-2.1417c0.89626-0.44116 1.102-1.6584 0.39913-2.3612-0.56659-0.56652-1.505-0.57146-2.0736-0.010936-0.64977 0.64049-0.559 1.7453 0.18544 2.2574 0.28884 0.19869 0.50018 0.2561 0.89734 0.24372 0.30958-0.0096 0.38078-0.02517 0.5917-0.12899z"
       display="none"
       fill="#fff"
       stroke-width="3"
       style="paint-order:stroke markers fill"
       id="path3" /><path
       d="m15.137 24.525c-1.6136-0.20873-3.1916-0.89435-4.4183-1.9197-3.7227-3.1118-4.1438-8.6333-0.93751-12.291 1.1755-1.341 2.828-2.3022 4.6247-2.6902 3.8712-0.8359 7.8211 1.1033 9.5234 4.6755 0.3066 0.64337 0.38194 0.88394 0.4207 1.3434 0.093 1.1024-0.40391 1.8742-1.426 2.2149-0.33719 0.11241-0.36699 0.11447-2.0216 0.13946-1.6728 0.02526-1.6806 0.02582-1.9988 0.14153-0.1757 0.06389-0.41309 0.17105-0.52754 0.23812-0.80288 0.47052-1.1993 1.3732-0.96117 2.1887 0.10708 0.36669 0.32777 0.72652 0.74353 1.2123 0.60733 0.70964 0.82156 1.234 0.82156 2.0108 0 0.80988-0.24722 1.408-0.81302 1.9668-0.62771 0.62003-1.1594 0.82106-2.1471 0.8118-0.32863-0.0031-0.72594-0.02222-0.8829-0.04252zm-4.7035-7.2854c0.11878-0.05235 0.30933-0.1869 0.42344-0.29899 0.27821-0.27327 0.40152-0.56695 0.40576-0.96635 0.0086-0.80693-0.66409-1.4378-1.4699-1.3785-0.73255 0.05385-1.2441 0.58294-1.2796 1.3235-0.01412 0.29442-6.54e-4 0.37386 0.10114 0.59662 0.32946 0.72099 1.1157 1.0338 1.8191 0.7237zm2.1389-4.3161c0.44797-0.24382 0.66767-0.60796 0.69777-1.1565 0.01872-0.34122 0.01079-0.38438-0.11902-0.64808-0.33932-0.68926-1.1175-0.97593-1.808-0.66605-1.0731 0.48158-1.1011 1.9625-0.04729 2.5001 0.38097 0.19436 0.8868 0.18269 1.2766-0.02944zm8.4504 0.08612c0.28178-0.08879 0.61872-0.4001 0.77191-0.7132 0.1015-0.20745 0.12318-0.3102 0.12318-0.58373 0-0.42187-0.14595-0.74523-0.46642-1.0334-0.7141-0.64204-1.8705-0.36192-2.2058 0.53432-0.24115 0.64454 0.02674 1.3881 0.61557 1.7086 0.37645 0.20489 0.7092 0.22992 1.1616 0.08738zm-4.1731-2.0968c0.87726-0.42786 1.0197-1.5931 0.2765-2.2613-0.69084-0.62113-1.784-0.37455-2.1834 0.49246-0.14351 0.31159-0.13021 0.83366 0.0291 1.1419 0.37566 0.72695 1.1456 0.98399 1.8778 0.62689z"
       fill="#fff"
       stroke-linecap="round"
       stroke-linejoin="round"
       stroke-miterlimit="2.3"
       stroke-width="2.8"
       style="paint-order:stroke markers fill"
       id="path4" /></g></svg>
