<svg width="100%" height="100%" version="1.1" viewBox="0 0 8.4667 8.4667" xmlns="http://www.w3.org/2000/svg"><path d="m1.0617 0.29507c-0.25632-0.0011183-0.46478 0.20619-0.46509 0.46251v6.9515c3.0753e-4 0.25632 0.20877 0.46363 0.46509 0.46251h2.9591v-0.92553h-2.4966v-6.0255h4.254v2.1311h0.92605v-2.5942c-3.09e-4 -0.25551-0.20751-0.46248-0.46302-0.46251h-5.1795z" color="#000000" stroke-linecap="round" stroke-linejoin="round" style="-inkscape-stroke:none"/><path d="m4.75 4.5684a0.46302 0.46302 0 0 0 0 0.6543l0.83789 0.83789-0.83789 0.83789a0.46302 0.46302 0 0 0 0 0.65625 0.46302 0.46302 0 0 0 0.6543 0l0.83789-0.83789 0.83789 0.83789a0.46302 0.46302 0 0 0 0.6543 0 0.46302 0.46302 0 0 0 0-0.65625l-0.83789-0.83789 0.83789-0.83789a0.46302 0.46302 0 0 0 0-0.6543 0.46302 0.46302 0 0 0-0.6543 0l-0.83789 0.83789-0.83789-0.83789a0.46302 0.46302 0 0 0-0.6543 0z" stop-color="#000000" stroke-linecap="round" stroke-linejoin="round"/></svg>
