<svg width="32" height="32" version="1.1" viewBox="0 0 32 32" xml:space="preserve" xmlns="http://www.w3.org/2000/svg"><defs><linearGradient id="a" x2="32" y1="32" gradientTransform="matrix(.976 0 0 .976 .75 .75)" gradientUnits="userSpaceOnUse"><stop stop-color="#171717" offset="0"/><stop stop-color="#9e5151" offset="1"/></linearGradient></defs><rect x=".75" y=".75" width="30.5" height="30.5" rx="3" ry="3" fill="url(#a)" stroke="#000" stroke-linecap="round" stroke-linejoin="round" stroke-miterlimit="2" stroke-width="1.5"/><path d="m10.766 24.874c-0.23519-0.07179-0.39438-0.20251-0.49857-0.40942-0.051-0.10128-0.05607-0.65319-0.05607-6.0982v-5.9868h-1.1192l0.024454-0.33428c0.045238-0.61836 0.20828-1.0765 0.47578-1.337 0.23795-0.2317 0.31607-0.24253 1.7503-0.24253h1.2574l0.01072-1.2092 0.01072-1.2092 0.09709-0.20878c0.12638-0.27178 0.36218-0.50951 0.62735-0.63247l0.2119-0.098263 2.3384-0.00987c1.5638-0.00659 2.3976 0.00246 2.5171 0.027352 0.32177 0.067026 0.61487 0.27382 0.80136 0.56539 0.16651 0.26033 0.18662 0.43829 0.18662 1.6514v1.1236h1.2531c0.86015 0 1.2958 0.01283 1.3892 0.04092 0.38788 0.11661 0.72649 0.69945 0.80507 1.3858 0.0099 0.08612 0.02728 0.23096 0.0387 0.32187l0.02076 0.16529h-1.114v5.9862c0 4.9896-0.0079 6.0052-0.04751 6.1003-0.06555 0.15742-0.30749 0.35589-0.49007 0.40202-0.17651 0.04459-10.345 0.05032-10.491 6e-3zm1.9647-1.7446c0.0816-0.03963 0.18016-0.12369 0.21902-0.18679 0.07019-0.11394 0.07067-0.14661 0.07053-4.7734-1.4e-4 -4.5632-0.0016-4.661-0.068-4.7704-0.20335-0.33464-0.80814-0.34056-1.0329-0.01012l-0.07803 0.1147 1.28e-4 4.6663c1.25e-4 4.5095 0.0023 4.67 0.06548 4.7739 0.14285 0.23505 0.53861 0.3243 0.8238 0.18578zm3.3166 0.02416c0.06138-0.02635 0.15841-0.09784 0.21563-0.15887l0.10404-0.11096 0.0088-4.6866c0.0086-4.6042 0.0075-4.6886-0.05933-4.7983-0.10662-0.1749-0.31523-0.2639-0.57909-0.24704-0.23372 0.01494-0.34686 0.0742-0.47793 0.25034-0.07138 0.09593-0.0715 0.1039-0.0715 4.7476 0 4.5988 7.68e-4 4.6529 0.0698 4.7708 0.13801 0.2357 0.52048 0.34858 0.78962 0.23303zm3.3229 0.0083c0.06483-0.02179 0.15448-0.07268 0.1992-0.11309 0.18885-0.17062 0.17877 0.10536 0.17877-4.8957v-4.6343l-0.07286-0.11828c-0.11118-0.1805-0.30784-0.26568-0.57415-0.24866-0.23372 0.01493-0.34686 0.0742-0.47793 0.25033-0.07127 0.09577-0.07153 0.11135-0.08067 4.7131l-0.0092 4.6171 0.07852 0.15627c0.13057 0.25984 0.45271 0.37592 0.75826 0.27324z" fill="#fff" stroke="#000" stroke-linecap="round" stroke-linejoin="round" stroke-miterlimit="2" stroke-width="3" style="paint-order:stroke markers fill"/></svg>
