<svg width="16mm" height="16mm" version="1.1" viewBox="0 0 16 16" xmlns="http://www.w3.org/2000/svg" xmlns:xlink="http://www.w3.org/1999/xlink"><g fill="#fff" fill-rule="evenodd"><path d="m1.6131 4.556c-0.72734 0-1.3131 0.58576-1.3131 1.3131v8.5183c0 0.72734 0.58576 1.3126 1.3131 1.3126h8.9493c0.72734 0 1.3131-0.58524 1.3131-1.3126v-8.5183c0-0.72734-0.58576-1.3131-1.3131-1.3131zm7.5771 0.84606c1.0128-2.112e-4 1.8339 0.82071 1.834 1.8335 2.11e-4 1.013-0.82102 1.8342-1.834 1.834-1.0128-7.45e-5 -1.8337-0.82122-1.8335-1.834 7.46e-5 -1.0126 0.82091-1.8334 1.8335-1.8335zm-6.2678 5.8317c1.0451 1.74e-4 1.8922 0.84732 1.8924 1.8924 1.116e-4 1.0453-0.84712 1.8927-1.8924 1.8929-1.0455 1.11e-4 -1.893-0.84744-1.8929-1.8929 1.74e-4 -1.0453 0.84764-1.8925 1.8929-1.8924z"/><rect transform="matrix(1 .0017271 -.69573 .7183 0 0)" x="4.6008" y=".55021" width="10.919" height="4.1618" rx="1.2384" ry=".49031"/><rect transform="matrix(-.001773 -1 -.72735 .68626 0 0)" x="-26.762" y="-21.523" width="10.636" height="4.11" rx="1.2063" ry=".48421"/></g></svg>
