<svg width="32" height="32" version="1.1" viewBox="0 0 32 32" xmlns="http://www.w3.org/2000/svg"><path transform="translate(9,8)" d="m2.5684-3.5156c-0.59876-0.005079-1.2436 0.02738-1.9375 0.097656-1.8035 0.16395-3.2782 0.51407-4.5195 1.0996-1.2413 0.56212-2.272 1.2173-3.0215 1.9902-0.74949 0.81976-1.3127 1.6647-1.6641 2.5312-0.35132 0.8666-0.49212 1.7095-0.39844 2.5059 0.023422 0.3279 0.093861 0.56066 0.25781 0.72461 0.18737 0.18737 0.37516 0.23436 0.60938 0.21094l5.9258-0.53711c0.35132-0.046843 0.60949-0.14074 0.77344-0.30469 0.070265-0.18737 0.16414-0.37516 0.28125-0.60938 0.093686-0.25764 0.28138-0.58613 0.46875-0.86719 0.21079-0.28106 0.65473-0.44535 1.2871-0.49219 0.18737-0.023423 0.37511 0.023469 0.53906 0.070312 0.18737 0.093686 0.3282 0.211 0.44531 0.30469 0.093687 0.16395 0.16407 0.37513 0.1875 0.5625 0.023422 0.30448-0.093893 0.63307-0.30469 1.0078-0.28106 0.37474-0.60961 0.77177-0.96094 1.1934-0.42159 0.42159-0.84207 0.9144-1.2402 1.4062-0.39817 0.51527-0.77366 1.0297-1.1016 1.5918-0.35132 0.5387-0.58603 1.1488-0.72656 1.7344-0.023412 0.07026-7.2e-6 0.093775 0 0.14062 7.2e-6 0.046834-3.6e-6 0.093768 0 0.11719 0.023422 0.16395 0.070424 0.27936 0.23438 0.37305 0.11711 0.11711 0.25791 0.14063 0.39844 0.14062l6.8164-0.63086c0.25764-0.023422 0.46689-0.1173 0.60742-0.28125 0.093687-0.11711 0.25796-0.39866 0.46875-0.72656 0.023426-0.093686 0.070358-0.18753 0.14062-0.23438 0.046847-0.070265 0.093795-0.16413 0.16406-0.25781 0.28106-0.39817 0.58619-0.81865 0.96094-1.2402 0.3279-0.42159 0.70144-0.86752 1.0996-1.3594 0.3279-0.49185 0.65646-0.98276 0.96094-1.4746 0.28106-0.51527 0.4923-1.0551 0.65625-1.6406 0.14053-0.60896 0.18749-1.2173 0.14063-1.9199-0.046843-0.51527-0.21116-1.0786-0.53906-1.7344-0.30448-0.6558-0.7954-1.2406-1.498-1.8496-0.70265-0.56212-1.6629-1.0315-2.8809-1.3359-0.7612-0.1903-1.6329-0.29818-2.6309-0.30664zm12.494 7.0996c-0.79952-0.0061274-1.5188 0.087195-2.1328 0.30078-0.7162 0.27298-1.3233 0.61767-1.8086 1.043-0.48526 0.4253-0.83429 0.90192-1.0234 1.4219-0.087226 0.2094-0.11664 0.37544-0.066406 0.52734 0.057415 0.1736 0.1589 0.26018 0.31055 0.31836l3.8203 1.5059c0.2311 0.080049 0.41841 0.10102 0.57031 0.050781 0.10141-0.093724 0.21652-0.17903 0.36133-0.28711 0.13763-0.12978 0.35594-0.27546 0.55859-0.39062 0.21709-0.10791 0.54095-0.069534 0.94531 0.097656 0.12277 0.043654 0.224 0.12927 0.31055 0.20898 0.086462 0.11585 0.13654 0.23211 0.17969 0.32617 0.006922 0.13012-0.014945 0.28152-0.058594 0.4043-0.079964 0.19496-0.25386 0.36168-0.5 0.52734-0.28945 0.14388-0.61365 0.28653-0.96094 0.4375-0.39061 0.12918-0.80322 0.30266-1.2012 0.48242-0.40522 0.1942-0.79741 0.39576-1.1738 0.64062-0.3836 0.22316-0.7162 0.52636-0.98438 0.84375-0.036209 0.036057-0.028449 0.057059-0.042968 0.085937-0.014519 0.028879-0.02984 0.057827-0.03711 0.072266-0.036393 0.10833-0.042726 0.19415 0.029297 0.30273 0.035884 0.1085 0.11454 0.16737 0.20117 0.21094l4.3984 1.7227c0.16609 0.06543 0.32543 0.073125 0.46289 0.015625 0.094063-0.043146 0.28206-0.164 0.51367-0.30078 0.043486-0.050495 0.10036-0.094363 0.1582-0.10156 0.050662-0.028792 0.10928-0.071452 0.18164-0.10742 0.29671-0.15831 0.61483-0.32504 0.97656-0.46875 0.33285-0.15823 0.70166-0.31633 1.0996-0.49609 0.35464-0.20155 0.70863-0.40252 1.0488-0.61133 0.33302-0.23051 0.63145-0.49651 0.91406-0.80664 0.27544-0.33183 0.49268-0.69294 0.68164-1.1406 0.13087-0.33217 0.20388-0.73038 0.20508-1.2363 0.015627-0.49868-0.10526-1.0122-0.34961-1.6055-0.25888-0.56438-0.70688-1.1515-1.3633-1.7168-0.6564-0.56531-1.5512-1.0868-2.75-1.5449-1.1626-0.45808-2.1802-0.69875-3.127-0.72266-0.11744-0.0047933-0.23344-0.0088903-0.34766-0.0097656zm-10.684 8.5957-5.832 0.53906c-0.25764 0.023421-0.42199 0.11731-0.58594 0.30469-0.16395 0.21079-0.21092 0.42202-0.1875 0.63281l0.46875 5.0586c0.023422 0.25764 0.093893 0.44541 0.30469 0.58594 0.18737 0.16394 0.37518 0.23436 0.63281 0.21094l5.832-0.53906c0.21079-0.023421 0.42002-0.11733 0.56055-0.32812 0.14053-0.16395 0.23436-0.37518 0.21094-0.63281l-0.4668-5.0586c-0.023421-0.21079-0.14075-0.39856-0.32812-0.58594-0.16395-0.14052-0.39858-0.21092-0.60938-0.1875zm7.6406 1.3926c-0.073185 0.001639-0.14698 0.020392-0.22656 0.052734-0.16643 0.079114-0.25962 0.19482-0.31055 0.33203l-1.2793 3.2637c-0.065443 0.16609-0.080517 0.30309 0.005859 0.45508 0.064677 0.15916 0.15813 0.26074 0.32422 0.32617l3.7617 1.4746c0.13721 0.05091 0.29723 0.059027 0.44922-0.027343 0.13746-0.057501 0.26073-0.15813 0.32617-0.32422l1.2793-3.2637c0.050916-0.13721 0.035932-0.28929-0.021484-0.46289-0.0575-0.13746-0.1792-0.25377-0.31641-0.30469l-3.7617-1.4766c-0.083043-0.032695-0.15728-0.046562-0.23047-0.044922z" fill="#fff"/></svg>
