<svg width="32" height="32" version="1.1" viewBox="0 0 32 32" xmlns="http://www.w3.org/2000/svg"><path d="m0.086175 10.755c-0.4291 2.3286 2.3085 3.3584 4.1888 2.9503 2.0433-0.09559 3.1804-2.6335 5.3335-2.0726 2.09 1.4201-1.1072 3.3875-2.0753 4.5197-1.7622 1.9348 0.94649 4.0426 2.9129 3.3134 7.0764-1.1664 9.0165-7.9944 8.5486-10.448-1.9966-6.8223-15.743-6.018-18.909 1.7368zm23.976 0.82886c-2.3573-1.2286-5.7522 2.4794-3.4549 4.329 1.2675 0.61658 5.2173-0.45197 3.9452 2.0351-2.4325-0.10285-3.3068 3.6281-0.7068 4.1385 3.2325 0.58367 7.3701-1.0091 8.0475-4.5282 0.48201-4.8541-6.2507-5.8158-7.831-5.9743zm-17.209 11.08c-0.85654 2.4087 1.1823 5.2984 3.803 4.8357 2.0637 0.18843 4.4516-1.3251 4.2198-3.6007 0.29053-3.7382-6.9112-4.9814-8.0228-1.2349zm16.23 4.5602c2.6557-0.45511 2.4265-4.2545 0.13734-5.101-4.717-2.8451-4.557 6.2535-0.13734 5.101z" fill="#fff"/></svg>
