<svg width="213.01mm" height="213mm" version="1.1" viewBox="0 0 805.08 805.05" xmlns="http://www.w3.org/2000/svg">
 <g transform="translate(-32.229 510.81)" fill="#fff" stroke-linecap="round" stroke-linejoin="round" stroke-miterlimit="2.3" stroke-width="3">
  <path d="m51.127 36.832c-10.469 0-18.898 8.4292-18.898 18.898v110.11c0 10.469 8.4292 18.898 18.898 18.898h110.11c10.469 0 18.896-8.4292 18.896-18.898v-110.11c0-10.469-8.4272-18.898-18.896-18.898zm55.928 17.313c6.2631-6.92e-4 11.341 5.0767 11.34 11.34v62.229l18.35-19.297c4.3156-4.5384 11.493-4.7186 16.031-0.40234 4.5371 4.3154 4.7173 11.492 0.40234 16.029-14.142 20.699-41.656 43.32-45.992 43.32-3.8806 0-31.734-19.779-47.82-43.137-4.4167-4.4393-4.3983-11.619 0.04102-16.035 4.4393-4.4167 11.619-4.3983 16.035 0.041l20.275 20.381v-63.129c-6.95e-4 -6.2623 5.0755-11.339 11.338-11.34z" style="paint-order:stroke markers fill"/>
  <path d="m404.82 184.74c10.469 0 18.898-8.4292 18.898-18.898v-110.11c0-10.469-8.4292-18.898-18.898-18.898h-110.11c-10.469 0-18.896 8.4292-18.896 18.898v110.11c0 10.469 8.4272 18.898 18.896 18.898zm-55.928-17.313c-6.2631 7e-4 -11.341-5.0767-11.34-11.34v-62.229l-18.35 19.297c-4.3156 4.5384-11.493 4.7186-16.031 0.40234-4.5371-4.3154-4.7173-11.492-0.40234-16.029 14.142-20.699 41.656-43.32 45.992-43.32 3.8806 0 31.734 19.779 47.82 43.137 4.4167 4.4393 4.3983 11.619-0.041 16.035-4.4393 4.4167-11.619 4.3983-16.035-0.041l-20.275-20.381v63.129c6.9e-4 6.2623-5.0756 11.339-11.338 11.34z" style="paint-order:stroke markers fill"/>
  <g transform="translate(35.355,9.8e-4)">
   <path d="m631.95 55.731c0-10.469-8.4292-18.898-18.898-18.898h-110.11c-10.469 0-18.898 8.4292-18.898 18.898v110.11c0 10.469 8.4292 18.896 18.898 18.896h110.11c10.469 0 18.898-8.4272 18.898-18.896zm-17.313 55.928c7e-4 6.2631-5.0767 11.341-11.34 11.34h-62.229l19.297 18.35c4.5384 4.3156 4.7186 11.493 0.40234 16.031-4.3154 4.5371-11.492 4.7173-16.029 0.40234-20.699-14.142-43.32-41.656-43.32-45.992 0-3.8806 19.779-31.734 43.137-47.82 4.4393-4.4167 11.619-4.3983 16.035 0.041 4.4167 4.4393 4.3983 11.619-0.041 16.035l-20.381 20.275h63.129c6.2623-6.9e-4 11.339 5.0756 11.34 11.338z" style="paint-order:stroke markers fill"/>
   <path d="m654.05 165.84c0 10.469 8.4292 18.898 18.898 18.898h110.11c10.469 0 18.898-8.4292 18.898-18.898v-110.11c0-10.469-8.4292-18.896-18.898-18.896h-110.11c-10.469 0-18.898 8.4272-18.898 18.896zm17.313-55.928c-7e-4 -6.2631 5.0767-11.341 11.34-11.34h62.229l-19.297-18.35c-4.5384-4.3156-4.7186-11.493-0.40234-16.031 4.3154-4.5371 11.492-4.7173 16.029-0.40234 20.699 14.142 43.32 41.656 43.32 45.992 0 3.8806-19.779 31.734-43.137 47.82-4.4393 4.4167-11.619 4.3983-16.035-0.041-4.4167-4.4393-4.3983-11.619 0.041-16.035l20.381-20.275h-63.129c-6.2623 6.9e-4 -11.339-5.0756-11.34-11.338z" style="paint-order:stroke markers fill"/>
  </g>
 </g>
 <g fill="none" stroke="#fff" stroke-linecap="round" stroke-linejoin="round" stroke-miterlimit="2.3" stroke-width="7.5592">
  <path d="m351.55 785.12-68.027-68.027m0 68.027 68.027-68.027" style="paint-order:stroke markers fill"/>
  <path d="m39.204 755.11 29.435 30.424 40.061-68.86" style="paint-order:stroke markers fill"/>
  <path d="m578.13 717.09-34.014 34.014 34.014 34.014" style="paint-order:stroke markers fill"/>
  <path d="m714.12 717.09 34.014 34.014-34.014 34.014" style="paint-order:stroke markers fill"/>
 </g>
 <g fill="#fff">
  <path d="m402.54 66.543c-117.55 0-213.16 93.41-213.16 208.64 0 115.23 95.612 208.64 213.16 208.64 117.55 0 213.16-93.412 213.16-208.64 0-115.23-95.61-208.64-213.16-208.64zm0 14.74c109.76 0 198.42 86.815 198.42 193.9s-88.661 193.9-198.42 193.9-198.42-86.815-198.42-193.9 88.663-193.9 198.42-193.9zm0 14.613c-28.744 0-55.901 6.8273-79.997 18.887l68.028 61.241a5.6694 5.6694 0 0 1 0.41993 8.0079 5.6694 5.6694 0 0 1-8.006 0.41993l-71.011-63.927c-53.039 31.164-88.722 88.784-88.722 154.66 0 98.905 80.383 179.29 179.29 179.29 98.905 0 179.29-80.383 179.29-179.29 0-65.717-35.509-123.22-88.337-154.44l-70.765 63.706a5.6694 5.6694 0 0 1-8.006-0.41993 5.6694 5.6694 0 0 1 0.41993-8.0079l67.8-61.034c-24.196-12.186-51.493-19.094-80.398-19.094zm-99.73 84.343h41.385a7.3709 7.3709 0 0 1 3.9493 1.1465c12.523 7.9514 20.203 21.548 20.207 36.165a7.3709 7.3709 0 0 0 0 2e-3 7.3709 7.3709 0 0 0 0 2e-3 7.3709 7.3709 0 0 0 0 2e-3 7.3709 7.3709 0 0 0 0 2e-3 7.3709 7.3709 0 0 0 0 2e-3 7.3709 7.3709 0 0 0 0 2e-3c-0.0148 15.021-8.1309 28.927-21.219 36.76a7.3709 7.3709 0 0 1-3.7852 1.0449h-39.735a7.3709 7.3709 0 0 1-3.7852-1.0449c-13.087-7.8336-21.205-21.739-21.219-36.76a7.3709 7.3709 0 0 1 0-0.0156c0.0158-14.626 7.7155-28.225 20.258-36.165a7.3709 7.3709 0 0 1 3.9434-1.1426zm159.63 0h41.387a7.3709 7.3709 0 0 1 3.9493 1.1465c12.523 7.9514 20.203 21.548 20.207 36.165a7.3709 7.3709 0 0 0 0 2e-3 7.3709 7.3709 0 0 0 0 2e-3 7.3709 7.3709 0 0 0 0 2e-3 7.3709 7.3709 0 0 0 0 2e-3 7.3709 7.3709 0 0 0 0 2e-3 7.3709 7.3709 0 0 0 0 2e-3c-0.0148 15.021-8.1328 28.927-21.221 36.76a7.3709 7.3709 0 0 1-3.7852 1.0449h-39.733a7.3709 7.3709 0 0 1-3.7852-1.0449c-13.087-7.8336-21.205-21.739-21.219-36.76a7.3709 7.3709 0 0 1 0-0.0156c0.0158-14.626 7.7155-28.225 20.258-36.165a7.3709 7.3709 0 0 1 3.9415-1.1426zm-153.55 7.3692a12.744 12.744 0 0 0-12.742 12.744 12.744 12.744 0 0 0 12.742 12.742 12.744 12.744 0 0 0 12.744-12.742 12.744 12.744 0 0 0-12.744-12.744zm159.82 0a12.744 12.744 0 0 0-12.744 12.744 12.744 12.744 0 0 0 12.744 12.742 12.744 12.744 0 0 0 12.744-12.742 12.744 12.744 0 0 0-12.744-12.744zm-65.591 87.749c27.951-0.3569 55.766 6.5838 83.038 21.987a7.3702 7.3702 0 0 1 2.793 10.043 7.3702 7.3702 0 0 1-10.041 2.793c-50.466-28.503-100.56-25.862-153.09 0.18555a7.3702 7.3702 0 0 1-9.8771-3.3301 7.3702 7.3702 0 0 1 3.3282-9.8771c27.809-13.79 55.896-21.444 83.847-21.801zm27.512 44.69a2.8347 2.8347 0 0 1 2.7383 1.5547 2.8347 2.8347 0 0 1-1.2598 3.8067c-19.471 9.7871-39.61 10.852-59.243-0.0566a2.8347 2.8347 0 0 1-1.1016-3.8536 2.8347 2.8347 0 0 1 1.6992-1.3496 2.8347 2.8347 0 0 1 2.1563 0.24805c18.097 10.055 35.685 9.1231 53.944-0.0547a2.8347 2.8347 0 0 1 1.0664-0.29492z" color="#000000" stroke-linecap="round" stroke-linejoin="round" stroke-miterlimit="2.3" style="-inkscape-stroke:none;paint-order:stroke markers fill"/>
  <path d="m692.46 225.25v99.874l63.254-49.937z" style="paint-order:stroke markers fill"/>
  <path d="m112.62 229.71v99.874l-63.254-49.937z" style="paint-order:stroke markers fill"/>
 </g>
</svg>
