<svg width="213.01mm" height="39.134mm" version="1.1" viewBox="0 0 805.08 147.91" xmlns="http://www.w3.org/2000/svg">
 <g transform="translate(-32.229 -36.832)" fill="#fff" stroke-linecap="round" stroke-linejoin="round" stroke-miterlimit="2.3" stroke-width="3">
  <path d="m51.127 36.832c-10.469 0-18.898 8.4292-18.898 18.898v110.11c0 10.469 8.4292 18.898 18.898 18.898h110.11c10.469 0 18.896-8.4292 18.896-18.898v-110.11c0-10.469-8.4272-18.898-18.896-18.898zm55.928 17.313c6.2631-6.92e-4 11.341 5.0767 11.34 11.34v62.229l18.35-19.297c4.3156-4.5384 11.493-4.7186 16.031-0.40234 4.5371 4.3154 4.7173 11.492 0.40234 16.029-14.142 20.699-41.656 43.32-45.992 43.32-3.8806 0-31.734-19.779-47.82-43.137-4.4167-4.4393-4.3983-11.619 0.04102-16.035 4.4393-4.4167 11.619-4.3983 16.035 0.041l20.275 20.381v-63.129c-6.95e-4 -6.2623 5.0755-11.339 11.338-11.34z" style="paint-order:stroke markers fill"/>
  <path d="m404.82 184.74c10.469 0 18.898-8.4292 18.898-18.898v-110.11c0-10.469-8.4292-18.898-18.898-18.898h-110.11c-10.469 0-18.896 8.4292-18.896 18.898v110.11c0 10.469 8.4272 18.898 18.896 18.898zm-55.928-17.313c-6.2631 7e-4 -11.341-5.0767-11.34-11.34v-62.229l-18.35 19.297c-4.3156 4.5384-11.493 4.7186-16.031 0.40234-4.5371-4.3154-4.7173-11.492-0.40234-16.029 14.142-20.699 41.656-43.32 45.992-43.32 3.8806 0 31.734 19.779 47.82 43.137 4.4167 4.4393 4.3983 11.619-0.041 16.035-4.4393 4.4167-11.619 4.3983-16.035-0.041l-20.275-20.381v63.129c6.9e-4 6.2623-5.0756 11.339-11.338 11.34z" style="paint-order:stroke markers fill"/>
  <g transform="translate(35.355 .00098)">
   <path d="m631.95 55.731c0-10.469-8.4292-18.898-18.898-18.898h-110.11c-10.469 0-18.898 8.4292-18.898 18.898v110.11c0 10.469 8.4292 18.896 18.898 18.896h110.11c10.469 0 18.898-8.4272 18.898-18.896zm-17.313 55.928c7e-4 6.2631-5.0767 11.341-11.34 11.34h-62.229l19.297 18.35c4.5384 4.3156 4.7186 11.493 0.40234 16.031-4.3154 4.5371-11.492 4.7173-16.029 0.40234-20.699-14.142-43.32-41.656-43.32-45.992 0-3.8806 19.779-31.734 43.137-47.82 4.4393-4.4167 11.619-4.3983 16.035 0.041 4.4167 4.4393 4.3983 11.619-0.041 16.035l-20.381 20.275h63.129c6.2623-6.9e-4 11.339 5.0756 11.34 11.338z" style="paint-order:stroke markers fill"/>
   <path d="m654.05 165.84c0 10.469 8.4292 18.898 18.898 18.898h110.11c10.469 0 18.898-8.4292 18.898-18.898v-110.11c0-10.469-8.4292-18.896-18.898-18.896h-110.11c-10.469 0-18.898 8.4272-18.898 18.896zm17.313-55.928c-7e-4 -6.2631 5.0767-11.341 11.34-11.34h62.229l-19.297-18.35c-4.5384-4.3156-4.7186-11.493-0.40234-16.031 4.3154-4.5371 11.492-4.7173 16.029-0.40234 20.699 14.142 43.32 41.656 43.32 45.992 0 3.8806-19.779 31.734-43.137 47.82-4.4393 4.4167-11.619 4.3983-16.035-0.041-4.4167-4.4393-4.3983-11.619 0.041-16.035l20.381-20.275h-63.129c-6.2623 6.9e-4 -11.339-5.0756-11.34-11.338z" style="paint-order:stroke markers fill"/>
  </g>
 </g>
</svg>
