<?xml version="1.0" encoding="UTF-8"?>
<!-- Created with Inkscape (http://www.inkscape.org/) -->
<svg width="32" height="32" version="1.1" viewBox="0 0 32 32" xml:space="preserve" xmlns="http://www.w3.org/2000/svg"><path d="m9.9504 0.66138-7.6973 7.6973v19.943c-1.668e-4 0.94715 0.76769 1.715 1.7148 1.7148h17.545c0.45097-0.0071 0.86085-0.26356 1.0645-0.66602l-1.5938-1.5879c-0.62387 0.14581-1.2051 0.39453-1.877 0.39453-4.8043-1e-6 -8.7676-3.9405-8.7676-8.748-1e-6 -4.8075 3.9633-8.748 8.7676-8.748 1.2878 0 2.5145 0.28581 3.6211 0.79297v-10.01c3.57e-4 -0.4327-0.3505-0.78356-0.7832-0.7832zm9.1563 12.15c-3.633 1e-6 -6.6172 2.9688-6.6172 6.5977 0 3.6288 2.9842 6.5977 6.6172 6.5977 0.92687 0 1.8059-0.20264 2.6094-0.55078l5.4629 5.4434a1.5054 1.5054 0 0 0 2.1289-0.0039 1.5054 1.5054 0 0 0-0.0039-2.1289l-5.1992-5.1816c0.96509-1.147 1.6172-2.5708 1.6172-4.1758 1e-6 -3.6288-2.9823-6.5977-6.6152-6.5977zm0 3.0098c2.0115 0 3.6035 1.5919 3.6035 3.5879-1e-6 1.996-1.592 3.5859-3.6035 3.5859s-3.6055-1.5899-3.6055-3.5859c0-1.996 1.5939-3.5879 3.6055-3.5879z" fill="#fff" fill-rule="evenodd"/></svg>
