<?xml version="1.0" encoding="UTF-8"?>
<!-- Created with Inkscape (http://www.inkscape.org/) -->
<svg width="32" height="32" version="1.1" viewBox="0 0 32 32" xml:space="preserve" xmlns="http://www.w3.org/2000/svg"><g transform="matrix(1.1446 0 0 1.1446 .00074579 -6.2927)" fill="#fff" fill-rule="evenodd"><path d="m1 11.555c-0.554 0-1.0621 0.44949-1 1l0.35742 3.1758h1.8887v-0.81836c0-0.554 0.446-1 1-1h21.353c0.554 0 1 0.446 1 1v0.81836h2.0078l0.3457-3.1758c0.05986-0.55076-0.446-1-1-1zm-0.51367 5.3047 1.5937 14.141c0.062089 0.55051 0.446 1 1 1h21.869c0.554 0 0.94014-0.44924 1-1l1.5371-14.141h-24.24z" stroke-linecap="round" stroke-linejoin="round" stroke-width="5" style="paint-order:stroke markers fill"/><rect y="6.9541" width="9.3077" height="6.4191" rx=".87369" ry=".87369" style="paint-order:stroke markers fill"/></g></svg>
