<svg width="64mm" height="64mm" version="1.1" viewBox="0 0 64 64" xmlns="http://www.w3.org/2000/svg" xmlns:xlink="http://www.w3.org/1999/xlink">
 <defs>
  <linearGradient id="a" x1="13.218" x2="228.81" y1="120.92" y2="120.92" gradientUnits="userSpaceOnUse">
   <stop stop-color="#14ff74" offset="0"/>
   <stop stop-color="#004d1d" offset="1"/>
  </linearGradient>
 </defs>
 <g>
  <path transform="scale(.26458)" d="m174.1 103.86c0.12291-0.3403 1.532-3.8381 3.1314-7.7729l2.9079-7.1541 24.228-0.18742-14.053-24.524 3.1982-7.8175c2.5644-6.2681 3.2675-7.6918 3.5475-7.1833 0.86461 1.5697 30.427 53.086 31.05 54.109l0.70001 1.149h-27.467c-26.009 0-27.455-0.0328-27.244-0.61871zm9.5475-23.335c0.89324-2.4562 3.2122-7.8653 3.3696-7.8598 0.18696 0.0065 1.5241 2.2199 3.8938 6.4456l1.1401 2.0329h-4.3142c-3.9588 0-4.2957-0.05097-4.0892-0.61872zm-129.74 112.25c0.84029-2.0223 59.309-143.97 59.491-144.43 0.1385-0.34967 7.9994-0.44194 37.652-0.44194 29.837 0 37.442 0.09009 37.305 0.44194-0.0944 0.24307-13.582 33.097-29.972 73.009l-29.8 72.567h-75.153zm-1.4031-27.382c-1.3114-2.2951-2.4526-4.2923-2.536-4.4381-0.08342-0.14584 1.8379-0.26517 4.2696-0.26517h4.4213l-1.7795 4.331c-0.97874 2.3821-1.8271 4.3792-1.8853 4.4381-0.05816 0.0589-1.1787-1.7708-2.49-4.0659zm-23.349-0.0546-15.93-27.806 13.72-0.0925c7.5462-0.0509 19.915-0.0509 27.485 0l13.765 0.0925-6.2516 15.203-24.446 0.35355 14.148 24.667-3.0635 7.4654c-1.6849 4.1059-3.1611 7.5685-3.2804 7.6946-0.11929 0.12611-7.3854-12.284-16.147-27.577z" fill="#fff" stroke="url(#a)" stroke-linejoin="round" stroke-miterlimit="2.3" stroke-width="22.299" style="paint-order:stroke markers fill"/>
 </g>
</svg>
