<svg width="64mm" height="64mm" version="1.1" viewBox="0 0 64 64" xml:space="preserve" xmlns="http://www.w3.org/2000/svg" xmlns:xlink="http://www.w3.org/1999/xlink"><defs><linearGradient id="a" x1="3.9256" x2="60.074" y1="32" y2="32" gradientUnits="userSpaceOnUse"><stop stop-color="#14ff74" offset="0"/><stop stop-color="#004d1d" offset="1"/></linearGradient></defs><g fill-rule="evenodd" stroke-linejoin="round"><path d="m29.701 12.676-15.957 38.649h20.68l15.957-38.649zm22.151 0-1.8407 4.2194c0.0447 0.01872 0.08034 0.04423 0.09663 0.07286l3.3197 5.8157c0.0327 0.05726-0.025 0.10335-0.12919 0.10335h-5.6617c-0.0796 0-0.16256-0.02683-0.21187-0.06511l-1.8381 4.2132c0.0564 0.04626 0.14586 0.09095 0.22117 0.09095h14.159c0.10421 0 0.13076-0.1001 0.08527-0.17984l-8.093-14.177c-0.0163-0.02851-0.05741-0.06441-0.10749-0.09302zm-2.4324 5.5743-1.4015 3.2122c0.0597 0.04754 0.13203 0.07855 0.1943 0.07855h2.974c0.10042 0 0.13538-0.08045 0.07803-0.18087l-1.6945-2.9683c-0.033-0.05783-0.0896-0.10845-0.15038-0.14159zm-45.388 18.624c-0.10421 0-0.13076 0.1001-0.085267 0.17983l8.093 14.177c0.0163 0.02851 0.05741 0.06441 0.10749 0.09302l1.8407-4.2194c-0.0447-0.01872-0.08034-0.04423-0.09664-0.07286l-3.3197-5.8157c-0.0327-0.05726 0.025-0.10335 0.12919-0.10335h5.6617c0.0796 0 0.16256 0.02683 0.21187 0.06511l1.8381-4.2132c-0.0564-0.04626-0.14587-0.09095-0.22118-0.09095zm8.7809 5.5852c-0.10042 0-0.13538 0.08045-0.07803 0.18087l1.6945 2.9683c0.033 0.05783 0.0896 0.10845 0.15038 0.14159l1.4015-3.2122c-0.0597-0.04754-0.13203-0.07855-0.1943-0.07855z" fill="#fff" stroke="url(#a)" stroke-linecap="round" stroke-width="5" style="paint-order:stroke markers fill"/></g></svg>
