<svg width="820" height="462" version="1.1" viewBox="0 0 820 462" xmlns="http://www.w3.org/2000/svg">
 <g fill="#fff" stroke-linecap="round" stroke-linejoin="round" stroke-miterlimit="2.3">
  <path d="m18 111.91c-9.799 0-18 8.201-18 18v202.19c0 9.799 8.201 18 18 18h2.5293c1.2333-7.0377 3.8741-13.865 7.9668-20h-8.4961v-198.19h8.4961c-4.0927-6.1355-6.7335-12.962-7.9668-20h-2.5293zm28.23 0c1.3385 3.7243 3.4269 7.2511 6.4414 10.266l9.7344 9.7344h77.783l-20-20h-73.959zm109.31 0 20 20h49.695l20-20h-89.695zm125.05 0-20 20h77.785l9.7344-9.7344c3.0145-3.0145 5.1029-6.5414 6.4414-10.266h-73.961zm99.662 0c-1.2333 7.0377-3.8741 13.865-7.9668 20h293.74l13.068-20h-298.84zm328.71 0-13.07 20h65.703l9.2891-14.215a12.501 12.501 0 0 0 0.00195 0c1.2116-1.854 2.1039-3.8018 2.8262-5.7852h-64.75zm90.541 0c-1.1887 6.7592-3.7194 13.383-7.6914 19.461l-0.35156 0.53906h8.5391v198.19h-138.05l-13.07 20h153.12c9.799 0 18-8.201 18-18v-202.19c0-9.799-8.201-18-18-18h-2.4961zm-737.1 218.19-9.7344 9.7344c-3.0145 3.0145-5.103 6.5414-6.4414 10.266h73.957l20-20h-77.781zm113.14 0-20 20h89.695l-20-20h-49.695zm85.049 0 20 20h73.961c-1.3385-3.7243-3.4269-7.2511-6.4414-10.266l-9.7344-9.7344h-77.785zm111.7 0c4.0927 6.1355 6.7335 12.962 7.9668 20h112.78l-21.518-20h-99.232zm135.95 0 21.518 20h89.256l13.068-20h-123.84z" color="#000000" style="-inkscape-stroke:none;paint-order:stroke markers fill"/>
  <path d="m72.119 62.725a40 40 0 0 0-28.285 11.717 40 40 0 0 0 0 56.568l99.99 99.99-99.99 99.99a40 40 0 0 0 0 56.568 40 40 0 0 0 56.568 0l99.99-99.99 99.99 99.99a40 40 0 0 0 56.57 0 40 40 0 0 0 0-56.568l-99.99-99.99 99.99-99.99a40 40 0 0 0 0-56.568 40 40 0 0 0-56.57 0l-99.99 99.99-99.99-99.99a40 40 0 0 0-28.283-11.717z" color="#000000" style="-inkscape-stroke:none;paint-order:stroke markers fill"/>
  <path d="m755.27 63.338a40 40 0 0 0-40.885 17.428l-141.79 216.98-82.605-76.785a40 40 0 0 0-56.531 2.0644 40 40 0 0 0 2.0645 56.531l117.37 109.09a40.004 40.004 0 0 0 60.717-7.416l167.75-256.71a40 40 0 0 0-11.604-55.367 40 40 0 0 0-14.48-5.8242z" color="#000000" style="-inkscape-stroke:none;paint-order:stroke markers fill"/>
 </g>
</svg>
