<?xml version="1.0" encoding="UTF-8" standalone="no"?>
<svg
   id="svg5"
   width="16mm"
   height="16mm"
   version="1.1"
   viewBox="0 0 16 16"
   sodipodi:docname="importLevels.svg"
   inkscape:version="1.3.2 (091e20ef0f, 2023-11-25, custom)"
   xmlns:inkscape="http://www.inkscape.org/namespaces/inkscape"
   xmlns:sodipodi="http://sodipodi.sourceforge.net/DTD/sodipodi-0.dtd"
   xmlns:xlink="http://www.w3.org/1999/xlink"
   xmlns="http://www.w3.org/2000/svg"
   xmlns:svg="http://www.w3.org/2000/svg">
  <sodipodi:namedview
     id="namedview1"
     pagecolor="#ffffff"
     bordercolor="#000000"
     borderopacity="0.25"
     inkscape:showpageshadow="2"
     inkscape:pageopacity="0.0"
     inkscape:pagecheckerboard="0"
     inkscape:deskcolor="#d1d1d1"
     inkscape:document-units="mm"
     inkscape:zoom="8.103278"
     inkscape:cx="39.366785"
     inkscape:cy="43.624321"
     inkscape:window-width="1560"
     inkscape:window-height="872"
     inkscape:window-x="40"
     inkscape:window-y="28"
     inkscape:window-maximized="1"
     inkscape:current-layer="svg5" />
  <defs
     id="defs2">
    <linearGradient
       id="linearGradient6"
       x1="-.74835"
       x2="16.011"
       y1="8.002"
       y2="8"
       gradientUnits="userSpaceOnUse">
      <stop
         id="stop5"
         stop-color="#54c456"
         offset="0"
         style="stop-color:#c45454;stop-opacity:1;" />
      <stop
         id="stop6"
         stop-color="#24d082"
         offset="1"
         style="stop-color:#d08424;stop-opacity:1;" />
    </linearGradient>
    <linearGradient
       id="linearGradient5243"
       x1="-.74835"
       x2="16.011"
       y1="8.002"
       y2="8"
       gradientUnits="userSpaceOnUse">
      <stop
         id="stop5239"
         stop-color="#54c456"
         offset="0" />
      <stop
         id="stop5237"
         stop-color="#24d082"
         offset="1" />
    </linearGradient>
    <linearGradient
       id="linearGradient7210"
       x1="-.74835"
       x2="16.011"
       y1="8.002"
       y2="8"
       gradientUnits="userSpaceOnUse"
       xlink:href="#linearGradient5243" />
    <linearGradient
       inkscape:collect="always"
       xlink:href="#linearGradient6"
       id="linearGradient2"
       gradientUnits="userSpaceOnUse"
       x1="-.74835"
       y1="8.002"
       x2="16.011"
       y2="8"
       gradientTransform="matrix(0,-0.69859247,0.84979103,0,1.2084075,11.896979)" />
  </defs>
  <path
     id="rect864"
     style="fill:url(#linearGradient2);stroke-width:0.770492"
     d="m 7.0226098,0.71168033 c -0.3964705,0 -0.7156055,0.29730617 -0.7156055,0.66664307 V 6.6818077 L 4.1841982,4.5590016 C 4.0024587,4.3772621 3.6302998,4.4566144 3.3499528,4.7369614 L 1.9587592,6.1286259 C 1.6784122,6.4089728 1.5990599,6.7806609 1.7807994,6.9624004 L 6.6247897,11.80639 c 0.040552,0.04055 0.090993,0.06764 0.1473582,0.08286 H 1.6070767 c -0.423809,0 -0.76503878,0.300068 -0.76503878,0.672763 v 2.0536 c 0,0.372696 0.34122978,0.672764 0.76503878,0.672764 H 14.529406 c 0.423809,0 0.765039,-0.300068 0.765039,-0.672764 v -2.0536 c 0,-0.372695 -0.34123,-0.672763 -0.765039,-0.672763 H 9.2527568 C 9.3077698,11.87386 9.357064,11.84709 9.3968195,11.80733 L 14.24081,6.963342 C 14.422549,6.7816025 14.343197,6.4094436 14.06285,6.1290966 L 12.671185,4.737903 C 12.390838,4.457556 12.019151,4.3782037 11.837411,4.5599432 L 9.7061305,6.6912235 V 1.3783234 c 0,-0.3693369 -0.3191349,-0.66664307 -0.7156055,-0.66664307 z M 9.006532,11.888308 c 9.381e-4,2.16e-4 0.00189,7.31e-4 0.00282,9.42e-4 H 8.990525 c 0.0054,0 0.010632,-8.31e-4 0.016007,-9.42e-4 z m -1.9952212,4.71e-4 c 0.00382,5.6e-5 0.00746,4.71e-4 0.011299,4.71e-4 h -0.013182 c 6.101e-4,-1.34e-4 0.00127,-3.34e-4 0.00188,-4.71e-4 z" />
</svg>
