<?xml version="1.0" encoding="UTF-8"?>
<!-- Created with Inkscape (http://www.inkscape.org/) -->
<svg width="32" height="32" version="1.1" viewBox="0 0 32 32" xmlns="http://www.w3.org/2000/svg">
 <path d="m21.943-5e-7 -5.8002 6.9004-1.0046-4.4452-0.88352 4.4452-1.3826-1.0131-0.66901 1.8902-2.8799-2.5656 0.39928 4.2711-8.0897-4.0247 5.2374 8.351-1.9943 0.55645 1.9943 1.8074-2.3808 0.68176 2.3808 0.60954-4.2052 3.3111 5.0887-0.65202 0.050972 0.08283a9.2732 9.2732 0 0 0 1.0343 1.6439l0.10619 0.1699-1.4527 4.39 3.9673-2.2322-0.48424 7.8221 5.1673-6.5542 2.3362 3.2431 0.51822-3.6934 2.5868 1.7373-0.95785-2.4679a9.2732 9.2732 0 0 0 1.9858-1.4803l0.0361-0.0022 7.5163 2.6633-4.7489-7.1425 4.9528-1.2594-5.1185-2.6208-0.0064-0.02549a9.2732 9.2732 0 0 0-0.32707-1.2191l-0.0085-0.03186 2.9012-2.2152-3.9525 0.09557 1.0577-1.835-1.7819 0.88989a9.2732 9.2732 0 0 0-2.1026-1.7882zm-5.3967 10.449 0.48636 1.9136 2.7589-1.835-1.0279 2.9033v0.01487a3.5825 3.5825 0 0 1 0.57132 0.76671l0.95361-0.36955-0.67114 0.99821 1.4272 0.20177-1.2531 0.90263 2.5316 1.9964-3.0201-0.18902 0.86228 1.5334-1.697-0.5607-0.06584 0.04035a3.5825 3.5825 0 0 1-0.63503 0.39928l-0.03186 0.02124 0.25274 1.9646-1.2807-1.6247-0.23575 0.91963-0.26336-0.91963-0.69662 0.77096-0.21451-0.77096-3.2282 2.024 1.5568-3.1263-1.6502 0.15504 0.98971-1.1129-0.7306-0.25698 0.39291-0.53521-1.7182-0.34194 1.7182-0.38654-2.6654-2.2407 3.2028 0.35256a3.5825 3.5825 0 0 1 0.69025-0.81343l-0.34194-0.68813 0.70724 0.40778-0.0361-1.5249 0.85591 1.1193 0.01274-0.0022a3.5825 3.5825 0 0 1 0.46937-0.12743l0.01066-0.0022z" fill="#fff" fill-rule="evenodd"/>
</svg>
