<svg width="32" height="32" version="1.1" viewBox="0 0 8.4667 8.4667" xmlns="http://www.w3.org/2000/svg"><path d="m0.50023 1.356c-0.277 0-0.50023 0.22271-0.50023 0.49971v4.7547c0 0.277 0.22323 0.50023 0.50023 0.50023h7.4662c0.277 0 0.50023-0.22323 0.50023-0.50023v-4.7547c0-0.277-0.22323-0.49971-0.50023-0.49971zm0.22893 0.65732h0.92294c0.1108 0 0.19999 0.089188 0.19999 0.19999v0.92294c0 0.1108-0.089188 0.19999-0.19999 0.19999h-0.92294c-0.1108 0-0.19999-0.089188-0.19999-0.19999v-0.92294c0-0.1108 0.089188-0.19999 0.19999-0.19999zm2.0283 0h0.92294c0.1108 0 0.19999 0.089188 0.19999 0.19999v0.92294c0 0.1108-0.089188 0.19999-0.19999 0.19999h-0.92294c-0.1108 0-0.19999-0.089188-0.19999-0.19999v-0.92294c0-0.1108 0.089188-0.19999 0.19999-0.19999zm2.0288 0h0.92294c0.1108 0 0.19999 0.089188 0.19999 0.19999v0.92294c0 0.1108-0.089188 0.19999-0.19999 0.19999h-0.92294c-0.1108 0-0.19999-0.089188-0.19999-0.19999v-0.92294c0-0.1108 0.089188-0.19999 0.19999-0.19999zm2.0283 0h0.92294c0.1108 0 0.19999 0.089188 0.19999 0.19999v0.92294c0 0.1108-0.089188 0.19999-0.19999 0.19999h-0.92294c-0.1108 0-0.19999-0.089188-0.19999-0.19999v-0.92294c0-0.1108 0.089188-0.19999 0.19999-0.19999zm-6.0854 2.0831h0.92294c0.1108 0 0.19999 0.089188 0.19999 0.19999v0.92294c0 0.1108-0.089188 0.19999-0.19999 0.19999h-0.92294c-0.1108 0-0.19999-0.089188-0.19999-0.19999v-0.92294c0-0.1108 0.089188-0.19999 0.19999-0.19999zm2.0598 0h2.9487c0.1108 0 0.19999 0.089188 0.19999 0.19999v0.92294c0 0.1108-0.089188 0.19999-0.19999 0.19999h-2.9487c-0.1108 0-0.19999-0.089188-0.19999-0.19999v-0.92294c0-0.1108 0.089188-0.19999 0.19999-0.19999zm4.0256 0h0.92294c0.1108 0 0.19999 0.089188 0.19999 0.19999v0.92294c0 0.1108-0.089188 0.19999-0.19999 0.19999h-0.92294c-0.1108 0-0.19999-0.089188-0.19999-0.19999v-0.92294c0-0.1108 0.089188-0.19999 0.19999-0.19999z" fill="#fff" fill-rule="evenodd" style="paint-order:stroke markers fill"/><path d="m0 4.8207h32" fill="#f00"/></svg>
