<svg version="1.1" viewBox="0 0 31.749 31.749" xmlns="http://www.w3.org/2000/svg"><path d="m24.144 19.327h4.3007c0.81615 0 1.4732 0.65705 1.4732 1.4732v7.5524c0 0.81615-0.65705 1.4732-1.4732 1.4732h-4.3007c-0.81615 0-1.4732-0.65705-1.4732-1.4732v-7.5524c0-0.81615 0.65705-1.4732 1.4732-1.4732zm-10.405-16.996h4.2009c0.81615 0 1.4732 0.65705 1.4732 1.4732v24.547c0 0.81615-0.65705 1.4732-1.4732 1.4732h-4.2009c-0.81615 0-1.4732-0.65705-1.4732-1.4732v-24.547c0-0.81615 0.65705-1.4732 1.4732-1.4732zm-10.237 9.3125h3.8518c0.81615 0 1.4732 0.65705 1.4732 1.4732v15.234c0 0.81615-0.65705 1.4732-1.4732 1.4732h-3.8518c-0.81615 0-1.4732-0.65705-1.4732-1.4732v-15.234c0-0.81615 0.65705-1.4732 1.4732-1.4732z" stroke="#fff" stroke-width="2.3812"/></svg>
