<?xml version="1.0" encoding="UTF-8"?>
<!-- Created with Inkscape (http://www.inkscape.org/) -->
<svg width="32" height="32" version="1.1" viewBox="0 0 8.4667 8.4667" xmlns="http://www.w3.org/2000/svg" xmlns:xlink="http://www.w3.org/1999/xlink">
 <defs>
  <linearGradient id="linearGradient4" x1=".35" x2="8.1542" y1="9.3947" y2="3.0346" gradientUnits="userSpaceOnUse">
   <stop stop-color="#48f0fc" offset="0"/>
   <stop stop-color="#32f157" offset="1"/>
  </linearGradient>
  <linearGradient id="linearGradient5" x1=".35" x2="8.1542" y1="9.3947" y2="3.0346" gradientTransform="matrix(.86984 .86984 -.42009 .42009 6.5975 1.7702)" gradientUnits="userSpaceOnUse" xlink:href="#linearGradient7"/>
  <linearGradient id="linearGradient7">
   <stop stop-color="#fc4848" offset="0"/>
   <stop stop-color="#f13288" offset="1"/>
  </linearGradient>
  <linearGradient id="linearGradient1" x1=".35" x2="8.1542" y1="9.3947" y2="3.0346" gradientTransform="matrix(-.86984 -.86984 .42009 -.42009 1.8692 10.034)" gradientUnits="userSpaceOnUse" xlink:href="#linearGradient7"/>
 </defs>
 <g stroke="#000" stroke-linecap="round" stroke-linejoin="round" stroke-miterlimit="2.3">
  <g transform="translate(0 -1.9889)" fill="url(#linearGradient4)" stroke-width=".8">
   <rect x=".6" y="6.6377" width="7.2667" height="2.507" rx=".26458" ry=".26458" style="paint-order:stroke markers fill"/>
   <path d="m6.5435 3.565 1.3232 2.2919h-1.3232zm0 0-1.3232 2.2919h1.3232z" style="paint-order:stroke markers fill"/>
   <rect x=".6" y="3.2999" width="2.557" height="2.557" rx=".26458" ry=".26458" style="paint-order:stroke markers fill"/>
  </g>
  <path d="m5.7234 3.7663c-0.0425-0.00703-0.078331 2.25e-5 -0.10142 0.023113l-0.85155 0.85198c-0.061576 0.061576-0.00864 0.21357 0.11886 0.34108l0.91977 0.92001-0.92001 0.91977c-0.1275 0.1275-0.18039 0.28001-0.11881 0.34159l0.85198 0.85155c0.061576 0.061576 0.21357 0.00864 0.34108-0.11886l1.0312-1.0312 0.64436-0.64375 0.088485-0.088639 0.11908-0.11896c0.024802-0.024802 0.030077-0.065047 0.020306-0.11172 0.00966-0.046507 0.00416-0.086172-0.020572-0.11091l-0.1181-0.11831-8.645e-4 -7.666e-4 -0.73288-0.73297c-2.821e-4 -2.821e-4 -5.788e-4 -4.895e-4 -8.646e-4 -7.667e-4l-1.03-1.0298c-0.079688-0.079688-0.1692-0.1307-0.24003-0.14243z" fill="url(#linearGradient5)" stroke-width=".6839" style="paint-order:stroke markers fill"/>
  <path d="m2.7433 8.0382c0.0425 0.00703 0.078331-2.25e-5 0.10142-0.023113l0.85155-0.85198c0.061576-0.061576 0.00864-0.21357-0.11886-0.34108l-0.91977-0.92001 0.92001-0.91977c0.1275-0.1275 0.18039-0.28001 0.11881-0.34159l-0.85198-0.85155c-0.061576-0.061576-0.21357-0.00864-0.34108 0.11886l-1.0312 1.0312-0.64436 0.64375-0.088485 0.088639-0.11908 0.11896c-0.024802 0.024802-0.030077 0.065047-0.020306 0.11172-0.00966 0.046507-0.00416 0.086172 0.020572 0.11091l0.1181 0.11831 8.645e-4 7.666e-4 0.73288 0.73297c2.821e-4 2.821e-4 5.788e-4 4.895e-4 8.646e-4 7.667e-4l1.03 1.0298c0.079688 0.079688 0.1692 0.1307 0.24003 0.14243z" fill="url(#linearGradient1)" stroke-width=".6839" style="paint-order:stroke markers fill"/>
 </g>
</svg>
