<?xml version="1.0" encoding="UTF-8" standalone="no"?>
<!-- Created with Inkscape (http://www.inkscape.org/) -->

<svg
   width="32"
   height="32"
   viewBox="0 0 8.4666665 8.4666666"
   version="1.1"
   id="svg1"
   inkscape:version="1.3 (0e150ed6c4, 2023-07-21)"
   sodipodi:docname="levelID.svg"
   xml:space="preserve"
   xmlns:inkscape="http://www.inkscape.org/namespaces/inkscape"
   xmlns:sodipodi="http://sodipodi.sourceforge.net/DTD/sodipodi-0.dtd"
   xmlns:xlink="http://www.w3.org/1999/xlink"
   xmlns="http://www.w3.org/2000/svg"
   xmlns:svg="http://www.w3.org/2000/svg"><sodipodi:namedview
     id="namedview1"
     pagecolor="#ffffff"
     bordercolor="#000000"
     borderopacity="0.25"
     inkscape:showpageshadow="2"
     inkscape:pageopacity="0.0"
     inkscape:pagecheckerboard="0"
     inkscape:deskcolor="#d1d1d1"
     inkscape:document-units="mm"
     inkscape:zoom="5.6568543"
     inkscape:cx="-15.733126"
     inkscape:cy="6.8942911"
     inkscape:window-width="1560"
     inkscape:window-height="876"
     inkscape:window-x="40"
     inkscape:window-y="24"
     inkscape:window-maximized="1"
     inkscape:current-layer="layer1" /><defs
     id="defs1"><linearGradient
       id="linearGradient6"
       inkscape:collect="always"><stop
         style="stop-color:#f8eb28;stop-opacity:1;"
         offset="0"
         id="stop6" /><stop
         style="stop-color:#f8b652;stop-opacity:1;"
         offset="1"
         id="stop7" /></linearGradient><linearGradient
       id="a"
       x1="-5.9605e-8"
       x2="32"
       y1="32"
       gradientUnits="userSpaceOnUse"
       gradientTransform="matrix(0.26458333,0,0,0.26458333,2.1510675,1.0753077)"><stop
         stop-color="#6c491d"
         offset="0"
         id="stop1" /><stop
         stop-color="#c59f2f"
         offset="1"
         id="stop2" /></linearGradient><linearGradient
       inkscape:collect="always"
       xlink:href="#linearGradient6"
       id="linearGradient7"
       x1="0.92620043"
       y1="4.2311604"
       x2="7.5401872"
       y2="4.2311604"
       gradientUnits="userSpaceOnUse" /></defs><g
     inkscape:label="Vrstva 1"
     inkscape:groupmode="layer"
     id="layer1"><path
       style="fill:url(#linearGradient7);stroke:#000000;stroke-width:0.80000001;stroke-dasharray:none;paint-order:stroke markers fill;fill-opacity:1"
       d="M 3.6155809,7.0296191 C 3.2972566,6.9796398 2.9291148,6.8002935 2.5932519,6.5316276 2.464276,6.428444 2.0760679,6.0444749 1.9639469,5.9092047 1.701583,5.5926906 1.5096266,5.2267175 1.4415603,4.9132882 1.4335551,4.8764259 1.4267717,4.7834276 1.4264856,4.7066277 1.4258653,4.5404516 1.449988,4.4466063 1.5201444,4.3422388 1.5815242,4.2509248 3.6803916,2.1581395 3.8287635,2.0402784 4.1992098,1.7460825 4.5952684,1.549157 4.9842237,1.4657471 c 0.1562491,-0.033511 0.4893038,-0.037039 0.6382761,-0.00676 0.3481688,0.070763 0.6505821,0.2451372 0.9369875,0.5403469 0.33,0.3401098 0.4807331,0.691025 0.4806999,1.1194138 -6.1e-6,0.3116617 -0.066159,0.5678278 -0.2355309,0.912073 C 6.7148627,4.2133209 6.5816015,4.4254909 6.4592222,4.5807382 6.3677478,4.6968016 6.1285651,4.9410583 5.0534739,6.0163159 4.0933084,6.976614 4.0933418,6.9765806 3.9532072,7.014667 3.8379892,7.0459853 3.6129139,7.0345563 3.6155809,7.0296191 Z"
       id="path2" /><path
       style="stroke:#000000;stroke-width:0;stroke-dasharray:none;paint-order:stroke markers fill"
       d="M 5.8108118,3.3990697 C 5.9782629,3.3505045 6.1362129,3.1995129 6.1955983,3.0312456 6.2815233,2.7877026 6.1992367,2.5067403 5.9975557,2.3549615 5.682216,2.1177052 5.2474253,2.227949 5.0849132,2.5863716 5.0031438,2.7667151 5.0193645,2.9833775 5.12703,3.1488967 5.277653,3.3804501 5.5417977,3.4770868 5.8108282,3.3990564 Z"
       id="path6" /></g></svg>
