<svg width="820" height="462" version="1.1" viewBox="0 0 820 462" xml:space="preserve" xmlns="http://www.w3.org/2000/svg"><g transform="matrix(2.1902 0 0 2.1902 -385.75 -239.5)"><path transform="matrix(1 0 -.28644 .9581 0 0)" d="m370.21 114.14c-2.1106 0-3.8097 0.19027-3.8097 0.42629l-5.7e-4 121.96h-84.714l84.715 97.784 0.06602-0.38906c0.17542 0.21757 1.7509 0.38906 3.7436 0.38906h114.67c2.1106 0 3.8097-0.19026 3.8097-0.42629l5.7e-4 -121.96h84.714l-84.715-97.784-0.06602 0.38906c-0.17542-0.21756-1.7509-0.38906-3.7436-0.38906h-114.67z" fill="#fff"/><g transform="matrix(3.9316 0 0 3.9316 364.01 144.45)" stroke="#fff" stroke-linejoin="round"><path d="m15.965 15.996-2.9993-12.079" fill="#fff" stroke-linecap="round" stroke-width="1.3434"/><path d="m15.965 15.996-8.7076-8.6959" fill="#fff" stroke-linecap="round" stroke-width="1.2016"/><g stroke-width="1.3434"><path d="m12.966 3.9176s-1.7998 4.1801-5.7083 3.3827" fill="none"/><path d="m14.001 8.4371s-0.75544 2.7788-3.2443 2.198" fill="none"/><path d="m15.909 15.954 3.5897-11.917" fill="#fff" stroke-linecap="round"/></g><path d="m15.909 15.954-3.0456-11.923" fill="#fff" stroke-linecap="round" stroke-width="1.2016"/><g stroke-width="1.3434"><path d="m19.499 4.0374s-3.6822 2.6748-6.6353-0.00682" fill="none"/><path d="m18.081 8.4517s-2.0686 2.0033-3.9118 0.23292" fill="none"/><path d="m15.987 15.927 9.1829-8.4002" fill="#fff" stroke-linecap="round"/></g><path d="m15.987 15.927 3.486-11.802" fill="#fff" stroke-linecap="round" stroke-width="1.2016"/><path d="m25.169 7.5267s-4.5323 0.4133-5.6969-3.4019" fill="none" stroke-width="1.3434"/><path d="m21.692 10.593s-2.8025 0.66232-3.4799-1.802" fill="none" stroke-width="1.3434"/><g transform="rotate(-27.554 16.016 16.006)"><path d="m16.016 16.006 12.037 3.1632" fill="#fff" stroke-linecap="round" stroke-width="1.3434"/><path d="m16.016 16.006 8.5768 8.825" fill="#fff" stroke-linecap="round" stroke-width="1.2016"/><path d="m28.052 19.169s-4.2042 1.7429-3.46 5.6618" fill="none" stroke-width="1.3434"/><path d="m23.547 18.072s-2.7888 0.71761-2.2419 3.2141" fill="none" stroke-width="1.3434"/></g><path d="m16.016 16.006-8.7642-8.8362" fill="#fff" stroke-linecap="round" stroke-width="1.3434"/><path d="m16.016 16.006-11.933-3.0066" fill="#fff" stroke-linecap="round" stroke-width="1.2016"/><g stroke-width="1.3434"><path d="m7.2515 7.1694s0.596 4.512-3.1691 5.8296" fill="none"/><path d="m10.456 10.52s0.77496 2.7735-1.66 3.5498" fill="none"/><path d="m15.948 15.989 9.0694-8.5226" fill="#fff" stroke-linecap="round"/></g><path d="m15.948 15.989 12.032-2.5851" fill="#fff" stroke-linecap="round" stroke-width="1.2016"/><path d="m25.018 7.4661s-0.75428 4.4882 2.9621 5.9374" fill="none" stroke-width="1.3434"/><path d="m21.697 10.702s-0.87199 2.7445 1.5342 3.606" fill="none" stroke-width="1.3434"/><g transform="rotate(178.71 15.935 16.285)"><path d="m15.965 15.996-2.9993-12.079" fill="#fff" stroke-linecap="round" stroke-width="1.3434"/><path d="m15.965 15.996-8.7076-8.6959" fill="#fff" stroke-linecap="round" stroke-width="1.2016"/><g stroke-width="1.3434"><path d="m12.966 3.9176s-1.7998 4.1801-5.7083 3.3827" fill="none"/><path d="m14.001 8.4371s-0.75544 2.7788-3.2443 2.198" fill="none"/><path d="m15.909 15.954 3.5897-11.917" fill="#fff" stroke-linecap="round"/></g><path d="m15.909 15.954-3.0456-11.923" fill="#fff" stroke-linecap="round" stroke-width="1.2016"/><g stroke-width="1.3434"><path d="m19.499 4.0374s-3.6822 2.6748-6.6353-0.00682" fill="none"/><path d="m18.081 8.4517s-2.0686 2.0033-3.9118 0.23292" fill="none"/><path d="m15.987 15.927 9.1829-8.4002" fill="#fff" stroke-linecap="round"/></g><path d="m15.987 15.927 3.486-11.802" fill="#fff" stroke-linecap="round" stroke-width="1.2016"/><path d="m25.169 7.5267s-4.5323 0.4133-5.6969-3.4019" fill="none" stroke-width="1.3434"/><path d="m21.692 10.593s-2.8025 0.66232-3.4799-1.802" fill="none" stroke-width="1.3434"/><g transform="rotate(-27.554 16.016 16.006)"><path d="m16.016 16.006 12.037 3.1632" fill="#fff" stroke-linecap="round" stroke-width="1.3434"/><path d="m16.016 16.006 8.5768 8.825" fill="#fff" stroke-linecap="round" stroke-width="1.2016"/><path d="m28.052 19.169s-4.2042 1.7429-3.46 5.6618" fill="none" stroke-width="1.3434"/><path d="m23.547 18.072s-2.7888 0.71761-2.2419 3.2141" fill="none" stroke-width="1.3434"/></g><path d="m16.016 16.006-8.7642-8.8362" fill="#fff" stroke-linecap="round" stroke-width="1.3434"/><path d="m16.016 16.006-11.933-3.0066" fill="#fff" stroke-linecap="round" stroke-width="1.2016"/><g stroke-width="1.3434"><path d="m7.2515 7.1694s0.596 4.512-3.1691 5.8296" fill="none"/><path d="m10.456 10.52s0.77496 2.7735-1.66 3.5498" fill="none"/><path d="m15.948 15.989 9.0694-8.5226" fill="#fff" stroke-linecap="round"/></g><path d="m15.948 15.989 12.032-2.5851" fill="#fff" stroke-linecap="round" stroke-width="1.2016"/><path d="m25.018 7.4661s-0.75428 4.4882 2.9621 5.9374" fill="none" stroke-width="1.3434"/><path d="m21.697 10.702s-0.87199 2.7445 1.5342 3.606" fill="none" stroke-width="1.3434"/></g></g><g transform="matrix(2.5241 0 0 2.5241 264.94 190.95)" stroke="#fff" stroke-linejoin="round"><path d="m15.965 15.996-2.9993-12.079" fill="#fff" stroke-linecap="round" stroke-width="1.3434"/><path d="m15.965 15.996-8.7076-8.6959" fill="#fff" stroke-linecap="round" stroke-width="1.2016"/><g stroke-width="1.3434"><path d="m12.966 3.9176s-1.7998 4.1801-5.7083 3.3827" fill="none"/><path d="m14.001 8.4371s-0.75544 2.7788-3.2443 2.198" fill="none"/><path d="m15.909 15.954 3.5897-11.917" fill="#fff" stroke-linecap="round"/></g><path d="m15.909 15.954-3.0456-11.923" fill="#fff" stroke-linecap="round" stroke-width="1.2016"/><g stroke-width="1.3434"><path d="m19.499 4.0374s-3.6822 2.6748-6.6353-0.00682" fill="none"/><path d="m18.081 8.4517s-2.0686 2.0033-3.9118 0.23292" fill="none"/><path d="m15.987 15.927 9.1829-8.4002" fill="#fff" stroke-linecap="round"/></g><path d="m15.987 15.927 3.486-11.802" fill="#fff" stroke-linecap="round" stroke-width="1.2016"/><path d="m25.169 7.5267s-4.5323 0.4133-5.6969-3.4019" fill="none" stroke-width="1.3434"/><path d="m21.692 10.593s-2.8025 0.66232-3.4799-1.802" fill="none" stroke-width="1.3434"/><g transform="rotate(-27.554 16.016 16.006)"><path d="m16.016 16.006 12.037 3.1632" fill="#fff" stroke-linecap="round" stroke-width="1.3434"/><path d="m16.016 16.006 8.5768 8.825" fill="#fff" stroke-linecap="round" stroke-width="1.2016"/><path d="m28.052 19.169s-4.2042 1.7429-3.46 5.6618" fill="none" stroke-width="1.3434"/><path d="m23.547 18.072s-2.7888 0.71761-2.2419 3.2141" fill="none" stroke-width="1.3434"/></g><path d="m16.016 16.006-8.7642-8.8362" fill="#fff" stroke-linecap="round" stroke-width="1.3434"/><path d="m16.016 16.006-11.933-3.0066" fill="#fff" stroke-linecap="round" stroke-width="1.2016"/><g stroke-width="1.3434"><path d="m7.2515 7.1694s0.596 4.512-3.1691 5.8296" fill="none"/><path d="m10.456 10.52s0.77496 2.7735-1.66 3.5498" fill="none"/><path d="m15.948 15.989 9.0694-8.5226" fill="#fff" stroke-linecap="round"/></g><path d="m15.948 15.989 12.032-2.5851" fill="#fff" stroke-linecap="round" stroke-width="1.2016"/><path d="m25.018 7.4661s-0.75428 4.4882 2.9621 5.9374" fill="none" stroke-width="1.3434"/><path d="m21.697 10.702s-0.87199 2.7445 1.5342 3.606" fill="none" stroke-width="1.3434"/><g transform="rotate(178.71 15.935 16.285)"><path d="m15.965 15.996-2.9993-12.079" fill="#fff" stroke-linecap="round" stroke-width="1.3434"/><path d="m15.965 15.996-8.7076-8.6959" fill="#fff" stroke-linecap="round" stroke-width="1.2016"/><g stroke-width="1.3434"><path d="m12.966 3.9176s-1.7998 4.1801-5.7083 3.3827" fill="none"/><path d="m14.001 8.4371s-0.75544 2.7788-3.2443 2.198" fill="none"/><path d="m15.909 15.954 3.5897-11.917" fill="#fff" stroke-linecap="round"/></g><path d="m15.909 15.954-3.0456-11.923" fill="#fff" stroke-linecap="round" stroke-width="1.2016"/><g stroke-width="1.3434"><path d="m19.499 4.0374s-3.6822 2.6748-6.6353-0.00682" fill="none"/><path d="m18.081 8.4517s-2.0686 2.0033-3.9118 0.23292" fill="none"/><path d="m15.987 15.927 9.1829-8.4002" fill="#fff" stroke-linecap="round"/></g><path d="m15.987 15.927 3.486-11.802" fill="#fff" stroke-linecap="round" stroke-width="1.2016"/><path d="m25.169 7.5267s-4.5323 0.4133-5.6969-3.4019" fill="none" stroke-width="1.3434"/><path d="m21.692 10.593s-2.8025 0.66232-3.4799-1.802" fill="none" stroke-width="1.3434"/><g transform="rotate(-27.554 16.016 16.006)"><path d="m16.016 16.006 12.037 3.1632" fill="#fff" stroke-linecap="round" stroke-width="1.3434"/><path d="m16.016 16.006 8.5768 8.825" fill="#fff" stroke-linecap="round" stroke-width="1.2016"/><path d="m28.052 19.169s-4.2042 1.7429-3.46 5.6618" fill="none" stroke-width="1.3434"/><path d="m23.547 18.072s-2.7888 0.71761-2.2419 3.2141" fill="none" stroke-width="1.3434"/></g><path d="m16.016 16.006-8.7642-8.8362" fill="#fff" stroke-linecap="round" stroke-width="1.3434"/><path d="m16.016 16.006-11.933-3.0066" fill="#fff" stroke-linecap="round" stroke-width="1.2016"/><g stroke-width="1.3434"><path d="m7.2515 7.1694s0.596 4.512-3.1691 5.8296" fill="none"/><path d="m10.456 10.52s0.77496 2.7735-1.66 3.5498" fill="none"/><path d="m15.948 15.989 9.0694-8.5226" fill="#fff" stroke-linecap="round"/></g><path d="m15.948 15.989 12.032-2.5851" fill="#fff" stroke-linecap="round" stroke-width="1.2016"/><path d="m25.018 7.4661s-0.75428 4.4882 2.9621 5.9374" fill="none" stroke-width="1.3434"/><path d="m21.697 10.702s-0.87199 2.7445 1.5342 3.606" fill="none" stroke-width="1.3434"/></g></g></g></svg>
