<svg width="717.12" height="462" version="1.1" viewBox="0 0 717.12 462" xml:space="preserve" xmlns="http://www.w3.org/2000/svg"><g transform="translate(-53.703)" fill="#fff"><path transform="matrix(1 0 -.28644 .9581 0 0)" d="m353.48 0c-4.6226-1.545e-16 -8.3439 0.41671-8.3439 0.93365l0.0011 480.34c0 0.51694 3.721 0.93365 8.3436 0.93365h251.16c4.6226 0 8.3439-0.41671 8.3439-0.93365l8.5e-4 -480.34c0-0.51694-3.7229-0.93365-8.3456-0.93365h-68.404l-26.131 52.531 29.301-19.103-35.161 113.66 41.113-25.788-69.82 184.34 7.1683-125.12-41.754 26.744 17.604-127.03-30.208 9.5506 5.4416-89.78h-80.311z"/><path d="m177.9 462-124.19-205.19 185.7-0.52385-61.502 205.71"/><path d="m646.63 0 124.19 205.19h-188.51l64.312-205.19"/></g></svg>
