<?xml version="1.0" encoding="UTF-8"?>
<!-- Created with Inkscape (http://www.inkscape.org/) -->
<svg width="32" height="32" version="1.1" viewBox="0 0 8.4667 8.4667" xmlns="http://www.w3.org/2000/svg">
 <path d="m2.3254 0.36596c-0.35486-0.002463-0.60697 0.28729-0.64057 0.64057l-0.40812 4.2914c-0.033597 0.35328 0.28569 0.64057 0.64057 0.64057h4.6328c0.35487 0 0.66883-0.28682 0.64057-0.64057l-0.34078-4.2645c-0.028268-0.35375-0.2857-0.6381-0.64057-0.64057zm1.9083 0.61588c0.67482-4.581e-5 1.2219 0.40694 1.2217 0.90893 1.578e-4 0.50199-0.54688 0.90898-1.2217 0.90893-0.67482 4.58e-5 -1.2219-0.40694-1.2217-0.90893-1.579e-4 -0.50199 0.54688-0.90898 1.2217-0.90893z" fill="#fff" fill-rule="evenodd" stroke-width="0"/>
 <path d="m1.6395 5.359 0.28252 1.7557 4.9067 0.029192" fill="none" stroke="#fff" stroke-linecap="round" stroke-linejoin="round" stroke-width=".72631"/>
 <path d="m2.5578 6.336h3.551" fill="none" stroke="#fff" stroke-linecap="round" stroke-linejoin="round" stroke-width=".46484"/>
 <path d="m2.8964 6.336v2.1307l0.56705-0.56705 0.56705 0.56705v-2.1307z" fill="#fff" fill-rule="evenodd"/>
</svg>
