<svg width="820" height="462" version="1.1" viewBox="0 0 820 462" xml:space="preserve" xmlns="http://www.w3.org/2000/svg"><g transform="matrix(2.1902 0 0 2.1902 -385.75 -239.5)"><path d="m337.52 109.36c-6.747-0.79239-5.0882 8.3935-7.5707 12.58-8.011 26.795-16.022 53.59-24.033 80.386-6.7706-2.1256-8.946-4.1073-15.033 3.4798-10.959 1.3468-10.77 12.953-16.054 19.39-0.5853 3.0744-9.1468 0.65172-13.074 1.4226h-47.815c18.902 31.229 37.804 62.458 56.706 93.687 17.021-6e-3 35.515 5e-3 53.13 0 22.704-0.0775 45.323 0.15636 68.081-0.11941 3.3548-2.8239 3.1288-9.0093 5.0526-13.177 5.1691-17.29 10.338-34.58 15.507-51.87 6.1154 6.454 17.586-9.8534 24.819-1.7318 9.1092 5.0792 11.402-18.155 24.656-13.723 4.7702-7.616-0.47978-18.133 11.316-25.007-1.411-6.5909-7.9663-13.959 4.266-11.631h35.232c-18.902-31.229-37.804-62.457-56.706-93.686-17.021 6e-3 -35.515-5e-3 -53.13 0h-65.349zm99.406 93.686c4.6259-1.3084 16.049 1.4557 6.3158 2.8643-0.91165-1.0973-14.455-1.5235-6.3158-2.8643zm15.659 0c5.8048 0.22077 14.144-2.0649 11.72 6.1727-5.226 0.37625-11.348-0.97572-11.72-6.1727zm-148.34 2.5433c2.2458 4.4745-5.7336 8.8601-2.2597 0.24526l2.2597-0.24524zm-7.3436 0.22561c8.7854 7.117-12.617 14.292-5.7692 3.9693 1.9989-1.1009 4.6981-1.6822 5.7692-3.9693zm136.66 4.9608c4.8644-0.43923 17.375 2.0988 8.9534 7.6165-3.9009-1.5688-5.6545-5.4049-8.9534-7.6165zm23.17 2.7609c12.211-0.87305 1.9908 9.4958 0.9705 15.982-7.1311-0.27558-13.539-13.689-0.9705-15.982zm-170.97 0.84628c10.97 1.2604-3.4826 17.15-4.1279 6.657 2.7285-1.434 1.4904-5.5305 4.1279-6.657zm144.74 1.5017c4.5495 0.7388 12.369 12.081 3.2727 9.9019-1.842-2.9121-1.6613-6.8674-3.2727-9.9019zm-130.72 1.1602c3.8984 4.5963-4.2824 9.221-1.986 1.3058zm125.99 3.089c5.3807 2.3241 0.8428 14.392-2.7529 9.4954 1.1273-2.7776-0.68047-7.6329 2.7529-9.4954zm-132.33 1.8334c11.951 4.8114-5.7567 8.0677 0 0zm-12.622 4.4713c5.5216 0.34755-4.9462 0.21889 0 0zm163.53 2.5201c8.7488 0.18869 11.03 7.6156 1.2761 11.446-7.406 11.255-11.737-12.833-1.2761-11.446zm-16.568 6.3654c9.0863 2.1661 9.3537 14.377-3.1499 11.673-10.08 7.5056-4.0158-12.929 3.1499-11.673z" fill="#fff" stroke-width=".97883"/></g></svg>
