<?xml version="1.0" encoding="UTF-8"?>
<svg width="32" height="32" version="1.1" viewBox="0 0 32 32" xmlns="http://www.w3.org/2000/svg">
 <path d="m17.504-0.068359c-2.19 0-4 1.81-4 4v7.7617h4.9531a1.8502 1.8502 0 0 0 0.001953 0c1.1413 9.16e-4 2.2365 0.45612 3.043 1.2637 0.80633 0.80629 1.2608 1.9006 1.2617 3.041a1.8502 1.8502 0 0 0 0 0.001953 1.8502 1.8502 0 0 0 0 0.001953c-9.15e-4 1.1404-0.45539 2.2347-1.2617 3.041l-0.001953 0.001953c-0.80629 0.80633-1.9007 1.2607-3.041 1.2617a1.8502 1.8502 0 0 0-0.001953 0h-4.9531v7.7617c0 2.19 1.81 4 4 4h10.496c2.19 0 4-1.81 4-4v-24.137c0-2.19-1.81-4-4-4h-10.496zm-4 15.461v1.2148h4.9512c0.16159-1.3e-4 0.3155-0.0634 0.42969-0.17773a1.8502 1.8502 0 0 0 0.001953-0.001954c0.11389-0.11374 0.17712-0.26684 0.17773-0.42773-6.19e-4 -0.16089-0.063843-0.314-0.17773-0.42773a1.8502 1.8502 0 0 0-0.001953-0.001954c-0.11374-0.11389-0.26684-0.17712-0.42774-0.17773h-4.9531z" color="#000000" fill="#fff" stroke-linecap="round" stroke-linejoin="round" style="-inkscape-stroke:none"/>
 <path d="m9.3945 6.8457a2.4569 2.4569 0 0 0-1.9668 0.70898l-6.709 6.709a2.4567 2.4567 0 0 0 0 3.4727l6.709 6.709a2.4569 2.4569 0 0 0 4.1953-1.7051l0.05469-4.2832h6.7793a2.4567 2.4567 0 0 0 1.7363-0.7207 2.4567 2.4567 0 0 0 0.7207-1.7363 2.4567 2.4567 0 0 0-0.7207-1.7363 2.4567 2.4567 0 0 0-1.7363-0.7207h-6.7793l-0.054687-4.2832a2.4569 2.4569 0 0 0-1.5312-2.2441 2.4569 2.4569 0 0 0-0.69727-0.16992z" color="#000000" fill="#fff" fill-rule="evenodd" stroke-linecap="round" stroke-linejoin="round" style="-inkscape-stroke:none;paint-order:stroke markers fill"/>
</svg>
