<svg width="32" height="32" version="1.1" viewBox="0 0 32 32" xml:space="preserve" xmlns="http://www.w3.org/2000/svg" xmlns:xlink="http://www.w3.org/1999/xlink"><defs><linearGradient id="linearGradient8133"><stop stop-color="#26a5ac" offset="0"/><stop stop-color="#1b1b24" offset="1"/></linearGradient><linearGradient id="linearGradient871" x1="4.4448" x2="26.64" y1="27.067" y2="4.0503" gradientTransform="matrix(.872 0 0 .872 2.048 2.048)" gradientUnits="userSpaceOnUse" xlink:href="#linearGradient8133"/><linearGradient id="linearGradient1403" x1="-5.7907" x2="37.791" y1="16" y2="16" gradientUnits="userSpaceOnUse" xlink:href="#linearGradient8133"/><linearGradient id="linearGradient13811" x1="10.526" x2="21.243" y1="11.607" y2="20.592" gradientTransform="matrix(1.1972 0 0 1.1972 -3.1558 -3.1558)" gradientUnits="userSpaceOnUse"><stop stop-color="#c96317" offset="0"/><stop stop-color="#f8ff51" offset="1"/></linearGradient></defs><circle cx="16" cy="16" r="13.952" fill="url(#linearGradient871)" stroke="url(#linearGradient1403)" stroke-linecap="round" stroke-linejoin="round" stroke-width="1.2"/><circle cx="16" cy="16" r="6.9854" fill="#f2cc28" stroke="url(#linearGradient13811)" stroke-linecap="round" stroke-linejoin="round" stroke-miterlimit="2.3" stroke-width="2.8722" style="paint-order:stroke fill markers"/><path transform="matrix(1.332 -.077367 .077367 1.332 -6.5493 -4.0735)" d="m19.882 14.96c0.02763 0.10311-1.9676 1.6605-2.0058 1.7602-0.03825 0.09965 0.40237 2.5921 0.31284 2.6502-0.08952 0.05814-2.1872-1.3581-2.2938-1.3637-0.1066-0.0056-2.3409 1.1837-2.4238 1.1165-0.08296-0.06718 0.61578-2.4999 0.58815-2.603-0.02763-0.10311-1.8491-1.8605-1.8109-1.9602 0.03825-0.09966 2.5678-0.18687 2.6573-0.245 0.08952-0.05814 1.1981-2.3335 1.3047-2.328 0.1066 0.0056 0.97122 2.3844 1.0542 2.4516 0.08296 0.06718 2.5896 0.41832 2.6172 0.52143z" fill="#922a00" fill-opacity=".63793" style="paint-order:stroke fill markers"/></svg>
