<?xml version="1.0" encoding="UTF-8"?>
<svg width="32" height="32" version="1.1" viewBox="0 0 32 32" xmlns="http://www.w3.org/2000/svg">
 <g fill="#fff" stroke="#000" stroke-linecap="round" stroke-linejoin="round">
  <path d="m11.362 20.386c-0.92094 0.2194-1.4261 1.4105-0.89534 2.2118 1.4441 2.5029 2.8441 5.0332 4.3453 7.5019 0.53349 0.85082 1.9125 0.81713 2.4199-0.03792 1.4925-2.5535 2.9731-5.1148 4.4164-7.6964 0.44809-1.0164-0.56792-2.2309-1.638-2.0085l-8.6483 0.02933z" stroke-miterlimit="2.3" stroke-width="2.5" style="paint-order:stroke markers fill"/>
  <path d="m20.638 11.614c0.92094-0.2194 1.4261-1.4105 0.89534-2.2118-1.4441-2.5029-2.8441-5.0332-4.3453-7.5019-0.53349-0.85082-1.9125-0.81713-2.4199 0.03792-1.4925 2.5535-2.9731 5.1148-4.4164 7.6964-0.44809 1.0164 0.56792 2.2309 1.638 2.0085l8.6483-0.02933z" stroke-miterlimit="2.3" stroke-width="2.5" style="paint-order:stroke markers fill"/>
  <rect x="3.4058" y="13.751" width="25.188" height="4.4979" rx="1.4222" ry="1.4222" fill-rule="evenodd" stroke-width="1.5"/>
 </g>
</svg>
