<svg width="110.68" height="103.25" version="1.1" viewBox="0 0 29.284 27.318" xmlns="http://www.w3.org/2000/svg">
 <g transform="translate(-1.233 -2.9196)" stroke-linecap="round">
  <path d="m15.875 4.8935a14.642 10.982 0 0 0-14.642 10.981 14.642 10.982 0 0 0 2.143 5.7077c-0.58699 1.5451-1.2514 3.285-2.1063 4.8695 0 0 3.3334-0.44547 5.4653-2.0066a14.642 10.982 0 0 0 4.317 1.7937l9.7601-20.698a14.642 10.982 0 0 0-4.9372-0.64751zm7.768 1.6774-9.524 20.201a14.642 10.982 0 0 0 1.756 0.08475 14.642 10.982 0 0 0 14.642-10.982 14.642 10.982 0 0 0-6.874-9.3038z" fill="#fff" stroke-width="1.8815"/>
  <path d="m11.494 30.238 10.763-22.826" color="#000000" fill="#f00" stroke-linejoin="round" stroke-miterlimit="2" stroke-width="3" style="-inkscape-stroke:none"/>
  <path d="m9.2033 27.246 10.763-22.826" fill="#fff" stroke="#fff" stroke-linejoin="round" stroke-miterlimit="2" stroke-width="3"/>
 </g>
</svg>
