<svg width="100%" height="100%" fill="white" version="1.1" viewBox="0 0 20 20" xmlns="http://www.w3.org/2000/svg" xmlns:xlink="http://www.w3.org/1999/xlink"><defs><linearGradient id="linearGradient4" x1="9.8172" x2="16.456" y1="30.175" y2="19.994" gradientTransform="matrix(.63928 0 0 .64405 -.85054 .02216)" gradientUnits="userSpaceOnUse"><stop stop-color="white" offset="0"/><stop stop-color="white" stop-opacity=".28328" offset="1"/></linearGradient></defs><path d="m7.4019 12.164a3.8888 3.9179 0 0 0-3.8894 3.9172 3.8888 3.9179 0 0 0 3.8894 3.9184 3.8888 3.9179 0 0 0 3.8881-3.9184 3.8888 3.9179 0 0 0-3.8881-3.9172z" fill="url(#linearGradient4)" fill-rule="evenodd" stroke-linecap="round" stroke-linejoin="round" stroke-width="1.503"/><path d="m12.103 3.3712e-4c-5.2888 0.055404-8.2204 6.9185-9.2109 8.6469-0.014049 0.02451-0.026021 0.04947-0.03621 0.07548a10.242 2.2705 30.204 0 0-2.7844 0.065407 10.242 2.2705 30.204 0 0 7.7238 7.1186 10.242 2.2705 30.204 0 0 9.9813 3.18 10.242 2.2705 30.204 0 0-1.4359-2.5599c0.0092-0.0133 0.01811-0.0274 0.02622-0.0415 1.2192-2.1274 7.6556-10.707-0.221-15.289-1.4768-0.85904-2.8225-1.2091-4.043-1.1963z" fill-rule="evenodd" stroke-linecap="round" stroke-linejoin="round" style="paint-order:stroke markers fill"/></svg>
