<svg version="1.1" viewBox="0 0 20 20" xmlns="http://www.w3.org/2000/svg"><path d="m11.828 1.3027v0.0019531c-4.5993 0.048181-7.1484 6.0164-8.0098 7.5195-0.012217 0.021315-0.022389 0.041834-0.03125 0.064453a8.9068 1.9745 30.204 0 0-2.4219 0.056641 8.9068 1.9745 30.204 0 0 6.7168 6.1914 8.9068 1.9745 30.204 0 0 8.6816 2.7656 8.9068 1.9745 30.204 0 0-1.25-2.2266c8e-3 -0.01157 0.016387-0.022896 0.023437-0.035156 1.0603-1.8501 6.6584-9.3122-0.19141-13.297-1.2843-0.74706-2.4562-1.0521-3.5176-1.041zm-6.1621 12.375a3.1409 3.1116 0 0 0-1.3984 3.707 3.1409 3.1116 0 0 0 3.4062 2.0684 3.1409 3.1116 0 0 0 2.6992-2.918l-4.707-2.8574z" stroke="#f9f9f9" style="paint-order:stroke markers fill"/></svg>
