<svg width="32" height="32" version="1.1" viewBox="0 0 32 32" xmlns="http://www.w3.org/2000/svg"><g stroke="#fff" stroke-linecap="round" stroke-linejoin="round"><path d="m16 1.709a14.29 14.29 0 0 0-14.291 14.291 14.29 14.29 0 0 0 4.2129 10.078 14.29 14.29 0 0 0 10.078 4.2129 14.29 14.29 0 0 0 14.291-14.291 14.29 14.29 0 0 0-4.1855-10.105 14.29 14.29 0 0 0-10.105-4.1855z" fill="none" stroke-width="3.4191" style="paint-order:stroke markers fill"/><path d="m25.808 8.0016c-1.2192 1.0753-2.3191 2.2982-3.4921 3.4307-4.7367 4.7378-9.4734 9.4757-14.21 14.213-0.38344 0.44918 0.12977 0.88148 0.5269 1.0609 2.3105 1.5698 5.1145 2.482 7.9229 2.2794 3.2292-0.05957 6.3727-1.5155 8.6541-3.7751 2.0692-2.0817 3.4321-4.8822 3.7446-7.8029 0.07825-1.879 0.07855-3.8152-0.62216-5.5928-0.48012-1.2997-1.064-2.595-1.9607-3.6644-0.18046-0.15659-0.32904-0.19556-0.56339-0.14923z" fill="#fff" fill-rule="evenodd" stroke-width="1.75" style="paint-order:stroke markers fill"/></g></svg>
