<svg width="32" height="32" version="1.1" viewBox="0 0 32 32" xmlns="http://www.w3.org/2000/svg"><path d="m14.113 2v9.2539c-6.25e-4 0.4856-0.39527 0.87849-0.88086 0.87695l-9.2324-0.017578v15.887c0 1.108 0.892 2 2 2h20c1.108 0 2-0.892 2-2v-24c0-1.108-0.892-2-2-2zm-2.4649 1.586-6.0643 6.0643a0.41544 0.41544 67.56 0 0 0.29289 0.7092l5.4785 0.01145a0.99791 0.99791 135.06 0 0 1-0.99791v-5.4941a0.41421 0.41421 22.5 0 0-0.70711-0.29289z" fill="#fff" fill-rule="evenodd" stroke-linecap="round" stroke-linejoin="round" stroke-width=".756" style="paint-order:stroke markers fill"/></svg>
