<svg width="16mm" height="16mm" version="1.1" viewBox="0 0 16 16" xmlns="http://www.w3.org/2000/svg"><path d="m6.7918 0c-0.43857 0-0.79168 0.37779-0.79168 0.84698v5.1532h-5.0348c-0.52869 0-0.95395 0.37526-0.95395 0.84181v2.3161c0 0.46655 0.42526 0.84181 0.95395 0.84181h5.0348v5.1532c0 0.46919 0.35311 0.84698 0.79168 0.84698h2.4164c0.43857 0 0.79168-0.37779 0.79168-0.84698v-5.1532h5.0571c0.52869 0 0.95446-0.37526 0.95446-0.84181v-2.3161c0-0.46655-0.42578-0.84181-0.95446-0.84181h-5.0571v-5.1532c0-0.46919-0.35311-0.84698-0.79168-0.84698h-2.4164z" fill="#fff" fill-rule="evenodd"/></svg>
