<svg width="32" height="32" enable-background="new -194 -104 1000 1000" version="1.1" viewBox="-194 -104 32 32" xml:space="preserve" xmlns="http://www.w3.org/2000/svg">
<g transform="matrix(.032 0 0 .032 -187.79 -100.67)" stroke-width="31.25">
		<path d="m306-104a500 500 0 0 0-500 500 500 500 0 0 0 500 500 500 500 0 0 0 500-500 500 500 0 0 0-500-500zm208.8 197.63c28.654 0 52.002 23.409 52.002 52.063 0 28.655-23.348 52.063-52.002 52.063-28.071 0-50.895-22.199-52.063-49.683l-108.22-22.827-33.325 156.13c76.021 2.923 145.06 26.339 194.76 62.012 12.867-12.864 30.413-20.508 50.293-20.508 40.355 0 73.059 32.769 73.059 73.12 0 29.824-18.139 55.567-42.114 67.261 1.171 7.018 1.77 14.005 1.77 21.606 0 112.28-130.41 202.94-291.81 202.94-161.4 0-291.81-90.662-291.81-202.94 0-7.601 0.60002-15.2 1.77-22.217-25.731-11.696-43.274-36.825-43.274-66.65 0-40.35 32.708-73.12 73.059-73.12 19.297 0 37.426 8.2258 50.293 20.508 50.292-36.842 119.91-59.673 197.69-62.012l36.865-174.26c1.17-3.509 2.8743-6.4247 5.7983-8.1787 2.924-1.754 6.4397-2.355 9.9487-1.77l121.09 25.757c8.187-17.544 25.733-29.297 46.204-29.297zm-323.43 302.37c-28.654 0-52.063 23.409-52.063 52.063s23.409 52.002 52.063 52.002 52.063-23.348 52.063-52.002-23.408-52.063-52.063-52.063zm229.25 0c-28.655 0-52.063 23.409-52.063 52.063s23.408 52.002 52.063 52.002c28.657 0 52.063-23.348 52.063-52.002s-23.406-52.063-52.063-52.063zm-237.43 170.17c-5.263 5.263-5.263 14.024 0 19.287 35.088 35.088 103.53 38.025 123.41 38.025 19.884 0 87.681-2.3499 123.35-38.025 5.262-5.263 5.2507-13.441 1.1597-19.287-5.263-5.263-14.024-5.263-19.287 0-22.805 22.221-70.174 30.396-104.68 30.396-34.504 0-82.452-8.1735-104.68-30.396-5.262-5.263-14.022-5.263-19.287 0z" fill="#fff" stroke-width="976.56"/>
		
	</g>

</svg>
