<?xml version="1.0" encoding="UTF-8"?>
<!-- Created with Inkscape (http://www.inkscape.org/) -->
<svg width="32" height="32" version="1.1" viewBox="0 0 32 32" xmlns="http://www.w3.org/2000/svg">
 <path d="m27.249 0.21682c-0.60164 0.0026-1.8748 0.1693-2.6099 0.20813-0.93979 0.049634-3.0782 0.070199-3.0803 0.30803l0.027057 7.4198-4.2812-6.5102c-0.25911-0.39408-1.4063 0.28041-2.612 0.74718-2.5445 0.98508-7.4905 4.0923-7.1159 4.5205l5.2094 6.1377-7.7236-2.4726c-1.5959 2.4262-2.9667 8.811-1.5714 15.622l-3.5423 3.5423 2.2603 2.2603 5.9358-5.9358 18.086-17.585 2.2603 2.2603-18.698 18.18c4.8452 0.42531 8.7367-0.39607 11.793-2.0792 4.0433-2.227 6.5034-5.8708 7.9609-9.5905 2.8645-7.3106 2.1085-15.167 2.0813-15.439-9.9e-5 -9.913e-4 8e-5 -0.00962 0-0.010406-3.31e-4 -0.00419-0.0017-0.0083-0.0021-0.012488-1.44e-4 -0.00141-0.0021-0.027057-0.0021-0.027057h-0.0021c-0.073571-0.70917-0.61202-1.3574-1.4381-1.4361 0 0-1.1297-0.11602-2.9346-0.10823z" color="#000000" fill="#fff" fill-rule="evenodd" stroke-linejoin="round" stroke-width="1.0656" style="-inkscape-stroke:none"/>
</svg>
