<svg id="b" width="32px" height="32px" version="1.1" viewBox="0 0 32 32" xmlns="http://www.w3.org/2000/svg" xmlns:xlink="http://www.w3.org/1999/xlink">
 <defs>
  <linearGradient id="a" x2="27" y1="32" y2="5" gradientUnits="userSpaceOnUse">
   <stop stop-color="#d156ea" offset="0"/>
   <stop stop-color="#895dad" offset="1"/>
  </linearGradient>
 </defs>
 <path d="m2.75 0c-0.090775 0-0.17741 0.015634-0.25781 0.044922-1.4176 0.24059-2.4922 1.4668-2.4922 2.9551v26c0 1.662 1.338 3 3 3h26c1.662 0 3-1.338 3-3v-19l-10-10h-17.75-1.25-0.25zm5.75 1h2 9c0.83099 0 1.5 0.66901 1.5 1.5v5c0 0.83099-0.66901 1.5-1.5 1.5h-9-2c-0.831 0-1.5-0.669-1.5-1.5v-5c0-0.831 0.669-1.5 1.5-1.5zm8.25 1c-0.4155 0-0.75 0.3345-0.75 0.75v4.5c0 0.4155 0.3345 0.75 0.75 0.75h2.5c0.4155 0 0.75-0.3345 0.75-0.75v-4.5c0-0.4155-0.3345-0.75-0.75-0.75h-2.5zm-8.25 11h15c0.831 0 1.5 0.669 1.5 1.5v12c0 0.831-0.669 1.5-1.5 1.5h-15c-0.831 0-1.5-0.669-1.5-1.5v-12c0-0.831 0.669-1.5 1.5-1.5z" fill="url(#a)"/>
</svg>
