<svg id="b" width="32px" height="32px" version="1.1" viewBox="0 0 32 32" xmlns="http://www.w3.org/2000/svg" xmlns:xlink="http://www.w3.org/1999/xlink">
 <defs>
  <linearGradient id="a" x1="10.483" x2="47.276" y1="24.104" y2="5.5531" gradientTransform="matrix(.92583 0 0 1.4132 -6.2219 -5.1317)" gradientUnits="userSpaceOnUse">
   <stop stop-color="#d156ea" offset="0"/>
   <stop stop-color="#895dad" offset="1"/>
  </linearGradient>
 </defs>
 <g transform="matrix(.93945 0 0 .93945 -3.2734 .97582)" stroke-width="1.0644">
  <path d="m10.395 2.716c-0.25645 0-0.46362 0.20717-0.46362 0.46362v15.622l-2.9771-2.9751c-0.18134-0.18134-0.47355-0.18134-0.65489 0l-2.6798 2.6778c-0.18134 0.18134-0.18134 0.47563 0 0.65697l6.343 6.4304c0.35958 0.44894 1.3116 1.2379 2.3243 1.2412 1.0128-0.0034 1.9638-0.79223 2.3243-1.2412 0.0426-0.02164 6.343-6.4304 6.343-6.4304 0.18134-0.18134 0.18134-0.47563 0-0.65697l-2.6778-2.6778c-0.18134-0.18134-0.47355-0.18134-0.65489 0l-2.9771 2.9751v-15.622c0-0.25645-0.20509-0.46362-0.46154-0.46362h-3.788zm18.349 2.684c-1.0128 0.0034-1.9638 0.79223-2.3243 1.2412-0.0426 0.02164-6.343 6.4304-6.343 6.4304-0.18134 0.18134-0.18134 0.47563 0 0.65697l2.6778 2.6778c0.18134 0.18134 0.47355 0.18134 0.65489 0l2.9771-2.9751v15.04c0 0.25645 0.20509 0.46154 0.46154 0.46154h3.788c0.25645 0 0.46362-0.20509 0.46362-0.46154v-15.04l2.9771 2.9751c0.18134 0.18134 0.47355 0.18134 0.65489 0l2.6798-2.6778c0.18134-0.18134 0.18134-0.47562 0-0.65697l-6.343-6.4304c-0.35958-0.44894-1.3116-1.2379-2.3243-1.2412z" fill="url(#a)" style="paint-order:stroke markers fill"/>
 </g>
</svg>
