<?xml version="1.0" encoding="UTF-8"?>
<!-- Created with Inkscape (http://www.inkscape.org/) -->
<svg width="32" height="32" version="1.1" viewBox="0 0 8.4667 8.4667" xmlns="http://www.w3.org/2000/svg">
 <g fill="#fff" fill-rule="evenodd" stroke="#fff" stroke-linecap="round" stroke-linejoin="round" stroke-width=".39688">
  <path transform="matrix(.74756 0 0 .74756 2.3025 2.5627)" d="m3.9289 5.007c-0.16043 0-0.99316-2.8983-1.1066-3.0117-0.11344-0.11344-3.0117-0.94617-3.0117-1.1066 0-0.16043 2.8983-0.99316 3.0117-1.1066 0.11344-0.11344 0.94617-3.0117 1.1066-3.0117s0.99316 2.8983 1.1066 3.0117c0.11344 0.11344 3.0117 0.94617 3.0117 1.1066 0 0.16043-2.8983 0.99316-3.0117 1.1066s-0.94617 3.0117-1.1066 3.0117z" style="paint-order:stroke markers fill"/>
  <path transform="matrix(.42 0 0 .42 .16293 6.2804)" d="m3.9289 5.007c-0.16043 0-0.99316-2.8983-1.1066-3.0117-0.11344-0.11344-3.0117-0.94617-3.0117-1.1066 0-0.16043 2.8983-0.99316 3.0117-1.1066 0.11344-0.11344 0.94617-3.0117 1.1066-3.0117s0.99316 2.8983 1.1066 3.0117c0.11344 0.11344 3.0117 0.94617 3.0117 1.1066 0 0.16043-2.8983 0.99316-3.0117 1.1066s-0.94617 3.0117-1.1066 3.0117z" style="paint-order:stroke markers fill"/>
 </g>
</svg>
