<svg width="16" height="16" version="1.1" viewBox="0 0 16 16" xmlns="http://www.w3.org/2000/svg"><defs><linearGradient id="linearGradient2" x1=".76667" x2="15.161" y1="7.3152" y2="7.3152" gradientTransform="matrix(1.1116 0 0 1.1116 -.85238 -.13163)" gradientUnits="userSpaceOnUse"><stop stop-color="#fffc40" offset="0"/><stop stop-color="#ffd634" offset="1"/></linearGradient></defs><path d="m15.998 6.0372c0.09044 0.26424-3.8564 3.694-3.9384 3.9609-0.08215 0.26693 1.2534 5.3223 1.0301 5.4899-0.22336 0.16767-4.7049-2.5261-4.9841-2.5217-0.27926 0.004363-4.6744 2.8368-4.903 2.6762-0.22848-0.1606 0.94857-5.2552 0.85812-5.5195-0.090444-0.26424-4.1424-3.569-4.0603-3.8359 0.082148-0.2669 5.2911-0.72181 5.5145-0.88949 0.22336-0.16767 2.1143-5.0426 2.3935-5.0469 0.27926-0.004363 2.3215 4.8091 2.55 4.9697 0.22848 0.16062 5.4491 0.45252 5.5396 0.71676z" fill="url(#linearGradient2)" fill-rule="evenodd" filter="url(#filter41)" stroke-width="1.1116" style="paint-order:stroke markers fill"/></svg>
