<svg id="b" width="32px" height="32px" version="1.1" viewBox="0 0 32 32" xmlns="http://www.w3.org/2000/svg">
 <path d="m2.75 0c-0.090775 0-0.17741 0.015634-0.25781 0.044922-1.4176 0.24059-2.4922 1.4668-2.4922 2.9551v26c0 1.662 1.338 3 3 3h26c1.662 0 3-1.338 3-3l1e-5 -21-7-8-20.75 2.2e-5h-1.5zm5.75 1h11c0.83099 0 1.5 0.66901 1.5 1.5v5c0 0.83099-0.66901 1.5-1.5 1.5h-11c-0.831 0-1.5-0.669-1.5-1.5v-5c0-0.831 0.669-1.5 1.5-1.5zm8.25 1c-0.4155 0-0.75 0.3345-0.75 0.75v4.5c0 0.4155 0.3345 0.75 0.75 0.75h2.5c0.4155 0 0.75-0.3345 0.75-0.75v-4.5c0-0.4155-0.3345-0.75-0.75-0.75zm-8.25 11h15c0.831 0 1.5 0.669 1.5 1.5v12c0 0.831-0.669 1.5-1.5 1.5h-15c-0.831 0-1.5-0.669-1.5-1.5v-12c0-0.831 0.669-1.5 1.5-1.5z" fill="#fff"/>
</svg>
