<svg width="32" height="32" version="1.1" viewBox="0 0 32 32" xml:space="preserve" xmlns="http://www.w3.org/2000/svg"><defs><linearGradient id="a" x1="-5.9605e-8" x2="32" y1="32" gradientUnits="userSpaceOnUse"><stop stop-color="#6c491d" offset="0"/><stop stop-color="#c59f2f" offset="1"/></linearGradient></defs><g stroke="#000"><rect x=".75" y=".75" width="30.5" height="30.5" rx="3" ry="3" fill="url(#a)" stroke-linecap="round" stroke-linejoin="round" stroke-miterlimit="2" stroke-width="1.5"/><path d="m14.271 24.26c-0.95451-0.14986-2.0584-0.68762-3.0655-1.4932-0.38674-0.30939-1.5508-1.4607-1.887-1.8663-0.78671-0.94905-1.3623-2.0464-1.5664-2.9862-0.024004-0.11053-0.044344-0.38938-0.045202-0.61966-0.00186-0.49827 0.070473-0.77966 0.28084-1.0926 0.18405-0.2738 6.4776-6.5489 6.9225-6.9023 1.1108-0.88213 2.2984-1.4726 3.4647-1.7227 0.46852-0.10048 1.4672-0.11106 1.9139-0.020273 1.044 0.21218 1.9508 0.73503 2.8096 1.6202 0.98952 1.0198 1.4415 2.072 1.4414 3.3565-1.8e-5 0.9345-0.19838 1.7026-0.70625 2.7348-0.26925 0.54722-0.66884 1.1834-1.0358 1.6489-0.27429 0.34801-0.99149 1.0804-4.2152 4.3045-2.8791 2.8794-2.879 2.8793-3.2992 2.9935-0.22696 0.06169-0.7564 0.08524-1.0125 0.04504zm6.5825-10.886c0.50211-0.14562 0.97573-0.59836 1.1538-1.1029 0.25765-0.73025 0.01091-1.5727-0.59384-2.0278-0.94556-0.7114-2.2493-0.38084-2.7366 0.69387-0.24519 0.54075-0.19655 1.1904 0.12629 1.6867 0.45165 0.6943 1.2437 0.98406 2.0504 0.75009z" fill="#fff" stroke-width="3" style="paint-order:stroke markers fill"/></g></svg>
