<svg width="32" height="32" version="1.1" viewBox="0 0 32 32" xmlns="http://www.w3.org/2000/svg"><path d="m15.979 0.25781c-1.6248 0.008514-2.9343 1.3322-2.9258 2.957 0.0085 1.6248 1.3322 2.9343 2.957 2.9258 1.6248-0.00851 2.9343-1.3322 2.9258-2.957-0.0085-1.6248-1.3323-2.9343-2.957-2.9258zm-11.561 2.7324c-0.63996 0.027929-1.2689 0.29877-1.7344 0.80664-0.93343 1.0181-0.86433 2.6003 0.1543 3.5332l7.8945 7.2344c-1.4701 5.4042 5.3507 9.2571 9.2168 5.2031l5.6035 1.6484c1.3246 0.38931 2.714-0.3688 3.1035-1.6934 0.38931-1.3246-0.3688-2.714-1.6934-3.1035l-5.6016-1.6484c-0.66891-3.4852-4.2819-5.1877-7.25-4.0918l-7.8945-7.2363c-0.50789-0.46529-1.1589-0.68027-1.7988-0.65234zm22.139 2.332c-0.65934-0.00759-1.3254 0.20621-1.8789 0.65234-1.265 1.0197-1.4631 2.8717-0.44336 4.1367 1.0197 1.265 2.8716 1.4631 4.1367 0.44336 1.265-1.0197 1.463-2.8717 0.44336-4.1367-0.57356-0.71156-1.4101-1.0859-2.2578-1.0957zm-23.764 11.404c-0.19542 0.0054-0.39402 0.03188-0.5918 0.07813-1.5821 0.36992-2.5633 1.9511-2.1934 3.5332 0.36992 1.5821 1.951 2.5653 3.5332 2.1953 1.5821-0.36993 2.5653-1.953 2.1953-3.5352-0.32368-1.3844-1.5754-2.3096-2.9434-2.2715zm19.178 9.1289c-0.47396-0.0207-0.95967 0.07419-1.416 0.29688-1.4602 0.71252-2.0661 2.4733-1.3535 3.9336 0.71252 1.4602 2.4753 2.066 3.9355 1.3535 1.4602-0.71252 2.0661-2.4733 1.3535-3.9336-0.48986-1.0039-1.4768-1.6048-2.5195-1.6504zm-11.68 0.0058c-1.1454-0.04965-2.2642 0.57696-2.7871 1.6777-0.69718 1.4676-0.071124 3.2227 1.3965 3.9199 1.4676 0.69718 3.2207 0.07317 3.918-1.3945 0.69718-1.4676 0.07319-3.2227-1.3945-3.9199-0.3669-0.1743-0.75101-0.26665-1.1328-0.2832z" fill="#fff" style="paint-order:stroke markers fill"/></svg>
