<svg width="32" height="32" version="1.1" viewBox="0 0 32 32" xmlns="http://www.w3.org/2000/svg"><g fill="#fff" fill-rule="evenodd" stroke-linecap="round" stroke-linejoin="round"><path d="m1.6445 2.8398c-1.3169-0.037923-2.3091 1.2407-2.1309 2.5042-0.025572 1.0496-0.080138 2.3593 1.0003 2.9301 1.0224 0.50716 2.1954 0.23077 3.295 0.302h3.068c0.00578 6.3279-0.011563 12.656 0.00869 18.984 0.038036 1.2504 1.2765 2.0936 2.4604 1.9419 1.1297-0.0192 2.5405 0.21087 3.2364-0.92553 0.60412-0.99731 0.29719-2.1977 0.37273-3.3021v-16.698c1.8614-0.020307 3.7273 0.041941 5.5858-0.033602 1.2704-0.14522 1.9243-1.4746 1.7775-2.6403 0.06695-0.98536-0.06525-2.1112-0.99911-2.676-0.95347-0.6224-2.1262-0.31049-3.196-0.38645h-14.479z" stop-color="#000000" style="paint-order:stroke markers fill"/><path d="m23.271 2.641c-0.87276-0.034056-1.4889 0.83227-1.3528 1.6532v5.2181c-0.89962 0.031246-1.8122-0.068155-2.7024 0.060914-0.79462 0.19346-1.0325 1.0545-0.94982 1.7726-0.01977 0.70871-0.06304 1.6447 0.72414 1.9659 0.81921 0.25676 1.7025 0.08561 2.5513 0.13538 0.54241-0.17651 0.34714 0.38467 0.37672 0.72099 0.01699 3.0569-0.03543 6.1154 0.02898 9.1713 0.0918 2.1197 0.9898 4.4273 3.0151 5.3859 1.8182 0.877 3.8667 0.58541 5.8151 0.62814 0.8934-0.03199 1.3422-0.97216 1.223-1.7676 0.0118-0.70706 0.08765-1.5608-0.61452-1.9903-0.68879-0.4217-1.5344-0.17804-2.3004-0.24317-0.87222 0.02608-2.0035 0.04954-2.3701-0.93544-0.60762-1.4561-0.3269-3.0657-0.39219-4.6004v-6.3693c1.4071-0.01422 2.8174 0.02913 4.2224-0.02294 0.86452-0.11426 1.1942-1.0462 1.094-1.8105 0.02836-0.66887 0.03669-1.4571-0.61441-1.8569-0.68805-0.42377-1.5345-0.17899-2.3006-0.2444h-2.4014c-0.01867-1.9255 0.03782-3.8562-0.02913-5.7784-0.17173-0.8164-1.0364-1.2044-1.8043-1.0929h-1.2186zm0 1.0414c0.60525 0.00896 1.2126-0.017979 1.8165 0.01353 0.36065 0.29898 0.12771 0.84342 0.19415 1.2592v5.0789c0.08472 0.72643 0.91681 0.47427 1.4209 0.51968 1.2335 0.0089 2.4691-0.01794 3.7013 0.01353 0.36064 0.29899 0.12771 0.84342 0.19415 1.2592 0.15406 0.60877-0.47638 0.62716-0.91222 0.57915h-3.8845c-0.72643 0.08472-0.47427 0.91681-0.51968 1.4209 0.0127 3.0138-0.02634 6.0288 0.02129 9.0419 0.05639 1.3898 0.63505 3.0766 2.167 3.4046 1.0825 0.22562 2.198 0.06679 3.2948 0.13309 0.36041 0.29975 0.12783 0.84412 0.19414 1.2603 0.15769 0.58604-0.37602 0.73984-0.85213 0.65132-1.8676-0.03429-3.9768 0.25137-5.4951-1.0733-1.5952-1.4054-1.6834-3.693-1.6521-5.6723v-8.6468c-0.08472-0.72643-0.91681-0.47427-1.4209-0.51968-0.68493-0.01369-1.3744 0.02816-2.0563-0.02236-0.32902-0.29606-0.11213-0.8411-0.17494-1.2504-0.15939-0.60469 0.47917-0.62632 0.91222-0.57914 0.80644-0.02363 1.6227 0.04968 2.4223-0.04122 0.52293-0.33741 0.24876-1.0357 0.31764-1.5599 0.01134-1.6994-0.02273-3.4016 0.01713-5.0993 0.05602-0.10405 0.16883-0.18913 0.29426-0.17076z" stop-color="#000000" stroke-width="1.0558" style="paint-order:stroke markers fill"/></g></svg>
