<svg width="32" height="32" version="1.1" viewBox="0 0 32 32" xmlns="http://www.w3.org/2000/svg" xmlns:xlink="http://www.w3.org/1999/xlink">
 <defs>
  <linearGradient id="b" x1=".93918" x2="23.036" y1="8.9396" y2="31.039" gradientUnits="userSpaceOnUse">
   <stop stop-color="#88ce90" offset="0"/>
   <stop stop-color="#3fa8dd" offset="1"/>
  </linearGradient>
  <linearGradient id="a" x1="7.2786" x2="18.367" y1="-1.371" y2="-1.371" gradientUnits="userSpaceOnUse">
   <stop stop-color="#d2e152" offset="0"/>
   <stop stop-color="#e8ad5a" offset="1"/>
  </linearGradient>
 </defs>
 <g transform="translate(.40122 -.030641)" stroke="#000" stroke-linecap="round" stroke-linejoin="round" stroke-miterlimit="2.3">
  <path transform="matrix(1.1947 .48159 -.48154 1.1949 5.5855 7.1481)" d="m12.791-8.9656q2.176 0 3.4773 1.1947 1.3227 1.1947 1.3227 3.264 0 2.1547-1.3653 3.2427-1.3653 1.088-3.6267 1.088l-0.085334 1.6853h-2.112l-0.10667-3.3493h0.704q2.0693 0 3.1573-0.55467 1.1093-0.55467 1.1093-2.112 0-1.1307-0.66133-1.7707-0.64-0.64-1.792-0.64-1.152 0-1.8133 0.61867t-0.66133 1.728h-2.2827q0-1.28 0.576-2.2827t1.6427-1.5573q1.088-0.55467 2.5173-0.55467zm-1.3653 15.189q-0.66133 0-1.1093-0.448-0.448-0.448-0.448-1.1093t0.448-1.1093q0.448-0.448 1.1093-0.448 0.64 0 1.088 0.448 0.448 0.448 0.448 1.1093t-0.448 1.1093q-0.448 0.448-1.088 0.448z" color="#000000" fill="url(#a)" stroke-width="1.5526" style="paint-order:stroke markers fill"/>
  <path d="m2.5678 9.9396c-0.34794 0-0.62865 0.27892-0.62865 0.62689v18.843c0 0.34798 0.28071 0.62872 0.62865 0.62872h18.841c0.34794 0 0.62682-0.28074 0.62682-0.62872v-14.408c-0.1301-0.02911-0.26063-0.05854-0.39108-0.09139l-0.35088 0.75666c-0.36155 0.44582-0.93009 0.6698-1.4985 0.59034 0.14973 0.2085 0.4347 0.29384 0.53362 0.52637 0.37072 0.87144 0.36332 1.9229 0.01279 2.7927-0.35052 0.86976-1.0749 1.6342-1.9463 2.005-0.04164 0.01771-0.08546 0.03149-0.12792 0.04752v4.0118c0 0.34798-0.27889 0.62872-0.62682 0.62872h-11.305c-0.34794 0-0.62865-0.28074-0.62865-0.62872v-11.306c0-0.34798 0.28071-0.62689 0.62865-0.62689h9.4371c-0.01789-0.10318-0.02585-0.20784-0.02376-0.31253l1.2646-3.4561zm6.9079 6.9086c-0.34794 0-0.62865 0.28074-0.62865 0.62872v5.0243c0 0.34798 0.28071 0.62872 0.62865 0.62872h5.0237c0.34794-1e-6 0.62865-0.28074 0.62865-0.62872v-1.1514c-0.65471-0.39292-1.2067-0.99354-1.504-1.6924-0.37072-0.87144-0.36332-1.9229-0.01279-2.7927 0.0022-0.0055 0.0051-0.01093 0.0073-0.01645z" fill="url(#b)" stroke-width="2" style="paint-order:stroke markers fill"/>
 </g>
</svg>
