<svg width="16mm" height="16mm" version="1.1" viewBox="0 0 16 16" xmlns="http://www.w3.org/2000/svg">
 <g transform="translate(.040725 .33275)" fill="#ffbaba">
  <path d="m4.4477 7.8842c-0.036535 0.00763-0.074843 0.027404-0.10823 0.058174l-1.9038 1.7546c-0.032386 0.02984-0.05511 0.06491-0.066518 0.10006l-2.3741 3.3364 3.6373-1.8889c0.042367-0.0037 0.088955-0.02417 0.12858-0.0607l0.014504-0.01322 0.00319-0.0019-6.924e-4 -4.5e-4 1.8867-1.739c0.07632-0.070345 0.097991-0.17195 0.048436-0.22756l-1.1466-1.286c-0.027874-0.031275-0.071918-0.041298-0.11889-0.031486z"/>
  <g transform="matrix(1.0531 -.097314 .097314 1.0531 -1.2999 5.1831)" fill-rule="evenodd" stroke-width=".94553">
   <g transform="matrix(-.53506 .92018 -.92018 -.53506 20.577 1.8743)">
    <rect x="6.5584" y="3.6835" width="2.8832" height="3.7932" rx=".11437" ry=".095295"/>
    <rect x="5.6583" y="1.8551" width="4.6834" height="1.9771" rx=".14381" ry=".14216"/>
    <path d="M 5.1736,8.3079 A 2.8264,2.8264 0 0 1 8,5.4815 2.8264,2.8264 0 0 1 10.8264,8.3079 H 8 Z"/>
   </g>
   <rect transform="matrix(-.51892 .85482 -.86137 -.50798 0 0)" x="-1.2528" y="-13.817" width="1.763" height="5.6066" rx=".11251" ry=".33506"/>
  </g>
  <g transform="matrix(1.9401 0 0 1.9401 -6.2455 .05878)" fill-rule="evenodd" stroke-width=".51544">
   <rect transform="rotate(45)" x="3.5617" y="-2.0994" width="2.5847" height=".43079" rx=".069526" ry=".048336"/>
   <rect transform="matrix(-.70711 .70711 .70711 .70711 0 0)" x="-5.2697" y="6.7179" width="2.5847" height=".43079" rx=".069526" ry=".048336"/>
   <rect transform="matrix(0,1,1,0,0,0)" x=".25406" y="6.085" width="2.5847" height=".43079" rx=".069526" ry=".048336"/>
  </g>
 </g>
</svg>
