<svg width="32" height="32" version="1.1" viewBox="0 0 32 32" xmlns="http://www.w3.org/2000/svg" xmlns:xlink="http://www.w3.org/1999/xlink">
 <defs>
  <linearGradient id="a" x1="1.8598" x2="30.14" y1="8.9767" y2="19.117" gradientUnits="userSpaceOnUse">
   <stop stop-color="#65f336" offset="0"/>
   <stop stop-color="#129f0e" offset="1"/>
  </linearGradient>
 </defs>
 <path d="m24.753 22.14h4.4481c0.4896 0 0.88376 0.39416 0.88376 0.88376v6.2331c0 0.4896-0.39416 0.88376-0.88376 0.88376h-4.4481c-0.4896 0-0.88376-0.39416-0.88376-0.88376v-6.2331c0-0.4896 0.39416-0.88376 0.88376-0.88376zm-22.009 0h18.156c0.4896 0 0.88376 0.39416 0.88376 0.88376v6.2331c0 0.4896-0.39416 0.88376-0.88376 0.88376h-18.156c-0.4896 0-0.88376-0.39416-0.88376-0.88376v-6.2331c0-0.4896 0.39416-0.88376 0.88376-0.88376zm11.947-10.14h14.566c0.4896 0 0.88376 0.39416 0.88376 0.88376v6.2331c0 0.4896-0.39416 0.88376-0.88376 0.88376h-14.566c-0.4896 0-0.88376-0.39416-0.88376-0.88376v-6.2331c0-0.4896 0.39416-0.88376 0.88376-0.88376zm-11.892 0h8.1943c0.4896 0 0.88376 0.39416 0.88376 0.88376v6.2331c0 0.4896-0.39416 0.88376-0.88376 0.88376h-8.1943c-0.4896 0-0.88376-0.39416-0.88376-0.88376v-6.2331c0-0.4896 0.39416-0.88376 0.88376-0.88376zm15.053-10.14h11.404c0.4896 0 0.88376 0.39416 0.88376 0.88376v6.2331c0 0.4896-0.39416 0.88376-0.88376 0.88376h-11.404c-0.4896 0-0.88376-0.39416-0.88376-0.88376v-6.2331c0-0.4896 0.39416-0.88376 0.88376-0.88376zm-15.109 0h11.404c0.4896 0 0.88376 0.39416 0.88376 0.88376v6.2331c0 0.4896-0.39416 0.88376-0.88376 0.88376h-11.404c-0.4896 0-0.88376-0.39416-0.88376-0.88376v-6.2331c0-0.4896 0.39416-0.88376 0.88376-0.88376z" fill="url(#a)" stroke-linecap="round" stroke-linejoin="round" stroke-miterlimit="2.3" stroke-width="4"/>
</svg>
