<svg width="32" height="32" version="1.1" viewBox="0 0 8.4667 8.4667" xmlns="http://www.w3.org/2000/svg"><path d="m8.1194 3.8609e-7s-2.8478 0.089927-5.178 1.0113c-1.1651 0.46068-2.2304 1.1343-2.704 2.1875-0.43207 0.96091-0.30199 1.9483 0.61777 3.397 1.7494-1.4108 3.5466-4.5444 5.2481-4.2325-1.6663 0.99588-2.5791 3.4988-3.8687 5.2481 1.4487 0.91976 2.0723 1.0498 3.0332 0.61777 1.0532-0.47358 1.9358-1.4767 2.1875-2.704 0.45289-2.2083 0.82775-4.9365 0.98959-5.0738 0.00174-0.001473 0.021702-0.10417 0.021702-0.10417-8.697e-4 -0.004601-0.00184-0.009189-0.0029-0.013747 0.00103-0.003598 0.00199-0.007216 0.0029-0.010849-0.00167-0.001947-0.00336-0.003873-0.00507-0.005781-0.0088409-0.17147-0.14608-0.30839-0.31756-0.31684-0.0046732 0.0034958-0.0092619 0.0071124-0.013747 0.010849-0.0035261-0.0036987-0.0071487-0.0073153-0.010844-0.010849z" fill="#fff" fill-rule="evenodd" style="paint-order:stroke markers fill"/></svg>
