<svg width="10.11mm" height="6.6412mm" version="1.1" viewBox="0 0 10.11 6.6412" xmlns="http://www.w3.org/2000/svg">
 <g transform="translate(-2.9539 -9.3588)">
  <g transform="matrix(.63258 0 0 .63258 2.9427 7.6188)" fill="#fff" stroke="#fff">
   <path d="m15.705 7.9508s-7.0063-3.3085-10.346-4.8719c-0.71939-0.16869-1.7036-0.49555-1.7305 0.43306 0.026029 0.72053 0.59507 1.0392 1.0117 1.4587 0.73856 0.69185 1.2547 1.5708 1.5591 2.4593 0.063099 0.26658 0.1005 0.5458 0.07425 0.81848-0.031927 0.33169-0.1531 0.65136-0.27856 0.96006-0.35905 0.99012-1.1011 1.5334-1.7302 2.2037-0.16479 0.1782-0.33931 0.35598-0.45178 0.57107-0.078911 0.15092-0.16267 0.31927-0.14818 0.48895 0.016527 0.1935 0.10807 0.40126 0.26108 0.52085 0.14645 0.11446 0.35834 0.11561 0.5441 0.12204 0.30631 0.01061 0.62433-0.025 0.90896-0.13867 3.5366-1.4124 10.326-5.0257 10.326-5.0257z" stroke-width=".26458px"/>
   <circle cx="2.6634" cy="8.0732" r="2.5456" fill-rule="evenodd" stroke-linecap="round" stroke-linejoin="round" stroke-width=".2"/>
  </g>
 </g>
</svg>
