<?xml version="1.0" encoding="UTF-8"?>
<!-- Created with Inkscape (http://www.inkscape.org/) -->
<svg width="32" height="32" version="1.1" viewBox="0 0 32 32" xmlns="http://www.w3.org/2000/svg">
 <g fill="#fff" stroke-linecap="round" stroke-linejoin="round">
  <path d="m2.8633 1.1133a1.7502 1.7502 0 0 0-1.75 1.75v5.5957c1.0161-0.84356 2.2042-1.4843 3.5-1.8652v-1.9805h22.773v1.9746c1.2951 0.37746 2.4828 1.0141 3.5 1.8535v-5.5781a1.7502 1.7502 0 0 0-1.75-1.75h-26.273zm24.523 10.84v0.30273l1.832 1.9609c-0.36323-0.94201-1.0077-1.7187-1.832-2.2637zm-22.773 0.015625c-0.81309 0.54424-1.4488 1.315-1.8086 2.248l1.8086-1.9355v-0.3125zm-2.0352 3.3867c-0.029579 0.22071-0.1289 0.41484-0.12891 0.64453 6.4e-6 0.27279 0.11087 0.50576 0.15234 0.76562a2.4502 2.4502 0 0 1-0.023438-1.4102zm0.60352 3.0859c0.36219 0.62204 0.8442 1.1398 1.4316 1.541v-0.10938l-1.4316-1.4316zm25.66 0-1.4551 1.4551v0.10352c0.59852-0.40342 1.0879-0.92797 1.4551-1.5586zm-27.729 5.0996v5.5957a1.7502 1.7502 0 0 0 1.75 1.75h26.273a1.7502 1.7502 0 0 0 1.75-1.75v-5.5781c-1.0172 0.83945-2.2049 1.4761-3.5 1.8535v1.9746h-22.773v-1.9805c-1.2958-0.38093-2.4839-1.0217-3.5-1.8652z" color="#000000" style="-inkscape-stroke:none"/>
  <path d="m7.3523 8.6477a7.3525 7.3525 0 0 0-7.3523 7.3523 7.3525 7.3525 0 0 0 7.3523 7.3523 7.3525 7.3525 0 0 0 7.3523-7.3523 7.3525 7.3525 0 0 0-7.3523-7.3523zm1.1996 3.0052v8.6941l-4.1987-4.1987z" color="#000000" fill-rule="evenodd" style="-inkscape-stroke:none;paint-order:stroke markers fill"/>
  <path d="m24.671 8.6477a7.3525 7.3525 0 0 1 7.3523 7.3523 7.3525 7.3525 0 0 1-7.3523 7.3523 7.3525 7.3525 0 0 1-7.3523-7.3523 7.3525 7.3525 0 0 1 7.3523-7.3523zm-1.1996 3.0052v8.6941l4.1987-4.1987z" color="#000000" fill-rule="evenodd" style="-inkscape-stroke:none;paint-order:stroke markers fill"/>
 </g>
</svg>
