<?xml version="1.0" encoding="UTF-8"?>
<!-- Created with Inkscape (http://www.inkscape.org/) -->
<svg width="32" height="32" version="1.1" viewBox="0 0 32 32" xmlns="http://www.w3.org/2000/svg">
 <g fill="#fff" fill-rule="evenodd" stroke-linecap="round" stroke-linejoin="round">
  <path d="m4.2305 5.3652c-0.554 0-1 0.446-1 1v4.3086c0.83383-0.43849 1.781-0.68943 2.7852-0.68945 3.3125 8.06e-5 6.0155 2.7031 6.0156 6.0156-8.1e-5 3.3125-2.7031 6.0155-6.0156 6.0156-1.0042-2.5e-5 -1.9513-0.25096-2.7852-0.68945v4.3086c0 0.554 0.446 1 1 1h23.539c0.554 0 1-0.446 1-1v-4.3086c-0.83383 0.43849-1.781 0.68943-2.7852 0.68945-3.3125-8.1e-5 -6.0155-2.7031-6.0156-6.0156 8.1e-5 -3.3125 2.7031-6.0155 6.0156-6.0156 1.0042 2.46e-5 1.9513 0.25096 2.7852 0.68945v-4.3086c0-0.554-0.446-1-1-1zm1.7852 6.3184c-1.0643 2.6e-5 -2.0347 0.38109-2.7852 1.0137v2.916c0.016989-0.0311 0.035906-0.06111 0.056641-0.08984l2.9512-3.1582c0.23795-0.25464 0.60721-0.33825 0.93164-0.21094 0.32517 0.12783 0.53901 0.44162 0.53906 0.79102v6.1094c4.089e-4 0.75756-0.91549 1.1372-1.4512 0.60156l-2.9492-2.9512c-0.029149-0.03621-0.055278-0.07475-0.078125-0.11523v2.7129c0.75046 0.63258 1.7208 1.0136 2.7852 1.0137 2.3938-5.8e-5 4.3163-1.9226 4.3164-4.3164-5.8e-5 -2.3938-1.9226-4.3163-4.3164-4.3164zm19.969 0c-2.3938 5.8e-5 -4.3163 1.9226-4.3164 4.3164 5.8e-5 2.3938 1.9226 4.3163 4.3164 4.3164 1.0643-2.6e-5 2.0347-0.38109 2.7852-1.0137v-2.6875c-0.02391 0.03174-0.05002 0.06176-0.07813 0.08984l-2.9492 2.9512c-0.53568 0.53567-1.4516 0.156-1.4512-0.60156v-6.1094c5.2e-5 -0.3494 0.21389-0.66318 0.53906-0.79102 0.32443-0.12731 0.69369-0.0437 0.93164 0.21094l2.9512 3.1582c0.02011 0.02242 0.03902 0.04589 0.05664 0.07031v-2.8965c-0.75045-0.63258-1.7208-1.0136-2.7852-1.0137z" stroke-width=".7" style="paint-order:stroke markers fill"/>
  <path d="m25.984 10.834a5.1662 5.1662 0 0 1 5.1661 5.1661 5.1662 5.1662 0 0 1-5.1661 5.1661 5.1662 5.1662 0 0 1-5.1661-5.1661 5.1662 5.1662 0 0 1 5.1661-5.1661zm-0.84292 2.1116v6.109l2.9502-2.9502z" color="#000000" style="-inkscape-stroke:none;paint-order:stroke markers fill"/>
  <path d="m6.0161 10.834a5.1662 5.1662 0 0 0-5.1661 5.1661 5.1662 5.1662 0 0 0 5.1661 5.1661 5.1662 5.1662 0 0 0 5.1661-5.1661 5.1662 5.1662 0 0 0-5.1661-5.1661zm0.84292 2.1116v6.109l-2.9502-2.9502z" color="#000000" style="-inkscape-stroke:none;paint-order:stroke markers fill"/>
 </g>
</svg>
