<?xml version="1.0" encoding="UTF-8"?>
<!-- Created with Inkscape (http://www.inkscape.org/) -->
<svg width="32" height="32" version="1.1" viewBox="0 0 8.4667 8.4667" xmlns="http://www.w3.org/2000/svg">
 <path d="m0.97202 0.92656a0.51493 0.51493 0 0 0-0.51573 0.51418v5.5837a0.51493 0.51493 0 0 0 0.51573 0.51573h5.5842a0.51493 0.51493 0 0 0 0.51367-0.51573v-3.222l-1.0294 1.3699v1.3384h-4.5548v-4.5548h4.2654l0.7736-1.0294zm6.0978 0.94206-1.0294 1.3699v0.26613l1.0294-1.3694z" color="#000000" fill="#fff" stroke-linecap="round" stroke-linejoin="round" style="-inkscape-stroke:none"/>
 <path d="m7.3474 0.93959c-0.15261 0.02175-0.29031 0.10325-0.38281 0.22656l-2.8188 3.2997-0.78704-1.3027c-0.21021-0.24297-0.5777-0.26922-0.82031-0.058594-0.24238 0.21077-0.26775 0.57823-0.056641 0.82031l1.2577 1.8457c0.24235 0.27874 0.67985 0.26358 0.90234-0.03125l3.2524-3.8759c0.19211-0.2563 0.14057-0.61973-0.11523-0.8125-0.12336-0.093022-0.27868-0.13308-0.43164-0.11133z" color="#000000" fill="#fff" fill-rule="evenodd" stroke-linecap="round" stroke-linejoin="round" style="-inkscape-stroke:none;paint-order:stroke markers fill"/>
</svg>
