<?xml version="1.0" encoding="UTF-8"?>
<!-- Created with Inkscape (http://www.inkscape.org/) -->
<svg width="16" height="16" version="1.1" viewBox="0 0 16 16" xmlns="http://www.w3.org/2000/svg">
 <path d="m10.493 1.5131v12.974h-2.128v-5.6748h-6.1041v5.6748h-2.128v-12.974h2.128v5.5628h6.1041v-5.5628z" fill="#fff" fill-rule="evenodd" stroke-linecap="round" stroke-linejoin="round" stroke-width="1.099" aria-label="H"/>
 <path d="m12.555 13.247q0.768-0.664 1.208-1.088 0.448-0.432 0.744-0.896t0.296-0.928q0-0.48-0.232-0.752-0.224-0.272-0.712-0.272-0.472 0-0.736 0.304-0.256 0.296-0.272 0.8h-0.88q0.024-0.912 0.544-1.392 0.528-0.488 1.336-0.488 0.872 0 1.36 0.48 0.496 0.48 0.496 1.28 0 0.576-0.296 1.112-0.288 0.528-0.696 0.952-0.4 0.416-1.024 0.968l-0.36 0.32h2.536v0.76h-3.888v-0.664z" fill="#fff" fill-rule="evenodd" stroke-linecap="round" stroke-linejoin="round" stroke-width="1.099" aria-label="2"/>
</svg>
