<?xml version="1.0" encoding="UTF-8"?>
<!-- Created with Inkscape (http://www.inkscape.org/) -->
<svg width="16" height="16" version="1.1" viewBox="0 0 16 16" xmlns="http://www.w3.org/2000/svg">
 <path d="m10.493 1.5131v12.974h-2.128v-5.6748h-6.1041v5.6748h-2.128v-12.974h2.128v5.5628h6.1041v-5.5628z" fill="#fff" fill-rule="evenodd" stroke-linecap="round" stroke-linejoin="round" stroke-width="1.099" aria-label="H"/>
 <path d="m12.035 10.095q0.048-0.744 0.568-1.16 0.528-0.416 1.344-0.416 0.56 0 0.968 0.2t0.616 0.544 0.208 0.776q0 0.496-0.264 0.848t-0.632 0.472v0.032q0.472 0.144 0.736 0.528 0.264 0.376 0.264 0.968 0 0.472-0.216 0.84t-0.64 0.584q-0.424 0.208-1.016 0.208-0.864 0-1.424-0.44-0.552-0.448-0.592-1.28h0.88q0.032 0.424 0.328 0.696 0.296 0.264 0.8 0.264 0.488 0 0.752-0.264 0.264-0.272 0.264-0.696 0-0.56-0.36-0.792-0.352-0.24-1.088-0.24h-0.208v-0.752h0.216q0.648-8e-3 0.984-0.216 0.344-0.208 0.344-0.656 0-0.384-0.248-0.608-0.248-0.232-0.704-0.232-0.448 0-0.696 0.232-0.248 0.224-0.296 0.56z" fill="#fff" fill-rule="evenodd" stroke-linecap="round" stroke-linejoin="round" stroke-width="1.099" aria-label="3"/>
</svg>
