<?xml version="1.0" encoding="UTF-8"?>
<!-- Created with Inkscape (http://www.inkscape.org/) -->
<svg width="16" height="16" version="1.1" viewBox="0 0 16 16" xmlns="http://www.w3.org/2000/svg">
 <path d="m5.8214 10.538h-3.6647l-0.62966 1.7882h-1.4986l3.1357-8.7649h1.6623l3.1357 8.7649h-1.5112zm-0.40299-1.1712-1.423-4.0676-1.4356 4.0676zm3.4254-0.54151q0-1.0452 0.42817-1.8512 0.44077-0.80597 1.1838-1.2467 0.7556-0.45336 1.6623-0.45336 0.81856 0 1.423 0.32743 0.61707 0.31483 0.98228 0.79338v-1.0075h1.4482v6.9389h-1.4482v-1.0326q-0.36521 0.49114-0.99487 0.81856t-1.4356 0.32743q-0.89412 0-1.6371-0.45336-0.743-0.46595-1.1838-1.2845-0.42817-0.83116-0.42817-1.8764zm5.6796 0.025187q0-0.71782-0.30224-1.2467-0.28965-0.52892-0.76819-0.80597-0.47854-0.27705-1.0326-0.27705t-1.0327 0.27705q-0.47854 0.26446-0.78078 0.79338-0.28965 0.51633-0.28965 1.2341t0.28965 1.2593q0.30224 0.54151 0.78078 0.83116 0.49114 0.27705 1.0327 0.27705 0.5541 0 1.0326-0.27705 0.47855-0.27705 0.76819-0.80597 0.30224-0.54151 0.30224-1.2593z" fill="#fff" fill-rule="evenodd" stroke-linecap="square" stroke-linejoin="bevel" stroke-width="4.2502" aria-label="Aa"/>
</svg>
