<?xml version="1.0" encoding="UTF-8" standalone="no"?>
<!-- Created with Inkscape (http://www.inkscape.org/) -->

<svg
   width="32"
   height="32"
   viewBox="0 0 32 32"
   version="1.1"
   id="svg1"
   inkscape:version="1.3.2 (091e20ef0f, 2023-11-25)"
   sodipodi:docname="md.svg"
   xmlns:inkscape="http://www.inkscape.org/namespaces/inkscape"
   xmlns:sodipodi="http://sodipodi.sourceforge.net/DTD/sodipodi-0.dtd"
   xmlns="http://www.w3.org/2000/svg"
   xmlns:svg="http://www.w3.org/2000/svg">
  <sodipodi:namedview
     id="namedview1"
     pagecolor="#000000"
     bordercolor="#000000"
     borderopacity="0.25"
     inkscape:showpageshadow="2"
     inkscape:pageopacity="0.0"
     inkscape:pagecheckerboard="0"
     inkscape:deskcolor="#d1d1d1"
     inkscape:document-units="px"
     inkscape:zoom="8"
     inkscape:cx="24.3125"
     inkscape:cy="-7.75"
     inkscape:window-width="1560"
     inkscape:window-height="872"
     inkscape:window-x="0"
     inkscape:window-y="0"
     inkscape:window-maximized="1"
     inkscape:current-layer="layer1" />
  <defs
     id="defs1">
    <inkscape:path-effect
       effect="fillet_chamfer"
       id="path-effect1"
       is_visible="true"
       lpeversion="1"
       nodesatellites_param="F,0,0,1,0,1,0,1 @ F,0,0,1,0,0,0,1 @ F,0,0,1,0,1,0,1 @ F,0,1,1,0,0,0,1 @ F,0,0,1,0,1,0,1 @ F,0,0,1,0,0,0,1 @ F,0,0,1,0,1,0,1"
       radius="1"
       unit="px"
       method="auto"
       mode="F"
       chamfer_steps="1"
       flexible="false"
       use_knot_distance="true"
       apply_no_radius="true"
       apply_with_radius="true"
       only_selected="true"
       hide_knots="false" />
  </defs>
  <g
     inkscape:label="Vrstva 1"
     inkscape:groupmode="layer"
     id="layer1">
    <path
       id="path2"
       style="color:#000000;-inkscape-font-specification:'Poppins Medium';fill:#ffffff;fill-rule:evenodd;stroke-width:0.781138;stroke-linecap:round;stroke-linejoin:round;-inkscape-stroke:none"
       d="M 2.0392523,8.9117858 A 0.80374208,0.80374208 0 0 0 1.2352298,9.7158083 V 22.28419 a 0.80374208,0.80374208 0 0 0 0.8040225,0.804023 H 4.1004181 A 0.80374208,0.80374208 0 0 0 4.9044405,22.28419 v -4.843968 l 2.3144253,5.171985 a 0.80374208,0.80374208 0 0 0 0.7338422,0.476006 h 1.4280168 a 0.80374208,0.80374208 0 0 0 0.7353682,-0.476006 l 2.296118,-5.156729 v 4.828712 a 0.80374208,0.80374208 0 0 0 0.804022,0.804023 h 2.061165 A 0.80374208,0.80374208 0 0 0 16.081421,22.28419 V 9.7158083 A 0.80374208,0.80374208 0 0 0 15.277398,8.9117858 H 13.071296 A 0.80374208,0.80374208 0 0 0 12.337454,9.3877915 L 8.6743449,17.601941 4.9975057,9.3862659 A 0.80374208,0.80374208 0 0 0 4.2636636,8.9117858 Z" />
    <path
       id="path3"
       style="fill:#ffffff;fill-rule:evenodd;stroke:none;stroke-width:1.80964;stroke-linecap:round;stroke-linejoin:round;stroke-dasharray:none"
       inkscape:transform-center-x="0.52188328"
       inkscape:transform-center-y="0.93910743"
       d="m 21.719849,8.912108 v 6.625 l -5.08789,0.01563 7.128905,7.535157 7.003906,-7.580078 -5.087889,0.01563 V 8.912108 Z" />
  </g>
</svg>
