<?xml version="1.0" encoding="UTF-8"?>
<!-- Created with Inkscape (http://www.inkscape.org/) -->
<svg width="32" height="32" version="1.1" viewBox="0 0 32 32" xmlns="http://www.w3.org/2000/svg">
 <path d="m1.6982 31.534c3.6961-2.231 5.6275-4.9615 5.6275-7.9584 0-2.3642-1.3652-3.9958-3.3632-3.9958-1.7981 0-3.1967 1.4318-3.1967 3.2633 0 1.6316 1.1987 2.8637 2.7638 2.8637 0.099896 0 0.19979 0 0.29969-0.0333h0.13319c0.099896 0 0.13319 0.0666 0.13319 0.19979 0 1.2653-1.232 2.8637-3.2966 4.2955zm7.9251 0c3.6961-2.231 5.6275-4.9615 5.6275-7.9584 0-2.3642-1.3652-3.9958-3.3632-3.9958-1.7981 0-3.1967 1.4318-3.1967 3.2633 0 1.6316 1.1987 2.8637 2.7638 2.8637 0.0999 0 0.19979 0 0.29969-0.0333h0.1332c0.09989 0 0.13319 0.0666 0.13319 0.19979 0 1.2653-1.232 2.8637-3.2966 4.2955zm20.678-31.068c-3.6961 2.2643-5.6275 4.9615-5.6275 7.9584 0 2.3642 1.3652 3.9958 3.3632 3.9958 1.7981 0 3.1967-1.4318 3.1967-3.2633 0-1.6316-1.1987-2.8637-2.7971-2.8637-0.0999 0-0.16649 0-0.26639 0.033299h-0.13319c-0.0999 0-0.13319-0.066597-0.13319-0.19979 0-1.2653 1.232-2.8637 3.2966-4.2955zm-7.9251 0c-3.6961 2.2643-5.6275 4.9615-5.6275 7.9584 0 2.3642 1.3652 3.9958 3.3632 3.9958 1.7981 0 3.1967-1.4318 3.1967-3.2633 0-1.6316-1.1988-2.8637-2.7971-2.8637-0.0999 0-0.16649 0-0.26639 0.033299h-0.1332c-0.0999 0-0.13319-0.066597-0.13319-0.19979 0-1.2653 1.232-2.8637 3.2966-4.2955z" fill="#fff" fill-rule="evenodd" stroke-linecap="round" stroke-linejoin="round" stroke-width=".61" aria-label="„“"/>
</svg>
