<?xml version="1.0" encoding="UTF-8"?>
<!-- Created with Inkscape (http://www.inkscape.org/) -->
<svg width="32" height="32" version="1.1" viewBox="0 0 8.4667 8.4667" xml:space="preserve" xmlns="http://www.w3.org/2000/svg"><path d="m0.7118 0.76709c-0.20182 0-0.3643 0.16248-0.3643 0.3643v2.3267c0 0.20182 0.16248 0.3643 0.3643 0.3643h7.0431c0.20182 0 0.3643-0.16248 0.3643-0.3643v-2.3267c0-0.20182-0.16248-0.3643-0.3643-0.3643zm5.1818 0.50233a0.48879 0.48879 0 0 1 0.48858 0.48858 0.48879 0.48879 0 0 1-0.48858 0.48905 0.48879 0.48879 0 0 1-0.48905-0.48905 0.48879 0.48879 0 0 1 0.48905-0.48858zm1.2618 0a0.48879 0.48879 0 0 1 0.48858 0.48858 0.48879 0.48879 0 0 1-0.48858 0.48905 0.48879 0.48879 0 0 1-0.48905-0.48905 0.48879 0.48879 0 0 1 0.48905-0.48858zm-2.5235 0.047909a0.48879 0.48879 0 0 1 0.48858 0.48905 0.48879 0.48879 0 0 1-0.48858 0.48858 0.48879 0.48879 0 0 1-0.48905-0.48858 0.48879 0.48879 0 0 1 0.48905-0.48905z" fill="#fff" fill-rule="evenodd" stroke-linecap="round" stroke-linejoin="round" stroke-width=".17472"/><path d="m0.7118 4.7062c-0.20182 0-0.3643 0.16248-0.3643 0.3643v2.3267c0 0.20182 0.16248 0.3643 0.3643 0.3643h7.0431c0.20182 0 0.3643-0.16248 0.3643-0.3643v-2.3267c0-0.20182-0.16248-0.3643-0.3643-0.3643zm5.1818 0.50233a0.48879 0.48879 0 0 1 0.48858 0.48858 0.48879 0.48879 0 0 1-0.48858 0.48905 0.48879 0.48879 0 0 1-0.48905-0.48905 0.48879 0.48879 0 0 1 0.48905-0.48858zm1.2618 0a0.48879 0.48879 0 0 1 0.48858 0.48858 0.48879 0.48879 0 0 1-0.48858 0.48905 0.48879 0.48879 0 0 1-0.48905-0.48905 0.48879 0.48879 0 0 1 0.48905-0.48858zm-2.5235 0.047909a0.48879 0.48879 0 0 1 0.48858 0.48905 0.48879 0.48879 0 0 1-0.48858 0.48858 0.48879 0.48879 0 0 1-0.48905-0.48858 0.48879 0.48879 0 0 1 0.48905-0.48905z" fill="#fff" fill-rule="evenodd" stroke-linecap="round" stroke-linejoin="round" stroke-width=".17472"/></svg>
