<?xml version="1.0" encoding="UTF-8"?>
<!-- Created with Inkscape (http://www.inkscape.org/) -->
<svg width="32" height="32" version="1.1" viewBox="0 0 8.4667 8.4667" xmlns="http://www.w3.org/2000/svg">
 <rect x=".75762" y=".75762" width="6.9515" height="6.9515" fill="none" stroke="#fff" stroke-linecap="round" stroke-linejoin="round" stroke-width=".92605"/>
 <path d="m2.5094 2.2448c-0.14658 0-0.26458 0.1297-0.26458 0.29094v3.3952c0 0.16124 0.118 0.29094 0.26458 0.29094h3.4479c0.14658 0 0.26458-0.1297 0.26458-0.29094v-3.3952c0-0.16124-0.118-0.29094-0.26458-0.29094h-3.4479zm0.34158 0.71831h0.86197c0.07329 0 0.13229 0.059002 0.13229 0.13229v0.86145c0 0.07329-0.059002 0.13229-0.13229 0.13229h-0.86197c-0.07329 0-0.13229-0.059002-0.13229-0.13229v-0.86145c0-0.07329 0.059002-0.13229 0.13229-0.13229zm1.9027 0h0.86197c0.07329 0 0.13229 0.059002 0.13229 0.13229v0.86145c0 0.07329-0.059002 0.13229-0.13229 0.13229h-0.86197c-0.07329 0-0.13229-0.059002-0.13229-0.13229v-0.86145c0-0.07329 0.059002-0.13229 0.13229-0.13229zm-1.9027 1.6537h2.7647c0.07329 0 0.13229 0.059002 0.13229 0.13229v0.41651c0 0.07329-0.059002 0.13229-0.13229 0.13229h-2.7647c-0.07329 0-0.13229-0.059002-0.13229-0.13229v-0.41651c0-0.07329 0.059002-0.13229 0.13229-0.13229z" fill="#fff" fill-rule="evenodd"/>
</svg>
