<?xml version="1.0" encoding="UTF-8"?>
<!-- Created with Inkscape (http://www.inkscape.org/) -->
<svg width="32" height="32" version="1.1" viewBox="0 0 8.4667 8.4667" xml:space="preserve" xmlns="http://www.w3.org/2000/svg"><rect x=".72761" y=".72761" width="6.9515" height="6.9515" fill="none" stroke="#fff" stroke-linecap="round" stroke-linejoin="round" stroke-width=".92605"/><g transform="matrix(.15642 .15406 -.15642 .15406 4.0016 .0002526)" fill="none" stroke="#fff" stroke-linecap="round" stroke-linejoin="bevel" stroke-width="2.4105" style="paint-order:normal"><g transform="translate(5.7367,-5.1092)" style="paint-order:normal"><path d="m5.0288 27.194v-4.2682" style="paint-order:normal"/><path d="m12.417 26.833v-6.6828" style="paint-order:normal"/><path d="m8.6912 16.111c1.8575-0.09515 3.7257 1.1706 3.7257 4.0391" style="paint-order:normal"/><path d="m5.0288 26.494c0 5.0706 7.388 5.7044 7.388 0" style="paint-order:normal"/></g><g transform="rotate(180,11.591,15.573)" style="paint-order:normal"><path d="m5.0288 27.194v-4.2682" style="paint-order:normal"/><path d="m12.417 26.833v-6.6828" style="paint-order:normal"/><path d="m8.6912 16.111c1.8575-0.09515 3.7257 1.1706 3.7257 4.0391" style="paint-order:normal"/><path d="m5.0288 26.494c0 5.0706 7.388 5.7044 7.388 0" style="paint-order:normal"/></g></g></svg>
