<?xml version="1.0" encoding="UTF-8"?>
<!-- Created with Inkscape (http://www.inkscape.org/) -->
<svg width="16" height="16" version="1.1" viewBox="0 0 16 16" xmlns="http://www.w3.org/2000/svg">
 <path d="m7.9629 1.3633c-0.88356 0-1.662 0.15055-2.334 0.44922-0.672 0.29867-1.195 0.72711-1.5684 1.2871-0.37333 0.56-0.55859 1.2143-0.55859 1.9609 0 0.53498 0.082789 0.99717 0.24609 1.3906h2.9375c-0.25667-0.13067-0.4774-0.2899-0.66406-0.47656-0.23644-0.26133-0.35547-0.59201-0.35547-0.99023 0-0.58489 0.1943-1.0326 0.58008-1.3438 0.38578-0.31111 0.88241-0.4668 1.4922-0.4668 0.672 0 1.2143 0.16791 1.625 0.50391 0.41067 0.336 0.63454 0.74195 0.67187 1.2148h2.3516c-0.087111-1.0951-0.53486-1.9539-1.3438-2.5762-0.79644-0.63467-1.8232-0.95312-3.0801-0.95312zm1.6621 8.1855c0.13713 0.096864 0.26278 0.20684 0.37305 0.32812 0.26133 0.27378 0.39063 0.62694 0.39063 1.0625 0 0.56-0.20457 1.0219-0.61523 1.3828-0.41067 0.34844-0.98257 0.52148-1.7168 0.52148-0.70933 0-1.2639-0.18013-1.6621-0.54102-0.38578-0.36089-0.60257-0.82086-0.65234-1.3809h-2.2773c0 0.74667 0.19748 1.399 0.5957 1.959 0.39822 0.56 0.94569 0.99553 1.6426 1.3066 0.69689 0.29867 1.4824 0.44922 2.3535 0.44922 0.92089 0 1.7167-0.17499 2.3887-0.52344 0.68444-0.36089 1.2004-0.83308 1.5488-1.418 0.36089-0.58489 0.54102-1.2076 0.54102-1.8672 0-0.48559-0.068281-0.91116-0.20312-1.2793h-2.707z" fill="#fff" fill-rule="evenodd" stroke-linecap="round" stroke-linejoin="round" stroke-width="1.099"/>
 <g stroke="#f00" stroke-width="3" style="paint-order:stroke markers fill">
  <g fill="#fff" fill-rule="evenodd" stroke="none" stroke-width="3">
   <path d="m1.0124 8h13.975" color="#000000"/>
   <path d="m1.0117 7.4512a0.5495 0.5495 0 0 0-0.54883 0.54883 0.5495 0.5495 0 0 0 0.54883 0.54883h13.977a0.5495 0.5495 0 0 0 0.54883-0.54883 0.5495 0.5495 0 0 0-0.54883-0.54883z" color="#000000"/>
  </g>
 </g>
</svg>
