<?xml version="1.0" encoding="UTF-8" standalone="no"?>
<!-- Created with Inkscape (http://www.inkscape.org/) -->

<svg
   width="64"
   height="64"
   viewBox="0 0 16.933333 16.933333"
   version="1.1"
   id="svg1"
   inkscape:version="1.3.2 (091e20ef0f, 2023-11-25, custom)"
   sodipodi:docname="classic.svg"
   xmlns:inkscape="http://www.inkscape.org/namespaces/inkscape"
   xmlns:sodipodi="http://sodipodi.sourceforge.net/DTD/sodipodi-0.dtd"
   xmlns="http://www.w3.org/2000/svg"
   xmlns:svg="http://www.w3.org/2000/svg">
  <sodipodi:namedview
     id="namedview1"
     pagecolor="#ffffff"
     bordercolor="#000000"
     borderopacity="0.25"
     inkscape:showpageshadow="2"
     inkscape:pageopacity="0.0"
     inkscape:pagecheckerboard="0"
     inkscape:deskcolor="#d1d1d1"
     inkscape:document-units="mm"
     inkscape:zoom="6.9846436"
     inkscape:cx="4.8678217"
     inkscape:cy="15.820421"
     inkscape:window-width="1560"
     inkscape:window-height="872"
     inkscape:window-x="40"
     inkscape:window-y="28"
     inkscape:window-maximized="1"
     inkscape:current-layer="layer1" />
  <defs
     id="defs1" />
  <g
     inkscape:label="Vrstva 1"
     inkscape:groupmode="layer"
     id="layer1">
    <path
       id="rect1"
       style="fill:#ffffff;fill-rule:evenodd;stroke:none;stroke-width:0.274902;stroke-linecap:round"
       d="M 0.50022786,2.6851327 C 0.22322954,2.6851327 0,2.9083622 0,3.1853605 v 4.379624 C 0,7.8419827 0.22322954,8.0646956 0.50022786,8.0646956 H 16.433105 c 0.277,0 0.500228,-0.2227129 0.500228,-0.4997111 v -4.379624 c 0,-0.2769983 -0.223228,-0.5002278 -0.500228,-0.5002278 z M 1.740979,3.4349577 C 2.2884038,3.434896 2.7321946,3.8786869 2.732133,4.4261117 2.7321947,4.9735365 2.2884038,5.4173274 1.740979,5.4172657 1.1935542,5.4173273 0.74976337,4.9735365 0.74982503,4.4261117 0.74976339,3.8786869 1.1935542,3.4348961 1.740979,3.4349577 Z m 9.050094,0 c 0.547399,0 0.991154,0.4437548 0.991154,0.991154 0,0.5473992 -0.443755,0.991154 -0.991154,0.991154 -0.547399,2e-7 -0.9911544,-0.4437546 -0.9911544,-0.991154 0,-0.5473994 0.4437554,-0.9911542 0.9911544,-0.991154 z m 2.267045,0 c 0.547399,0 0.991154,0.4437548 0.991154,0.991154 0,0.5473992 -0.443755,0.991154 -0.991154,0.991154 -0.547399,0 -0.991154,-0.4437548 -0.991154,-0.991154 0,-0.5473992 0.443755,-0.991154 0.991154,-0.991154 z m 2.266528,0 c 0.547399,0 0.991154,0.4437548 0.991154,0.991154 0,0.5473992 -0.443755,0.991154 -0.991154,0.991154 -0.547399,0 -0.991154,-0.4437548 -0.991154,-0.991154 0,-0.5473992 0.443755,-0.991154 0.991154,-0.991154 z M 3.2675008,3.9305347 h 4.5123861 c 0.066843,0 0.1204061,0.044336 0.1204061,0.099736 v 0.791683 c 0,0.0554 -0.053563,0.099736 -0.1204061,0.099736 H 3.2675008 c -0.066843,0 -0.1204061,-0.044336 -0.1204061,-0.099736 v -0.791683 c 0,-0.0554 0.053563,-0.099736 0.1204061,-0.099736 z m -0.055811,1.486731 h 2.4262085 c 0.03594,0 0.065112,0.016974 0.065112,0.03824 v 0.303858 c 0,0.021266 -0.029172,0.03824 -0.065112,0.03824 h -2.426208 c -0.03594,0 -0.064596,-0.016974 -0.064596,-0.03824 V 5.4555062 c 0,-0.021266 0.028655,-0.03824 0.064595,-0.038241 z"
       sodipodi:nodetypes="ssssssssscccccsssssssssssssssssssssssssssssssss" />
    <path
       id="rect1-6"
       style="fill:#ffffff;fill-rule:evenodd;stroke:none;stroke-width:0.274902;stroke-linecap:round"
       d="M 0.50022822,8.8686383 C 0.22322982,8.8686383 3.1666666e-7,9.0918678 3.1666666e-7,9.3688662 V 13.74849 c 0,0.276999 0.22322950333334,0.499711 0.50022790333334,0.499711 H 16.433105 c 0.277,0 0.500228,-0.222712 0.500228,-0.499711 V 9.3688662 c 0,-0.2769984 -0.223228,-0.5002279 -0.500228,-0.5002279 z m 1.24075108,0.749825 c 0.5474248,-6.16e-5 0.9912156,0.4437287 0.991154,0.9911537 6.17e-5,0.547425 -0.4437292,0.991216 -0.991154,0.991154 -0.5474248,6.2e-5 -0.99121558,-0.443729 -0.99115398,-0.991154 -6.16e-5,-0.547425 0.44372918,-0.9912153 0.99115398,-0.9911537 z m 9.0500937,0 c 0.547399,0 0.991154,0.4437547 0.991154,0.9911537 0,0.547399 -0.443755,0.991154 -0.991154,0.991154 -0.547399,0 -0.9911541,-0.443754 -0.9911541,-0.991154 0,-0.547399 0.4437551,-0.9911539 0.9911541,-0.9911537 z m 2.267045,0 c 0.547399,0 0.991154,0.4437547 0.991154,0.9911537 0,0.547399 -0.443755,0.991154 -0.991154,0.991154 -0.547399,0 -0.991154,-0.443755 -0.991154,-0.991154 0,-0.547399 0.443755,-0.9911537 0.991154,-0.9911537 z m 2.266528,0 c 0.547399,0 0.991154,0.4437547 0.991154,0.9911537 0,0.547399 -0.443755,0.991154 -0.991154,0.991154 -0.547399,0 -0.991154,-0.443755 -0.991154,-0.991154 0,-0.547399 0.443755,-0.9911537 0.991154,-0.9911537 z M 3.2675011,10.11404 h 4.5123861 c 0.066843,0 0.1204061,0.04434 0.1204061,0.09974 v 0.791683 c 0,0.0554 -0.053563,0.09974 -0.1204061,0.09974 H 3.2675011 c -0.066843,0 -0.1204061,-0.04434 -0.1204061,-0.09974 v -0.791683 c 0,-0.0554 0.053563,-0.09974 0.1204061,-0.09974 z m -0.055811,1.486731 h 2.4262085 c 0.03594,0 0.065112,0.01697 0.065112,0.03824 v 0.303858 c 0,0.02127 -0.029172,0.03824 -0.065112,0.03824 h -2.426208 c -0.03594,0 -0.064596,-0.01697 -0.064596,-0.03824 v -0.303857 c 0,-0.02127 0.028655,-0.03824 0.064596,-0.03824 z"
       sodipodi:nodetypes="ssssssssscccccsssssssssssssssssssssssssssssssss" />
  </g>
</svg>
