<svg width="32" height="32" version="1.1" viewBox="0 0 32 32" xmlns="http://www.w3.org/2000/svg"><defs><linearGradient id="linearGradient927" x2="32" y1="16" y2="16" gradientTransform="translate(-10.144 5.8564)" gradientUnits="userSpaceOnUse"><stop offset="0"/><stop stop-color="#4c4c2b" offset="1"/></linearGradient></defs><circle transform="rotate(-30)" cx="5.8564" cy="21.856" r="16" fill="url(#linearGradient927)" stroke-linecap="round" stroke-width="10.519"/><path d="m12.916 3.0256c-1.1995 1.1083-1.8653 2.8449-3.5386 3.373-1.1605-0.0075519-3.2109-0.46933-2.7127 1.4116-0.065925 1.676-0.80719 3.6477-2.5586 4.1698-1.2227 0.86326 0.36254 2.0677 0.37478 3.1072 0.16266 1.4006-0.3995 2.7854-1.2031 3.9071-0.11254 1.5086 2.3929 0.96569 2.5659 2.5414 0.97713 1.1481 0.11241 3.0284 0.87511 3.9787 1.4281 0.3649 3.1064-0.0067 4.2316 1.2193 1.0093 0.69333 1.0215 2.9469 2.6523 1.898 1.2834-0.91586 3.089-1.3638 4.479-0.41976 0.75961 0.701 1.658 0.94141 2.0792-0.23331 0.74109-1.2831 1.9718-2.7295 3.6105-2.5057 1.1295 0.3408 2.0282-0.26396 1.7073-1.4911 0.03957-1.335 0.34833-2.959 1.5883-3.6895 1.2711 0.0011 1.944-1.5167 0.57441-2.1257-0.634-1.6881 0.08417-3.5443 1.1196-4.9079 0.03367-1.4271-2.3018-0.88132-2.4683-2.3961-1.0008-1.1844-0.23367-3.037-0.83367-4.0818-1.4391-0.46351-3.2228-0.082092-4.3174-1.4055-0.80947-0.89285-1.139-2.9801-2.6458-1.7853-1.1263 0.5464-2.3918 0.96262-3.6415 0.60987-0.7709-0.17123-1.1793-0.98622-1.9385-1.174zm5.5255 2.0765c-0.47004 1.0895-0.33619 2.7042-1.6642 3.198-1.4538 0.77813-2.3531-0.61363-2.448-1.8961-0.80604-1.7056 1.2368-0.56314 2.0924-0.82229 0.6923-0.058231 1.3726-0.22926 2.0197-0.47956zm-5.7397 0.30769c0.23402 1.2348 1.1298 2.6827 0.06867 3.7925-1.2361 1.3716-2.9141-0.28079-3.5951-1.3525 1.1436-0.59327 2.5388-1.0396 3.3413-2.2263zm6.9433 0.26723c0.76025 1.253 2.8725 1.8054 3.6173 2.2866-0.87062 0.7268-1.6408 2.1323-2.9794 1.7631-1.7527-0.41899-1.41-2.3458-0.79492-3.5506 0.05162-0.16659 0.10372-0.33303 0.15702-0.4991zm-11.715 2.8599c0.81153 0.90756 2.3263 1.6632 2.0039 3.1161-0.21223 1.2997-1.4618 1.956-2.6096 1.304-0.74164-0.09863-1.9073-0.43788-0.77169-1.0966 0.78506-0.93539 1.2002-2.1284 1.3775-3.3234zm16.43 0.40149c-0.09527 1.4141 1.281 3.1248 1.5584 3.8624-1.1622 0.26069-3.0174 1.1904-3.5716-0.4705-0.6485-1.513 0.922-2.405 1.8547-3.2588zm-7.2709 0.65337c-0.40501 0.8797-0.57181 2.9151-1.1475 3.0807-0.20089-1.0807-1.4886-3.2998 0.525-2.9286 0.21018-0.038987 0.41722-0.093014 0.62254-0.15209zm-3.2295 0.32738c0.10707 0.97214 1.0121 2.8335 0.61368 3.2699-0.71693-0.8371-3.0296-2.1018-1.0766-2.8329 0.16226-0.13698 0.31531-0.28451 0.46292-0.43705zm4.6489 0.29461c0.35871 0.53944 2.2383 0.6921 0.90304 1.3766-0.5997 0.41327-1.6543 1.9748-2.0265 1.5716 0.39941-0.77825 0.5269-2.8758 1.1234-2.9482zm-5.879 3.0136c0.36935 0.38365 1.9907 1.7812 0.50776 1.1703-0.70188-0.3361-2.7143-0.2294-2.4756-1.0373 0.29808-0.66176 0.5476-2.0114 1.2367-0.86444 0.24371 0.2438 0.48742 0.48761 0.73114 0.73141zm8.3791-0.85631c0.2398 0.74938 1.042 1.8361-0.4046 1.65-0.60454 0.09166-2.1007 0.69211-2.1286 0.29499 0.78231-0.48955 1.7884-2.1812 2.5332-1.9449zm-15.494 1.3839c1.0281 0.47496 2.6345 0.30299 3.0959 1.5553 0.48311 1.5114-0.90609 2.6462-2.2906 2.7258-0.78651 0.46004-1.344-0.12634-0.71976-0.85226 0.32017-1.1163 0.29104-2.3301-0.085526-3.4289zm21.233 0.26683c-0.88861 1.0935-0.27066 3.2506-0.93562 3.9665-1.2375-0.0559-3.3023-0.80079-2.4149-2.3737 0.3869-1.4438 2.2204-1.2516 3.3505-1.5928zm-4.54 0.99864c-0.50626 0.59863 0.20223 2.6645-1.1802 1.7433-0.57808-0.31482-2.4395-0.47179-2.1483-0.98493 1.1043-0.27527 2.2164-0.51751 3.3286-0.75837zm-12.248 0.08805c0.86627 0.4227 3.062 0.5767 3.1054 1.2043-0.93482 0.09639-2.7589 1.1325-3.1943 0.47151 0.16727-0.54154 0.15483-1.1189 0.088933-1.6758zm8.0042 2.2703c1.026 0.43088 3.0062 0.2643 3.4542 1.0909-0.43627 0.49662-0.51234 2.3139-1.2984 1.0015-0.72311-0.69277-1.4502-1.3816-2.1558-2.0923zm-4.1959 0.14687c-0.90837 0.59372-1.8347 2.3461-2.7601 2.2206-0.29194-0.65447-1.0531-1.7986 0.31374-1.6252 0.81366-0.2057 1.6275-0.4112 2.4464-0.59542zm0.95171 0.94577c-0.45794 0.9891-0.37707 2.8961-1.2161 3.3241-0.4887-0.39802-2.1302-0.60882-0.87087-1.2905 0.69082-0.68279 1.3784-1.3691 2.087-2.0336zm2.5244 0.06295c0.61079 0.83662 2.2957 1.6066 2.2016 2.5461-0.57637 0.45297-1.6443 1.3924-1.5385-0.05821-0.2293-0.82707-0.45318-1.6557-0.66309-2.4879zm7.2571 0.60924c1.082 0.04424 1.4096 0.84915 0.50364 1.5015-0.58143 0.6611-0.60423 2.2913-0.96498 2.5424-0.85809-0.81589-2.2973-1.6549-1.9113-3.0534 0.06882-0.8917 1.0049-1.6812 1.8429-1.1666 0.1766 0.05871 0.3532 0.11741 0.5298 0.17612zm-15.899-0.30975c1.8117 0.63428 1.3497 3.1288-0.17036 3.817-0.59493 0.9623-0.98084 0.25683-0.92109-0.53033-0.11917-0.97968-1.4107-2.0169-1.3616-2.692 0.81483-0.20965 1.6293-0.42258 2.4531-0.59474zm7.3571 0.14694c0.02687 0.98235 1.3966 2.7671 0.39817 3.2383-0.81205 0.25409-1.8242 0.28302-1.0762-0.82522 0.22178-0.80554 0.43982-1.6122 0.67802-2.4131zm4.8813 3.1676c0.59773 0.50944 2.3189 1.4526 1.7493 2.1177-1.2856 0.14954-2.5791 1.8657-3.1617 2.1211-0.4431-1.2878-1.1802-3.0737 0.34436-3.9789 0.31331-0.2028 0.69536-0.30439 1.068-0.25993zm-9.538 0.25869c1.8743-0.22443 2.2552 2.0901 1.4337 3.3371-0.41464 1.4639-1.2649-0.90294-2.2021-0.78367-0.63234-0.33068-2.4464-0.47435-1.1539-1.2387 0.51973-0.56621 1.0584-1.3478 1.9223-1.3147zm4.967 1.1443c1.4949-0.03228 1.3633 1.9071 1.7445 2.8974-1.0095 0.34171-2.3541-0.40655-3.4318 0.27773-1.5228 0.70099-0.31231-1.4638-0.152-2.0981 0.33199-0.70588 1.0639-1.1241 1.8394-1.077z" fill="#fff" fill-rule="evenodd" style="paint-order:stroke markers fill"/></svg>
