<svg width="32" height="32" version="1.1" viewBox="0 0 32 32" xmlns="http://www.w3.org/2000/svg"><defs><linearGradient id="linearGradient927-4" x2="32" y1="16" y2="16" gradientTransform="translate(-10.144,5.8564)" gradientUnits="userSpaceOnUse"><stop stop-color="#4bbd4b" offset="0"/><stop stop-color="#29b241" offset="1"/></linearGradient></defs><circle transform="rotate(-30)" cx="5.8564" cy="21.856" r="16" fill="url(#linearGradient927-4)" stroke-linecap="round" stroke-width="10.519"/><g fill="#fff" fill-rule="evenodd" stroke-linecap="round" stroke-linejoin="round"><path d="m19.625 16.725v11.36l9.1978-5.6798z" style="paint-order:stroke markers fill"/><path d="m11.953 16.725v11.36l-9.1978-5.6798z" style="paint-order:stroke markers fill"/><path d="m7.6543 4.4707c-0.1662 0-0.30078 0.13458-0.30078 0.30078v13.031l3.8105-2.3535a1.5002 1.5002 0 0 1 1.5195-0.033203 1.5002 1.5002 0 0 1 0.76953 1.3086v5.6797h4.6719v-5.6797a1.5002 1.5002 0 0 1 0.76953-1.3086 1.5002 1.5002 0 0 1 1.5195 0.033203l4.2305 2.6133v-13.291c0-0.1662-0.13263-0.30078-0.29883-0.30078h-16.691zm2.3398 3.1797h3.918c0.1662 0 0.29883 0.13458 0.29883 0.30078v3.916c0 0.1662-0.13263 0.30078-0.29883 0.30078h-3.918c-0.1662 0-0.29883-0.13458-0.29883-0.30078v-3.916c0-0.1662 0.13263-0.30078 0.29883-0.30078zm7.6719 0h3.918c0.1662 0 0.29883 0.13458 0.29883 0.30078v3.916c0 0.1662-0.13263 0.30078-0.29883 0.30078h-3.918c-0.1662 0-0.29883-0.13458-0.29883-0.30078v-3.916c0-0.1662 0.13263-0.30078 0.29883-0.30078zm-7.2129 11.764-3.0996 1.9141v0.77734c0 0.1662 0.13458 0.29883 0.30078 0.29883h2.7988v-2.9902zm10.672 0v2.9902h3.2207c0.1662 0 0.29883-0.13263 0.29883-0.29883v-0.51953l-3.5195-2.1719z" style="paint-order:stroke markers fill"/></g></svg>
