<?xml version="1.0" encoding="UTF-8"?>
<!-- Created with Inkscape (http://www.inkscape.org/) -->
<svg width="32" height="32" version="1.1" viewBox="0 0 32 32" xmlns="http://www.w3.org/2000/svg" xmlns:xlink="http://www.w3.org/1999/xlink">
 <defs>
  <linearGradient id="linearGradient3" x1="7.9598" x2="36.901" y1="12.534" y2="12.534" gradientUnits="userSpaceOnUse">
   <stop stop-color="#b8b8b8" stop-opacity="0" offset="0"/>
   <stop stop-color="#626262" offset=".49084"/>
   <stop stop-color="#b8b8b8" stop-opacity="0" offset="1"/>
  </linearGradient>
 </defs>
 <g fill-rule="evenodd">
  <rect y="7.3514" width="32" height="17.297" rx="1" ry="1" fill="#fff" style="paint-order:stroke markers fill"/>
  <path transform="rotate(7.2846 -10.893 -33.832)" d="m13.344 13.44-2.0211-0.87827-1.8693 1.167 0.21073-2.1936-1.6875-1.4172 2.1513-0.47743 0.82632-2.0429 1.1189 1.8985 2.1982 0.1546-1.4598 1.6508zm6.142-1.0501-1.9772-0.97315-1.9225 1.077 0.31454-2.1811-1.6184-1.4956 2.1716-0.37485 0.92229-2.0014 1.0275 1.9494 2.1884 0.25869-1.5365 1.5797zm8.6379-2.1674-2.156-0.45564-1.5976 1.5178-0.23292-2.1913-1.9372-1.0504 2.0121-0.89867 0.40038-2.167 1.4765 1.6359 2.1847-0.28885-1.0996 1.9097zm4.7463 0.47661-1.335-1.7533-2.2011 0.10575 1.2549-1.8114-0.78076-2.0607 2.1106 0.63376 1.7186-1.3793 0.04945 2.2031 1.8429 1.2082-2.08 0.72783zm-17.498 7.7455-2.1729 0.36715-0.92938 1.9981-1.0206-1.9531-2.1875-0.26645 1.5421-1.5742-0.42256-2.1628 1.9737 0.98015 1.9263-1.0702-0.32227 2.18zm4.6379 1.4773-1.7475-1.3426-2.0966 0.67842 0.73684-2.0768-1.2931-1.7844 2.2029 0.05901 1.2975-1.7812 0.62461 2.1133 2.095 0.68352-1.8168 1.2471zm7.6172-1.8651-1.9371-1.0505-1.9636 1.0002 0.40052-2.167-1.558-1.5584 2.1847-0.28871 1.0007-1.9634 0.94968 1.9885 2.1765 0.345-1.5977 1.5177zm7.7046-1.0364-2.0605-0.78141-1.8118 1.2544 0.10645-2.2011-1.7529-1.3355 2.1263-0.57894 0.72849-2.0798 1.2077 1.8433 2.2031 0.05015-1.3799 1.7182z" fill="url(#linearGradient3)" style="paint-order:stroke markers fill"/>
 </g>
</svg>
